<?xml version="1.0" encoding="UTF-8" standalone="no"?>
<!-- Created with Inkscape (http://www.inkscape.org/) -->

<svg
   xmlns:dc="http://purl.org/dc/elements/1.1/"
   xmlns:cc="http://creativecommons.org/ns#"
   xmlns:rdf="http://www.w3.org/1999/02/22-rdf-syntax-ns#"
   xmlns:svg="http://www.w3.org/2000/svg"
   xmlns="http://www.w3.org/2000/svg"
   xmlns:sodipodi="http://sodipodi.sourceforge.net/DTD/sodipodi-0.dtd"
   xmlns:inkscape="http://www.inkscape.org/namespaces/inkscape"
   width="512"
   height="512"
   id="svg2"
   version="1.1"
   inkscape:version="0.48.5 r10040"
   sodipodi:docname="craft-hack.png">
  <defs
     id="defs4" />
  <sodipodi:namedview
     id="base"
     pagecolor="#ffffff"
     bordercolor="#666666"
     borderopacity="1.0"
     inkscape:pageopacity="0.0"
     inkscape:pageshadow="2"
     inkscape:zoom="0.74436587"
     inkscape:cx="263.33181"
     inkscape:cy="330.60139"
     inkscape:document-units="px"
     inkscape:current-layer="layer1"
     showgrid="false"
     inkscape:window-width="1506"
     inkscape:window-height="926"
     inkscape:window-x="359"
     inkscape:window-y="126"
     inkscape:window-maximized="0" />
  <metadata
     id="metadata7">
    <rdf:RDF>
      <cc:Work
         rdf:about="">
        <dc:format>image/svg+xml</dc:format>
        <dc:type
           rdf:resource="http://purl.org/dc/dcmitype/StillImage" />
        <dc:title></dc:title>
      </cc:Work>
    </rdf:RDF>
  </metadata>
  <g
     inkscape:label="Layer 1"
     inkscape:groupmode="layer"
     id="layer1"
     transform="translate(0,-540.36218)">
    <rect
       style="fill:#000000;fill-opacity:1;stroke-width:4;stroke-miterlimit:4;stroke-dasharray:4, 8;stroke-dashoffset:0"
       id="rect2985"
       width="512"
       height="512"
       x="1.1568915e-07"
       y="540.46222" />
    <text
       xml:space="preserve"
       style="font-size:35.4156456px;font-style:normal;font-weight:normal;line-height:127.99999714%;letter-spacing:0px;word-spacing:0px;fill:#000000;fill-opacity:1;stroke:none;font-family:Sans"
       x="385.78088"
       y="991.65369"
       id="text2987"
       sodipodi:linespacing="128%"><tspan
         sodipodi:role="line"
         id="tspan2989"
         x="385.78088"
         y="991.65369"
         style="font-size:88.53911591px;font-style:normal;font-variant:normal;font-weight:bold;font-stretch:normal;line-height:127.99999714%;letter-spacing:8.8539114px;word-spacing:0px;fill:#ffffff;font-family:Open Sans;-inkscape-font-specification:Open Sans Bold"
         dy="0.026561735"
         rotate="0 0 0"
         dx="0">{}</tspan></text>
    <polygon
       points="31.578,7.861 31.581,7.854 31.578,7.861 31.573,7.874 "
       id="polygon9"
       transform="matrix(2.4994959,0,0,2.4994959,151.91707,660.86878)"
       style="fill:#ffffff" />
    <polygon
       points="55.55,28.841 55.551,28.84 55.55,28.84 "
       id="polygon11"
       transform="matrix(2.4994959,0,0,2.4994959,151.91707,750.61729)"
       style="fill:#ffffff" />
    <polygon
       points="44.95,45.249 44.949,45.252 44.952,45.248 "
       id="polygon13"
       transform="matrix(2.4994959,0,0,2.4994959,151.91707,709.60182)"
       style="fill:#ffffff" />
    <polygon
       points="44.952,45.246 44.954,45.241 44.952,45.245 "
       id="polygon15"
       transform="matrix(2.4994959,0,0,2.4994959,151.91707,709.61806)"
       style="fill:#ffffff" />
    <g
       id="g3102"
       transform="matrix(0.72821462,0,0,0.72821462,74.888427,220.28197)">
      <path
         style="fill:#ffffff"
         id="path3"
         d="m 271.95802,744.74817 c -0.47426,1.26755 -0.78198,2.56897 -0.91466,3.89297 -0.14962,1.46234 -0.1101,2.93314 0.16091,4.38983 0.16374,0.87232 0.36982,1.74182 0.68035,2.59156 1.45388,3.92967 4.34467,7.05478 8.15295,8.80506 2.07211,0.95419 4.27409,1.4341 6.53534,1.4341 2.81175,0 5.50211,-0.78762 7.85088,-2.15679 1.27037,-0.73964 2.43628,-1.64867 3.46387,-2.72142 0.91749,-0.95701 1.71076,-2.0467 2.36853,-3.23238 0.18915,-0.34159 0.4037,-0.66906 0.56743,-1.03041 0,0 31.27365,-68.02965 31.34141,-68.16798 0.065,-0.1468 0.9429,-2.74964 1.12922,-3.79699 1.22802,-6.85434 -2.21044,-13.94864 -8.82765,-16.99471 -2.06648,-0.95418 -4.26844,-1.43411 -6.5297,-1.43411 -4.76529,0 -9.19747,2.20198 -12.13907,5.79289 -0.82716,1.01347 -1.5555,2.11728 -2.11164,3.33966 0.003,-0.0113 0.005,-0.0226 0.0112,-0.0311 l -0.0169,0.0339 c -0.003,0.003 -0.005,0.0113 -0.0113,0.0169 l -31.32447,68.15386 c -0.16373,0.36418 -0.25125,0.74246 -0.38676,1.1151 z"
         inkscape:connector-curvature="0" />
      <path
         style="fill:#ffffff"
         id="path5"
         d="m 286.06477,669.83877 c 0.6634,0.66624 1.09533,1.53573 1.41152,2.4871 0.74245,2.2556 0.61824,5.14358 0.003,8.07108 -0.31618,1.49338 -0.73964,2.97548 -1.24778,4.37853 -0.19197,0.5392 -0.38676,1.08405 -0.60413,1.5922 -0.31901,0.77633 -0.73964,1.6797 -1.2252,2.63389 -4.24586,8.39855 -15.17103,22.51376 -40.82965,23.3889 -0.0142,0 -0.0339,0.003 -0.048,0.003 l -10.69085,22.2625 c 6.67931,1.57808 18.56714,5.31014 28.87124,13.35298 l 34.85044,-75.82406 c 0.57026,-1.2365 0.90338,-2.50968 1.13204,-3.79417 1.21956,-6.86282 -2.21044,-13.95994 -8.82765,-17.00035 -2.07211,-0.94854 -4.27408,-1.43411 -6.52969,-1.43411 -4.76529,0 -9.19464,2.19915 -12.13343,5.79288 -0.83562,1.01347 -1.56397,2.12011 -2.12857,3.34248 0.005,-0.0113 0.005,-0.0169 0.0169,-0.0282 l -0.0169,0.0282 -0.009,0.0197 -4.40394,9.58423 h 21.26315 l 1.14616,1.14333 z"
         inkscape:connector-curvature="0" />
      <path
         style="fill:#ffffff"
         id="path7"
         d="m 244.80602,668.69262 h 3.81675 6.40265 l 5.89169,-12.84202 c 0.56461,-1.2365 0.90055,-2.51251 1.12639,-3.79417 1.22238,-6.85717 -2.20761,-13.95429 -8.82482,-16.99753 -2.07776,-0.94854 -4.27409,-1.43975 -6.53252,-1.43975 -4.76529,0 -9.19747,2.2048 -12.13625,5.7957 -0.82715,1.01348 -1.55832,2.12011 -2.12011,3.34531 0,0.005 -0.0113,0.0113 -0.0113,0.0169 l -11.8935,25.91553 h 13.02551 11.25547 z"
         inkscape:connector-curvature="0" />
      <path
         style="fill:#ffffff"
         id="path17"
         d="m 355.80518,727.55867 c 0,-1.76158 -0.98242,-5.40613 -1.02194,-5.44 -2.21609,-5.97073 -7.91864,-10.242 -14.65441,-10.242 -1.41435,0 -2.76376,0.24844 -4.06801,0.60131 -2.2669,0.60979 -4.3136,1.71359 -6.05542,3.19286 -2.04388,1.74182 -3.61914,3.96638 -4.55921,6.53535 -0.0112,0.0339 -0.0169,0.0734 -0.0339,0.10727 l -19.58908,42.31739 0.005,0 c -0.57873,1.2619 -0.8695,2.57744 -0.93726,3.88733 -0.0226,0.46863 0,0.9316 0.0367,1.38894 0.29924,3.68406 2.50686,7.10841 6.09776,8.75989 1.70513,0.78763 3.54292,1.02194 5.33555,0.83845 2.33748,-0.24279 4.59309,-1.21956 6.32927,-2.81175 0.83279,-0.76505 1.52162,-1.69383 2.06364,-2.71577 l 10.17706,-21.98302 7.11689,3.28319 0.70576,-1.53291 -10.56382,22.98802 -0.0169,0.0339 c -0.17503,0.38111 -0.38676,0.73117 -0.59566,1.08969 -0.43758,0.78481 -0.92314,1.54704 -1.46234,2.25561 -1.10381,1.46516 -2.42782,2.72989 -3.89297,3.79135 -2.83998,2.06929 -6.24739,3.33965 -9.86371,3.52033 -0.31336,0.0197 -0.61542,0.0593 -0.92314,0.0593 l -0.003,0 c -2.66213,0 -5.24803,-0.57026 -7.68714,-1.68818 -3.64737,-1.68253 -6.44783,-4.42088 -8.28846,-7.67866 -0.88643,-1.57244 -1.51597,-3.26627 -1.91402,-5.02784 -0.14961,-0.65777 -0.271,-1.31555 -0.34723,-1.99025 -1.2139,0.62107 -2.46169,1.1631 -3.7744,1.56678 -2.19069,0.67189 -4.49711,1.03889 -6.84588,1.03889 0,0 0,0 -0.003,0 -2.72422,0 -4.54509,-0.48556 -7.08865,-1.40306 1.4454,4.73142 2.34595,9.95969 2.34595,15.89373 l 0,29.71533 -7.83959,0 0,-29.71533 c 0,-7.11689 -2.22456,-13.14408 -4.51122,-18.28766 -10.71062,-24.12289 -41.29827,-28.29534 -42.85941,-28.49013 l -5.4033,-0.67754 17.35041,-36.14057 2.47016,0 c 0.65495,0 1.21391,-0.0819 1.84062,-0.0988 1.5188,-0.0452 3.03195,-0.0932 4.42653,-0.23713 14.95365,-1.54986 23.15741,-8.51994 27.4936,-14.49632 0.37547,-0.51661 0.70294,-1.03606 1.03323,-1.54702 0.76787,-1.20262 1.4087,-2.377 1.9479,-3.52317 0.61824,-1.30706 1.09817,-2.55767 1.45951,-3.70664 0.55049,-1.77288 0.84128,-3.31425 0.92596,-4.45477 l -64.86681,0 c -7.76336,0 -14.54996,4.116 -18.34977,10.27587 -0.88643,1.43976 -1.61478,2.98114 -2.15116,4.61568 l -20.37671,43.70068 -1.04735,2.24714 c -1.005,2.48992 -1.57243,5.20569 -1.57243,8.05978 0,3.90144 1.05299,7.55164 2.86256,10.71062 l 2.2048,3.16181 50.07511,66.31606 -2.56633,80.29054 c 33.59278,-0.013 68.96987,0.0128 101.93437,0.009 l 2.57133,-56.64762 24.90205,-50.69335 c 0.35006,-0.62954 0.68599,-1.25908 0.95136,-1.93944 0.65495,-1.67688 1.03606,-3.48645 1.06711,-5.38636 0.005,-0.096 0.003,-63.69628 0.003,-63.69628 z"
         inkscape:connector-curvature="0"
         sodipodi:nodetypes="ccscccccccccccccccccccccssccccccscsccsccccscccccccsccccsccccccccccc" />
    </g>
    <path
       style="fill:#ffffff"
       inkscape:connector-curvature="0"
       d="m 457.50485,582.9613 c -26.79734,-0.89109 -48.74652,8.99324 -48.74652,8.99324 l -0.016,50.16075 c -2.72845,-1.08305 -6.04643,-1.33983 -9.41639,-0.52073 -7.26546,1.76537 -12.02324,7.85499 -10.62663,13.60384 1.39662,5.74886 8.41812,8.97885 15.68278,7.21428 6.85032,-1.66459 11.46892,-7.17428 10.80421,-12.61598 l 0,0 v -37.47919 c 0,0 15.5212,-5.42649 35.6538,-6.78712 V 633.406 l 0,0 c -2.69885,-1.03347 -5.95363,-1.26784 -9.26201,-0.46394 -7.26545,1.76457 -12.02324,7.8542 -10.62663,13.60386 1.39583,5.74886 8.41732,8.97805 15.68278,7.21347 6.34399,-1.5414 10.77542,-6.38078 10.8682,-11.40973 l 0.003,0 c 0,0 0,-49.21047 0,-59.39155 z"
       id="path3-7" />
    <g
       id="g3076"
       transform="matrix(0.93468165,-0.43584921,0.43584921,0.93468165,-581.08121,375.80628)">
      <path
         inkscape:connector-curvature="0"
         id="path3258"
         d="m 448.56953,731.64442 6.88863,-106.83219 -27.56921,10e-4 6.89614,106.83122 13.78458,-6e-4 z"
         style="fill:#ffffff;fill-rule:evenodd" />
      <path
         inkscape:connector-curvature="0"
         id="path3229"
         d="m 465.79648,603.44623 c -10e-4,-13.32006 -10.80379,-24.12224 -24.12434,-24.1218 -13.32099,-2.2e-4 -24.12339,10.80357 -24.12294,24.12414 6.7e-4,5.12416 1.60168,9.87613 4.32725,13.78419 l 39.5931,-0.002 c 2.72618,-3.90747 4.32628,-8.65975 4.32693,-13.78482 z"
         style="fill:#ffffff;fill-rule:evenodd" />
    </g>
    <polygon
       transform="matrix(0.88539118,0,0,0.88539118,54.235446,584.8581)"
       points="66.181,65.87 74.506,88.064 56.323,72.647 43.384,97.927 35.984,67.413 7.625,77.893 23.957,58.167 1.458,55.09 24.579,47.373 3.624,23.341 37.831,31.349 41.523,2.073 53.86,27.035 73.581,7.004 65.877,33.513 96.392,32.28 70.804,50.458 98.542,71.722 "
       id="polygon3"
       style="fill:#ffffff" />
    <g
       id="Your_Icon"
       transform="matrix(0.73476794,0,0,0.73476794,237.24677,930.34285)"
       style="fill:#ffffff">
      <path
         inkscape:connector-curvature="0"
         d="M 93.212,0 H 6.787 C 3.038,0 0,3.038 0,6.787 V 93.212 C 0,96.961 3.038,100 6.787,100 H 93.212 C 96.961,100 100,96.961 100,93.212 V 6.787 C 100,3.038 96.961,0 93.212,0 z m -16.548,36.789 7.025,-7.023 c 0.331,-0.332 0.781,-0.519 1.251,-0.519 h 3.212 c 0.629,-1.16 1.857,-1.949 3.271,-1.949 2.053,0 3.717,1.665 3.717,3.718 0,2.053 -1.664,3.718 -3.717,3.718 -1.413,0 -2.643,-0.788 -3.271,-1.949 h -2.479 l -7.023,7.024 c -0.332,0.332 -0.782,0.519 -1.251,0.519 h -2.973 v 7.934 h 2.238 l 7.025,-7.023 C 84.02,40.907 84.47,40.72 84.94,40.72 h 3.211 c 0.629,-1.16 1.858,-1.949 3.271,-1.949 2.053,0 3.717,1.665 3.717,3.719 0,2.053 -1.664,3.717 -3.717,3.717 -1.413,0 -2.642,-0.788 -3.271,-1.949 h -2.479 l -7.023,7.024 C 78.317,51.614 77.867,51.8 77.398,51.8 h -2.973 v 7.935 h 2.238 l 7.025,-7.023 c 0.331,-0.332 0.781,-0.52 1.251,-0.52 h 3.211 c 0.629,-1.159 1.858,-1.948 3.271,-1.948 2.053,0 3.717,1.664 3.717,3.719 0,2.053 -1.664,3.717 -3.717,3.717 -1.413,0 -2.642,-0.787 -3.271,-1.947 h -2.479 l -7.023,7.023 c -0.332,0.332 -0.782,0.518 -1.251,0.518 h -2.973 v 7.935 h 2.238 l 7.025,-7.024 c 0.331,-0.332 0.781,-0.518 1.251,-0.518 h 3.211 c 0.629,-1.161 1.858,-1.948 3.271,-1.948 2.053,0 3.717,1.664 3.717,3.717 0,2.055 -1.664,3.719 -3.717,3.719 -1.413,0 -2.642,-0.789 -3.271,-1.948 H 85.67 l -7.023,7.023 c -0.332,0.332 -0.782,0.518 -1.251,0.518 h -4.334 v 2.629 l 7.023,7.024 c 0.332,0.331 0.519,0.781 0.519,1.25 v 3.192 c 1.183,0.622 1.991,1.862 1.991,3.291 0,2.054 -1.664,3.718 -3.719,3.718 -2.053,0 -3.717,-1.664 -3.717,-3.718 0,-1.396 0.769,-2.609 1.906,-3.245 V 86.385 L 70.042,79.36 c -0.332,-0.331 -0.52,-0.781 -0.52,-1.25 V 74.428 H 61.63 v 2.948 l 7.024,7.024 c 0.332,0.331 0.519,0.781 0.519,1.25 v 3.213 c 1.159,0.629 1.948,1.858 1.948,3.271 0,2.054 -1.664,3.718 -3.719,3.718 -2.053,0 -3.717,-1.664 -3.717,-3.718 0,-1.412 0.787,-2.642 1.948,-3.271 V 86.385 L 58.609,79.36 c -0.332,-0.331 -0.518,-0.781 -0.518,-1.25 v -3.682 h -7.934 v 2.948 L 57.18,84.4 c 0.332,0.331 0.519,0.781 0.519,1.25 v 3.213 c 1.16,0.629 1.947,1.858 1.947,3.271 0,2.054 -1.664,3.718 -3.717,3.718 -2.054,0 -3.718,-1.664 -3.718,-3.718 0,-1.412 0.788,-2.642 1.949,-3.271 v -2.479 l -7.025,-7.025 c -0.332,-0.331 -0.519,-0.781 -0.519,-1.25 v -3.682 h -7.933 v 2.948 l 7.023,7.024 c 0.332,0.331 0.518,0.781 0.518,1.25 v 3.212 c 1.161,0.63 1.949,1.859 1.949,3.271 0,2.054 -1.665,3.718 -3.718,3.718 -2.053,0 -3.719,-1.664 -3.719,-3.718 0,-1.412 0.789,-2.642 1.949,-3.271 v -2.478 l -7.024,-7.025 c -0.33,-0.331 -0.518,-0.781 -0.518,-1.25 v -3.682 h -7.934 v 2.948 l 7.023,7.024 c 0.331,0.331 0.518,0.781 0.518,1.25 v 3.212 c 1.161,0.63 1.95,1.859 1.95,3.271 0,2.054 -1.666,3.718 -3.719,3.718 -2.053,0 -3.719,-1.664 -3.719,-3.718 0,-1.412 0.789,-2.642 1.949,-3.271 V 86.382 L 24.188,79.357 C 23.857,79.026 23.67,78.576 23.67,78.107 v -3.524 h -1.938 l -7.023,7.024 c -0.332,0.332 -0.782,0.519 -1.251,0.519 h -3.191 c -0.623,1.183 -1.861,1.991 -3.292,1.991 -2.053,0 -3.718,-1.665 -3.718,-3.718 0,-2.054 1.665,-3.719 3.718,-3.719 1.396,0 2.609,0.77 3.245,1.906 h 2.505 l 7.024,-7.023 C 20.081,71.231 20.53,71.044 21,71.044 h 4.564 v -7.892 h -3.832 l -7.023,7.023 c -0.332,0.332 -0.782,0.519 -1.251,0.519 h -3.212 c -0.629,1.16 -1.858,1.949 -3.271,1.949 -2.053,0 -3.718,-1.665 -3.718,-3.719 0,-2.053 1.665,-3.718 3.718,-3.718 1.414,0 2.643,0.788 3.271,1.949 h 2.479 l 7.024,-7.024 C 20.081,59.8 20.53,59.613 21,59.613 h 4.564 v -7.935 h -3.832 l -7.023,7.023 c -0.332,0.332 -0.782,0.519 -1.251,0.519 h -3.212 c -0.629,1.16 -1.857,1.949 -3.271,1.949 -2.053,0 -3.718,-1.666 -3.718,-3.719 0,-2.053 1.665,-3.719 3.718,-3.719 1.413,0 2.643,0.789 3.271,1.95 h 2.479 l 7.024,-7.024 C 20.081,48.326 20.53,48.139 21,48.139 h 4.564 v -7.934 h -3.832 l -7.023,7.023 c -0.332,0.332 -0.782,0.519 -1.251,0.519 h -3.212 c -0.629,1.16 -1.857,1.949 -3.271,1.949 -2.053,0 -3.718,-1.666 -3.718,-3.718 0,-2.053 1.665,-3.719 3.718,-3.719 1.413,0 2.643,0.789 3.271,1.95 h 2.479 l 7.024,-7.025 C 20.081,36.852 20.53,36.666 21,36.666 h 4.564 v -7.934 h -3.832 l -7.023,7.024 c -0.332,0.331 -0.782,0.518 -1.251,0.518 h -3.212 c -0.629,1.161 -1.857,1.95 -3.271,1.95 -2.053,0 -3.718,-1.666 -3.718,-3.719 0,-2.053 1.665,-3.718 3.718,-3.718 1.413,0 2.643,0.789 3.271,1.949 h 2.479 l 7.024,-7.022 C 20.081,25.382 20.53,25.195 21,25.195 h 4.333 V 22.566 L 18.31,15.543 C 17.978,15.211 17.792,14.76 17.792,14.291 V 11.1 c -1.184,-0.622 -1.991,-1.861 -1.991,-3.291 0,-2.053 1.664,-3.718 3.718,-3.718 2.054,0 3.717,1.665 3.717,3.718 0,1.395 -0.77,2.609 -1.905,3.245 v 2.504 l 7.023,7.024 c 0.331,0.332 0.518,0.782 0.518,1.251 v 3.738 h 7.892 V 22.567 L 29.741,15.544 C 29.41,15.212 29.223,14.761 29.223,14.292 v -3.21 c -1.161,-0.629 -1.948,-1.859 -1.948,-3.271 0,-2.053 1.664,-3.718 3.717,-3.718 2.054,0 3.719,1.665 3.719,3.718 0,1.413 -0.789,2.641 -1.948,3.271 v 2.478 l 7.023,7.024 c 0.332,0.332 0.518,0.782 0.518,1.251 v 3.738 h 7.934 v -3.004 l -7.023,-7.023 c -0.331,-0.332 -0.518,-0.783 -0.518,-1.252 v -3.21 c -1.161,-0.629 -1.95,-1.859 -1.95,-3.271 0,-2.053 1.666,-3.718 3.719,-3.718 2.053,0 3.719,1.665 3.719,3.718 0,1.413 -0.789,2.641 -1.949,3.271 v 2.478 l 7.024,7.024 c 0.332,0.332 0.518,0.782 0.518,1.251 v 3.738 h 7.935 V 22.571 L 52.69,15.548 c -0.332,-0.332 -0.519,-0.783 -0.519,-1.252 v -3.21 C 51.01,10.457 50.222,9.227 50.222,7.815 c 0,-2.053 1.665,-3.718 3.718,-3.718 2.054,0 3.719,1.665 3.719,3.718 0,1.413 -0.789,2.641 -1.949,3.271 v 2.478 l 7.023,7.024 c 0.332,0.332 0.519,0.782 0.519,1.251 v 3.738 h 7.935 V 22.573 L 64.164,15.55 c -0.332,-0.332 -0.519,-0.783 -0.519,-1.252 v -3.21 c -1.161,-0.629 -1.949,-1.859 -1.949,-3.271 0,-2.053 1.664,-3.718 3.719,-3.718 2.053,0 3.717,1.665 3.717,3.718 0,1.413 -0.787,2.641 -1.948,3.271 v 2.478 l 7.023,7.024 c 0.332,0.332 0.519,0.782 0.519,1.251 v 3.524 h 1.936 l 7.025,-7.024 c 0.331,-0.332 0.781,-0.519 1.251,-0.519 h 3.191 c 0.621,-1.183 1.86,-1.991 3.291,-1.991 2.053,0 3.717,1.665 3.717,3.719 0,2.053 -1.664,3.717 -3.717,3.717 -1.396,0 -2.61,-0.77 -3.246,-1.906 H 85.67 l -7.023,7.023 c -0.332,0.332 -0.782,0.519 -1.251,0.519 h -2.973 v 7.892 h 2.241 z"
         id="path6"
         style="fill:#ffffff" />
      <rect
         x="33.52"
         y="33.52"
         width="32.959"
         height="32.958"
         id="rect8"
         style="fill:#ffffff" />
    </g>
    <g
       transform="matrix(16.80409,0,0,16.80409,64.644734,928.40446)"
       style="fill:#ffffff;fill-rule:evenodd"
       id="Layer_x0020_1">
      <metadata
         id="CorelCorpID_0Corel-Layer" />
      <path
         inkscape:connector-curvature="0"
         class="fil0"
         d="m 2.7188627,4.3217 c 1.546,-0.185421 2.82363,-0.866104 3.11887,-1.81943 0.030543,-0.098622 0.141796,-0.419549 -0.369081,-0.651155 -0.212286,-0.09624 -1.04268,-0.182074 -1.27521,-0.305422 -0.263541,-0.139794 -0.480818,-0.419876 0.407199,-0.336848 0.5319,0.049733 0.509929,-0.290847 0.347318,-0.411623 -0.491787,-0.36527 -1.29785,-0.586628 -2.35149,-0.539012 -1.82253998,0.0823605 -3.30056998,1.08458 -3.30056998,2.23804 0,1.15345 1.71702998,2.03006 3.42295998,1.82545 z M 2.3785262,0.6189869 c 0.212416,-0.0692096 0.34265,0.275385 0.361234,0.330131 0.082748,0.243813 -0.097234,0.201367 -0.141796,0.314587 -0.07123,0.180979 -0.269651,0.103352 -0.324605,0.141268 -0.22655,0.226388 -0.467025,-0.559863 -0.210819,-0.742608 0.050928,-0.0363272 0.257408,-0.0242959 0.315986,-0.043378 z m -2.70227998,2.08469 c -0.188665,-0.119653 -0.006,-0.439557 0.024364,-0.488755 0.264441,-0.428462 0.535463,0.086645 0.648503,0.069131 0.318824,0.030421 -0.134063,0.716651 -0.43814,0.635567 -0.060444,-0.016118 -0.182705,-0.182946 -0.234727,-0.215943 z m 0.953954,-1.339 c -0.195407,-0.53228 0.299301,-0.348675 0.51292198,-0.335768 0.206969,0.012505 0.212602,0.377029 0.276412,0.411888 0.234584,0.218049 -0.54226598,0.487349 -0.73433298,0.23805 -0.038179,-0.049553 -0.033769,-0.256335 -0.055,-0.31417 z m 0.93600198,1.95349 c 0.063002,0.214339 -0.285231,0.334501 -0.340494,0.351484 -0.090649,0.027855 -0.204184,-0.074628 -0.29483698,-0.046773 -0.201116,-0.033593 -0.266634,-0.178564 -0.080358,-0.261495 0.086383,-0.038459 0.23381598,-0.701867 0.68151098,-0.360329 0.049736,0.037945 0.016804,0.258008 0.034178,0.317113 z m 1.03362,-0.064993 c 0.223392,0.00273 0.235965,0.370904 0.235965,0.428714 0,0.094833 -0.00484,0.136539 -0.00484,0.231376 -0.091187,0.182379 -0.269641,-0.017266 -0.39596,0.142793 -0.278127,0.35241 -0.694978,-0.698824 -0.14833,-0.863362 0.059902,-0.018027 0.251559,0.059722 0.313162,0.06048 z m 1.49301,-1.13319 c -0.204715,0.040231 -0.370732,0.181177 -0.370732,0.314745 0,0.133568 0.166016,0.209262 0.370732,0.16903 0.204715,-0.040228 0.370732,-0.181173 0.370732,-0.314741 0,-0.133568 -0.166016,-0.209262 -0.370732,-0.169034 z"
         id="path10"
         style="fill:#ffffff"
         sodipodi:nodetypes="csscssssccccsccccscsccscccccccscccscsccccscsc" />
    </g>
    <g
       transform="matrix(9.063069,4.2261784,-4.2261784,9.063069,65.265649,546.88632)"
       style="fill-rule:evenodd"
       id="Layer_x0020_1-7">
      <metadata
         id="CorelCorpID_0Corel-Layer-1" />
      <path
         inkscape:connector-curvature="0"
         class="fil0"
         d="m 42.242249,2.7621729 0.861779,-0.046752 c 0.216718,-0.011759 0.389335,0.1247218 0.374638,0.3036175 L 42.300044,15.87161 c -0.01476,0.178881 -0.196762,0.334618 -0.413435,0.346373 l 0,0 c -0.216654,0.01172 -0.380912,-0.125134 -0.37464,-0.30362 L 41.828813,3.1085443 C 41.835113,2.9300829 42.025532,2.77393 42.242249,2.7621729 z M 42.662747,2.4280153 C 42.397349,2.4419565 42.100775,2.5471875 41.936493,2.19384 41.756025,1.8056809 41.715636,1.5732158 41.744741,0.94223075 c 0.05554,-1.20557044 1.346981,-1.36170444 0.810917,-2.83613675 0.575581,-0.031226 1.352031,0.8715126 1.279969,2.07887548 -0.04223,0.70742495 -0.104255,1.55560922 -0.376646,1.96876022 -0.192467,0.2919579 -0.557972,0.2617865 -0.796232,0.2742902 z"
         id="path10-5"
         sodipodi:nodetypes="ssccccccsccscsccc"
         style="fill:#ffffff" />
    </g>
    <path
       inkscape:connector-curvature="0"
       d="m 303.75731,598.41443 h 20.17832 v -6.3721 h -20.17832 v -8.49613 c 0,0 -15.93025,0 -24.42638,0 -8.30391,0 -13.85082,7.68156 -16.95615,13.80621 h -15.96636 c -14.73973,0 -28.67445,13.93472 -28.67445,28.67445 v 15.93025 h 14.86823 v -15.93025 c 0,-6.45175 7.35447,-13.80622 13.80622,-13.80622 h 15.96636 c 3.10533,6.12465 8.65224,13.80622 16.95615,13.80622 8.49613,0 24.42638,0 24.42638,0 v -8.49613 h 20.17832 v -6.3721 h -20.17832 v -12.7442 z"
       id="path3-6"
       style="fill:#ffffff" />
  </g>
</svg>
