<?xml version="1.0"?>
<svg width="476" height="87.99999999999999" xmlns="http://www.w3.org/2000/svg" xmlns:svg="http://www.w3.org/2000/svg">
 <metadata id="metadata37">image/svg+xml</metadata>
 <g>
  <title>Layer 1</title>
  <g id="#00adefff">
   <path fill="#0078d6" id="path5" d="m40,6.91c15.75,-2.41 31.529999,-4.68 47.309998,-6.87c0.010002,13.83 0,27.650001 0.010002,41.48c-15.769997,0.060001 -31.540001,0.299999 -47.32,0.349998c-0.009998,-11.66 -0.009998,-23.309999 0,-34.960009l0,0.00001z"/>
   <path fill="#0078d6" id="path7" d="m0,12.49c11.86,-1.83 23.77,-3.41 35.68,-4.9c0.009998,11.469999 0.009998,22.93 0.02,34.400002c-11.900002,-0.010002 -23.800001,0.169998 -35.700001,0.139999l0,-29.640001l0,0z"/>
   <path fill="#0078d6" id="path9" d="m188.419998,14.42c3.119995,-1.99 7.110001,2.16 5.290009,5.280001c-0.87999,2.289999 -4.100006,3.16 -5.920013,1.48c-2.279999,-1.550001 -1.959976,-5.67 0.630005,-6.76l0,0z"/>
   <path fill="#0078d6" id="path11" d="m270.130005,14.01c2,-0.01 4,-0.01 6,-0.01c0,18.669998 0,37.330002 0,56c-2,0 -3.98999,0 -5.980011,0c0.01001,-2.029999 -0.029999,-4.059998 -0.169983,-6.09c-4.330017,7.780003 -15.910004,9.500004 -22.530014,3.73c-4.729996,-4.07 -6.169998,-10.689999 -5.919998,-16.68c0.050003,-6.079998 2.050003,-12.540001 6.889999,-16.509998c6.290009,-5.18 17.439987,-4.880001 21.750015,2.73c-0.080017,-7.73 -0.01001,-15.450001 -0.040009,-23.17m-12.920013,22.140001c-4.799988,0.759998 -8.049988,5.139999 -8.949997,9.669998c-1.179977,5.459999 -0.970001,11.779999 2.470001,16.420002c3.720001,4.939999 11.930008,5.049999 15.910019,0.379997c2.709991,-2.82 3.47998,-6.860001 3.5,-10.639999c0.029999,-3.989998 0.369995,-8.489998 -2.280029,-11.82c-2.339996,-3.329998 -6.709991,-4.829998 -10.649994,-4.009998z"/>
   <path fill="#0078d6" id="path13" d="m432.265778,16.15c0.529999,-0.07 1.589996,-0.219999 2.110016,-0.29c0.029999,18.040002 0.009979,36.090001 0.009979,54.14c-1.97998,0 -3.949982,0 -5.919983,0c0.039978,-15.02 -0.100006,-30.049999 0.069977,-45.07c-3.769989,2.610001 -7.839996,4.84 -12.269989,6.08c0.029999,-2 0.050018,-4 0.070007,-6c5.80011,-1.969999 11.0802,-5.15 15.929993,-8.860001z"/>
   <path fill="#0078d6" id="path15" d="m456.255768,16.129999c5.200012,-0.869999 10.970001,1.030001 14.059998,5.450001c4.390015,6.200001 4.800018,14.15 5.02002,21.480001c-0.150024,7.739998 -1,16.129997 -5.940002,22.439999c-4.550018,5.970001 -13.870026,7.370003 -19.970001,2.980003c-4.950012,-3.57 -6.890015,-9.800003 -7.77002,-15.570004c-1,-8.57 -0.910004,-17.560001 2.070007,-25.74c1.880005,-5.549999 6.519989,-10.33 12.529999,-11.040001m-0.919983,5.370001c-5.330017,2.16 -6.860016,8.459999 -7.600006,13.580002c-0.779999,7.139999 -0.960022,14.5 0.73999,21.529999c0.850006,3.459999 2.640015,7.130001 6.070007,8.650002c3.889984,1.959999 9.090118,0.269997 11.139984,-3.570004c3.27002,-5.649998 3.350006,-12.43 3.390015,-18.779999c-0.130005,-6.189999 -0.380005,-12.85 -3.800018,-18.23c-2.029999,-3.280001 -6.399994,-4.6 -9.939972,-3.18l0,0z"/>
   <path fill="#0078d6" id="path17" d="m113.949997,16.99c2.25,0.01 4.5,0.01 6.760002,0.040001c3.510002,12.679998 6.970001,25.379999 10.489998,38.069998c0.75,2.66 1.309998,5.380013 1.639999,8.140011c3.660004,-15.570011 8.660004,-30.810009 12.860001,-46.25001c1.949997,0.01 3.900009,0.01 5.850006,0.02c3.090012,10.99 5.980011,22.030001 9.039993,33.030001c1.130005,4.379997 2.589996,8.700001 3.050003,13.23c3.309998,-15.549999 8.029999,-30.790001 11.779999,-46.240011c2.220001,-0.029999 4.440002,-0.029999 6.660004,-0.029999c-4.839996,17.690008 -9.880005,35.330011 -14.779999,53.000002c-2.400009,0 -4.809998,0 -7.210007,0c-3.550003,-12.690002 -7.069992,-25.389992 -10.660004,-38.060001c-0.599991,-2.050001 -0.849991,-4.170002 -1.039993,-6.290001c-0.279999,1.83 -0.539993,3.68 -1.009995,5.469999c-3.62999,12.92 -7.309998,25.820002 -10.840012,38.759993c-2.399979,0.129997 -4.799988,0.139999 -7.199997,0.119995c-5.149986,-17.659996 -10.259987,-35.339996 -15.389999,-53.009987l0,0l0,0.00001z"/>
   <path fill="#0078d6" id="path19" d="m209.059998,38.119999c3.430008,-6.110001 11.430008,-8.919998 17.880005,-6.09c5.130005,2 7.039993,7.940002 7.199997,13c0.279999,8.32 0.050003,16.650002 0.119995,24.970001c-2,0 -4,0 -6,-0.010002c-0.089996,-7.989998 0.210022,-15.999996 -0.139999,-23.989998c-0.159988,-3.959999 -1.839996,-8.720001 -6.149979,-9.73c-6.290024,-1.900002 -12.570023,3.77 -12.769989,9.989998c-0.179993,7.91 -0.009995,15.830002 -0.069992,23.740002c-2,0 -4,0 -6,0c0.009979,-12.669998 0.009979,-25.330002 0,-38c2,0 4.009979,0 6.009979,0c-0.009979,2.040001 -0.019989,4.080002 -0.080002,6.119999l-0.000015,0z"/>
   <path fill="#0078d6" id="path21" d="m299.470001,31.059999c5.350006,-0.469999 11.279999,0.370001 15.299988,4.24c4.540009,4.190002 5.890015,10.700001 5.640015,16.650002c-0.070007,5.349998 -2.050018,10.779999 -5.970001,14.509998c-8.179993,7.440002 -23.369995,5.809998 -28.559998,-4.419998c-4.080017,-8.57 -3.26001,-20.43 4.190002,-26.940002c2.669983,-2.259998 6.049988,-3.289999 9.399994,-4.039999m-1.079987,5.440001c-8.81012,2.709999 -10.30011,14.220001 -7.55011,21.790001c2.18988,6.720001 10.72998,9.699997 16.860107,6.559998c4.149933,-1.91 6.039978,-6.59 6.440002,-10.879997c0.44989,-5.010002 0.049988,-10.690002 -3.490021,-14.600002c-3,-3.379997 -8.080109,-4.110001 -12.259979,-2.869999z"/>
   <path fill="#0078d6" id="path23" d="m390.459991,31.040001c3.75,-0.26 7.570007,0.099998 11.100006,1.48c0.97998,1.860001 0.220001,4.299999 0.449982,6.389999c-4.209991,-2.630001 -10.009979,-4.310001 -14.579987,-1.630001c-3.130005,1.700001 -3.279999,6.73 -0.230011,8.600002c4.369995,2.829998 9.920013,3.57 13.800018,7.209999c4.279999,4.119999 3.23999,12.039997 -1.77002,15.130001c-6.089996,3.879997 -14.109985,3.5 -20.48999,0.540001c0,-2.240013 -0.01001,-4.480003 -0.049988,-6.720001c4.539978,3.459999 10.919983,5.379997 16.349976,2.919998c3.170013,-1.59 3.330017,-6.459999 0.540009,-8.509998c-4.369995,-3.220001 -10.359985,-3.73 -14.23999,-7.75c-3.830017,-3.860001 -3.140015,-10.959999 1.130005,-14.23c2.209991,-2.030003 5.199982,-2.640001 7.98999,-3.43z"/>
   <path fill="#0078d6" id="path25" d="m187.130005,32.009998c2,-0.009998 4,-0.009998 6,-0.009998c0,12.669998 0,25.330002 0,38c-2,0 -4,0 -6,0c0,-12.669998 0.009979,-25.330002 0,-37.990002z"/>
   <path fill="#0078d6" id="path27" d="m322.910004,32c2.079987,0 4.169983,0 6.26001,0c2.47998,9.049999 4.879974,18.119999 7.409973,27.16c0.51001,1.700001 0.700012,3.459999 0.880005,5.219997c2.830017,-10.899998 6.410004,-21.599998 9.619995,-32.389997c1.820007,0.01 3.640015,0.019999 5.470001,0.030001c2.75,10.799999 6.170013,21.439999 8.450012,32.350002c2.350006,-10.850002 5.690002,-21.460003 8.299988,-32.250004c2.01001,-0.099998 4.02002,-0.129999 6.040009,-0.15c-3.809998,12.67 -7.459991,25.379999 -11.290009,38.030001c-2.079987,0 -4.149994,0 -6.220001,0c-2.699982,-10.299999 -6.199982,-20.400002 -8.389984,-30.810001c-2.610016,10.400002 -6.230011,20.52 -9.209991,30.810001c-2.01001,0 -4.01001,0 -6.01001,0c-3.76001,-12.669998 -7.600006,-25.310001 -11.309998,-38l0,0z"/>
   <path fill="#0078d6" id="path29" d="m0,45.740002c11.89,-0.040001 23.780001,0.149998 35.669998,0.129997c0,11.5 0.030003,23.000004 0.010002,34.500004c-11.880001,-1.760002 -23.780001,-3.300003 -35.68,-4.910004l0,-29.719997z"/>
   <path fill="#0078d6" id="path31" d="m39.93,46.200001c15.799999,0 31.589996,0 47.379997,0c0.020004,13.790001 0,27.579998 0,41.380001c-15.75,-2.360001 -31.529999,-4.550003 -47.309998,-6.690002c-0.02,-11.559998 -0.049999,-23.119999 -0.07,-34.689999z"/>
  </g>
 </g>
</svg>