<?xml version="1.0" encoding="UTF-8" standalone="no"?>
<!-- Created with Inkscape (http://www.inkscape.org/) -->

<svg
   xmlns:dc="http://purl.org/dc/elements/1.1/"
   xmlns:cc="http://creativecommons.org/ns#"
   xmlns:rdf="http://www.w3.org/1999/02/22-rdf-syntax-ns#"
   xmlns:svg="http://www.w3.org/2000/svg"
   xmlns="http://www.w3.org/2000/svg"
   xmlns:sodipodi="http://sodipodi.sourceforge.net/DTD/sodipodi-0.dtd"
   xmlns:inkscape="http://www.inkscape.org/namespaces/inkscape"
   width="210mm"
   height="297mm"
   viewBox="0 0 744.09448819 1052.3622047"
   id="svg2"
   version="1.1"
   inkscape:version="0.91 r13725"
   sodipodi:docname="Hoodie-White.svg">
  <defs
     id="defs4" />
  <sodipodi:namedview
     id="base"
     pagecolor="#ffffff"
     bordercolor="#666666"
     borderopacity="1.0"
     inkscape:pageopacity="0.0"
     inkscape:pageshadow="2"
     inkscape:zoom="1.4"
     inkscape:cx="445.58304"
     inkscape:cy="728.97958"
     inkscape:document-units="px"
     inkscape:current-layer="layer1"
     showgrid="false"
     inkscape:window-width="1671"
     inkscape:window-height="1002"
     inkscape:window-x="232"
     inkscape:window-y="78"
     inkscape:window-maximized="0" />
  <metadata
     id="metadata7">
    <rdf:RDF>
      <cc:Work
         rdf:about="">
        <dc:format>image/svg+xml</dc:format>
        <dc:type
           rdf:resource="http://purl.org/dc/dcmitype/StillImage" />
        <dc:title />
      </cc:Work>
    </rdf:RDF>
  </metadata>
  <g
     inkscape:label="Layer 1"
     inkscape:groupmode="layer"
     id="layer1">
    <rect
       style="opacity:1;fill:#000000;fill-opacity:1;stroke:#bbbbbb;stroke-width:1;stroke-linecap:round;stroke-miterlimit:1.41420996;stroke-dasharray:none;stroke-dashoffset:1.20000005;stroke-opacity:1"
       id="rect4684"
       width="750"
       height="1055.7142"
       x="-1.4285715"
       y="-0.4949387" />
    <g
       style="font-style:normal;font-weight:normal;font-size:17.5px;line-height:125%;font-family:sans-serif;text-align:center;letter-spacing:0px;word-spacing:0px;text-anchor:middle;fill:#000000;fill-opacity:1;stroke:none;stroke-width:1px;stroke-linecap:butt;stroke-linejoin:miter;stroke-opacity:1"
       id="text4705"
       transform="translate(5,-4.2857143)">
      <path
         d="m 250.06937,391.59906 -3.60596,5.34058 3.60596,0 0,-5.34058 z m -0.54688,-2.70874 3.65723,0 0,8.04932 1.82007,0 0,2.38403 -1.82007,0 0,2.32422 -3.11035,0 0,-2.32422 -5.65674,0 0,-2.81982 5.10986,-7.61353 z"
         style="font-style:normal;font-variant:normal;font-weight:bold;font-stretch:normal;font-size:17.5px;font-family:sans-serif;-inkscape-font-specification:'sans-serif Bold';fill:#888888;fill-opacity:1"
         id="path4534"
         inkscape:connector-curvature="0" />
      <path
         d="m 260.83597,399.22968 5.61401,0 0,2.41821 -9.27124,0 0,-2.41821 4.65698,-4.11011 q 0.62378,-0.56397 0.92286,-1.1023 0.29907,-0.53833 0.29907,-1.11938 0,-0.89722 -0.60669,-1.44409 -0.59815,-0.54688 -1.5979,-0.54688 -0.76905,0 -1.68335,0.33325 -0.91431,0.32471 -1.95679,0.97412 l 0,-2.80273 q 1.11084,-0.36743 2.19605,-0.55542 1.0852,-0.19653 2.12768,-0.19653 2.29004,0 3.55469,1.0083 1.27319,1.0083 1.27319,2.81128 0,1.04248 -0.53833,1.94824 -0.53833,0.89722 -2.2644,2.40967 l -2.72583,2.39258 z"
         style="font-style:normal;font-variant:normal;font-weight:bold;font-stretch:normal;font-size:17.5px;font-family:sans-serif;-inkscape-font-specification:'sans-serif Bold';fill:#888888;fill-opacity:1"
         id="path4536"
         inkscape:connector-curvature="0" />
      <path
         d="m 269.13309,388.89032 9.61303,0 0,1.85425 -4.97314,10.90332 -3.20435,0 4.70826,-10.33936 -6.1438,0 0,-2.41821 z"
         style="font-style:normal;font-variant:normal;font-weight:bold;font-stretch:normal;font-size:17.5px;font-family:sans-serif;-inkscape-font-specification:'sans-serif Bold';fill:#888888;fill-opacity:1"
         id="path4538"
         inkscape:connector-curvature="0" />
      <path
         d="m 281.73685,388.89032 8.87817,0 0,2.48657 -5.58838,0 0,2.37549 5.25513,0 0,2.48657 -5.25513,0 0,5.40894 -3.28979,0 0,-12.75757 z"
         style="font-style:normal;font-variant:normal;font-weight:bold;font-stretch:normal;font-size:17.5px;font-family:sans-serif;-inkscape-font-specification:'sans-serif Bold';fill:#888888;fill-opacity:1"
         id="path4540"
         inkscape:connector-curvature="0" />
      <path
         d="m 300.22806,399.37494 2.90527,0 0,-8.24585 -2.98218,0.61523 0,-2.23877 2.96509,-0.61523 3.12744,0 0,10.48462 2.90528,0 0,2.27295 -8.9209,0 0,-2.27295 z"
         style="font-style:normal;font-variant:normal;font-weight:bold;font-stretch:normal;font-size:17.5px;font-family:sans-serif;-inkscape-font-specification:'sans-serif Bold';fill:#555555;fill-opacity:1"
         id="path4542"
         inkscape:connector-curvature="0" />
      <path
         d="m 312.39603,399.37494 2.90527,0 0,-8.24585 -2.98218,0.61523 0,-2.23877 2.96509,-0.61523 3.12744,0 0,10.48462 2.90528,0 0,2.27295 -8.9209,0 0,-2.27295 z"
         style="font-style:normal;font-variant:normal;font-weight:bold;font-stretch:normal;font-size:17.5px;font-family:sans-serif;-inkscape-font-specification:'sans-serif Bold';fill:#555555;fill-opacity:1"
         id="path4544"
         inkscape:connector-curvature="0" />
      <path
         d="m 324.11966,388.89032 8.87817,0 0,2.48657 -5.58838,0 0,2.37549 5.25513,0 0,2.48657 -5.25513,0 0,5.40894 -3.28979,0 0,-12.75757 z"
         style="font-style:normal;font-variant:normal;font-weight:bold;font-stretch:normal;font-size:17.5px;font-family:sans-serif;-inkscape-font-specification:'sans-serif Bold';fill:#555555;fill-opacity:1"
         id="path4546"
         inkscape:connector-curvature="0" />
      <path
         d="m 339.37234,391.37689 0,7.78443 1.1792,0 q 2.01661,0 3.07618,-0.99976 1.06811,-0.99976 1.06811,-2.90527 0,-1.89698 -1.05957,-2.88819 -1.05957,-0.99121 -3.08472,-0.99121 l -1.1792,0 z m -3.28979,-2.48657 3.46924,0 q 2.90527,0 4.32373,0.4187 1.427,0.41016 2.44385,1.40137 0.89721,0.86304 1.333,1.99096 0.4358,1.12793 0.4358,2.55494 0,1.44409 -0.4358,2.58056 -0.43579,1.12793 -1.333,1.99097 -1.02539,0.99121 -2.46094,1.40991 -1.43555,0.41016 -4.30664,0.41016 l -3.46924,0 0,-12.75757 z"
         style="font-style:normal;font-variant:normal;font-weight:bold;font-stretch:normal;font-size:17.5px;font-family:sans-serif;-inkscape-font-specification:'sans-serif Bold';fill:#555555;fill-opacity:1"
         id="path4548"
         inkscape:connector-curvature="0" />
      <path
         style="font-style:normal;font-variant:normal;font-weight:bold;font-stretch:normal;font-size:17.5px;font-family:sans-serif;-inkscape-font-specification:'sans-serif Bold';fill:#888888;fill-opacity:1"
         d="m 361.17969,388.66016 c -1.68051,0 -2.97722,0.57389 -3.88867,1.72461 -0.91146,1.14502 -1.36719,2.77734 -1.36719,4.89648 0,2.11345 0.45573,3.74577 1.36719,4.89648 0.91145,1.14502 2.20816,1.71875 3.88867,1.71875 1.6748,0 2.96744,-0.57373 3.8789,-1.71875 0.91146,-1.15071 1.36719,-2.78303 1.36719,-4.89648 0,-2.11914 -0.45573,-3.75146 -1.36719,-4.89648 -0.91146,-1.15072 -2.2041,-1.72461 -3.8789,-1.72461 z m 0,2.24609 c 0.70638,0 1.20768,0.32731 1.5039,0.98242 0.30192,0.64942 0.45313,1.77214 0.45313,3.36719 0,1.61214 -0.15121,2.74935 -0.45313,3.41016 -0.30192,0.6608 -0.80322,0.99023 -1.5039,0.99023 -0.70638,0 -1.21175,-0.32943 -1.51367,-0.99023 -0.30192,-0.66081 -0.45313,-1.79802 -0.45313,-3.41016 0,-1.59505 0.15121,-2.71777 0.45313,-3.36719 0.30192,-0.65511 0.80729,-0.98242 1.51367,-0.98242 z m -1.13086,3.27148 0,2.25 2.25,0 0,-2.25 -2.25,0 z"
         id="path4550"
         inkscape:connector-curvature="0" />
      <path
         d="m 368.86087,388.89032 8.87817,0 0,2.48657 -5.58837,0 0,2.37549 5.25512,0 0,2.48657 -5.25512,0 0,5.40894 -3.2898,0 0,-12.75757 z"
         style="font-style:normal;font-variant:normal;font-weight:bold;font-stretch:normal;font-size:17.5px;font-family:sans-serif;-inkscape-font-specification:'sans-serif Bold';fill:#888888;fill-opacity:1"
         id="path4552"
         inkscape:connector-curvature="0" />
      <path
         d="m 386.54886,399.32367 -5.14404,0 -0.81177,2.32422 -3.30689,0 4.72535,-12.75757 3.92211,0 4.72535,12.75757 -3.30689,0 -0.80322,-2.32422 z m -4.32373,-2.36694 3.49487,0 -1.74316,-5.07569 -1.75171,5.07569 z"
         style="font-style:normal;font-variant:normal;font-weight:bold;font-stretch:normal;font-size:17.5px;font-family:sans-serif;-inkscape-font-specification:'sans-serif Bold';fill:#888888;fill-opacity:1"
         id="path4554"
         inkscape:connector-curvature="0" />
      <path
         d="m 400.08401,399.32367 -5.14404,0 -0.81177,2.32422 -3.30688,0 4.72534,-12.75757 3.92212,0 4.72534,12.75757 -3.30688,0 -0.80323,-2.32422 z m -4.32373,-2.36694 3.49488,0 -1.74317,-5.07569 -1.75171,5.07569 z"
         style="font-style:normal;font-variant:normal;font-weight:bold;font-stretch:normal;font-size:17.5px;font-family:sans-serif;-inkscape-font-specification:'sans-serif Bold';fill:#888888;fill-opacity:1"
         id="path4556"
         inkscape:connector-curvature="0" />
      <path
         d="m 416.79788,391.59906 -3.60595,5.34058 3.60595,0 0,-5.34058 z m -0.54687,-2.70874 3.65722,0 0,8.04932 1.82007,0 0,2.38403 -1.82007,0 0,2.32422 -3.11035,0 0,-2.32422 -5.65674,0 0,-2.81982 5.10987,-7.61353 z"
         style="font-style:normal;font-variant:normal;font-weight:bold;font-stretch:normal;font-size:17.5px;font-family:sans-serif;-inkscape-font-specification:'sans-serif Bold';fill:#555555;fill-opacity:1"
         id="path4558"
         inkscape:connector-curvature="0" />
      <path
         d="m 429.23929,393.82928 q 0.77759,0 1.1792,-0.34179 0.40161,-0.3418 0.40161,-1.0083 0,-0.65796 -0.40161,-0.99976 -0.40161,-0.35034 -1.1792,-0.35034 l -1.82007,0 0,2.70019 1.82007,0 z m 0.11108,5.57984 q 0.99121,0 1.48682,-0.4187 0.50415,-0.4187 0.50415,-1.26465 0,-0.82886 -0.49561,-1.23901 -0.4956,-0.41871 -1.49536,-0.41871 l -1.93115,0 0,3.34107 1.93115,0 z m 3.05908,-4.58862 q 1.05957,0.30761 1.64063,1.13647 0.58105,0.82886 0.58105,2.03369 0,1.8457 -1.24755,2.75147 -1.24756,0.90576 -3.79395,0.90576 l -5.4602,0 0,-12.75757 4.93896,0 q 2.65747,0 3.84521,0.80322 1.19629,0.80323 1.19629,2.57202 0,0.9314 -0.43579,1.58936 -0.43579,0.64941 -1.26465,0.96558 z"
         style="font-style:normal;font-variant:normal;font-weight:bold;font-stretch:normal;font-size:17.5px;font-family:sans-serif;-inkscape-font-specification:'sans-serif Bold';fill:#555555;fill-opacity:1"
         id="path4560"
         inkscape:connector-curvature="0" />
      <path
         style="font-style:normal;font-variant:normal;font-weight:bold;font-stretch:normal;font-size:17.5px;font-family:sans-serif;-inkscape-font-specification:'sans-serif Bold';fill:#555555;fill-opacity:1"
         d="m 441.94531,388.66016 c -1.6805,0 -2.97526,0.57389 -3.88672,1.72461 -0.91146,1.14502 -1.36718,2.77734 -1.36718,4.89648 0,2.11345 0.45572,3.74577 1.36718,4.89648 0.91146,1.14502 2.20622,1.71875 3.88672,1.71875 1.6748,0 2.96745,-0.57373 3.87891,-1.71875 0.91146,-1.15071 1.36719,-2.78303 1.36719,-4.89648 0,-2.11914 -0.45573,-3.75146 -1.36719,-4.89648 -0.91146,-1.15072 -2.20411,-1.72461 -3.87891,-1.72461 z m 0,2.24609 c 0.70638,0 1.20769,0.32731 1.50391,0.98242 0.30192,0.64942 0.45312,1.77214 0.45312,3.36719 0,1.61214 -0.1512,2.74935 -0.45312,3.41016 -0.30192,0.6608 -0.80323,0.99023 -1.50391,0.99023 -0.70638,0 -1.2098,-0.32943 -1.51172,-0.99023 -0.30192,-0.66081 -0.45312,-1.79802 -0.45312,-3.41016 0,-1.59505 0.1512,-2.71777 0.45312,-3.36719 0.30192,-0.65511 0.80534,-0.98242 1.51172,-0.98242 z m -1.1289,2.99414 0,2.25 2.25,0 0,-2.25 -2.25,0 z"
         id="path4562"
         inkscape:connector-curvature="0" />
      <path
         d="m 454.11356,395.93988 q -0.92286,0 -1.41846,0.50415 -0.49561,0.50415 -0.49561,1.44409 0,0.93994 0.49561,1.44409 0.4956,0.49561 1.41846,0.49561 0.9143,0 1.40136,-0.49561 0.48706,-0.50415 0.48706,-1.44409 0,-0.94848 -0.48706,-1.44409 -0.48706,-0.50415 -1.40136,-0.50415 z m -2.40113,-1.0852 q -1.16211,-0.35035 -1.75171,-1.07666 -0.5896,-0.72632 -0.5896,-1.81153 0,-1.61499 1.20484,-2.46094 1.20483,-0.84594 3.5376,-0.84594 2.31567,0 3.5205,0.84594 1.20484,0.83741 1.20484,2.46094 0,1.08521 -0.59815,1.81153 -0.5896,0.72631 -1.75171,1.07666 1.29883,0.35888 1.95679,1.17065 0.66651,0.80322 0.66651,2.03369 0,1.89697 -1.26465,2.87109 -1.25611,0.96558 -3.73413,0.96558 -2.48658,0 -3.75977,-0.96558 -1.26465,-0.97412 -1.26465,-2.87109 0,-1.23047 0.65796,-2.03369 0.6665,-0.81177 1.96533,-1.17065 z m 0.76905,-2.55494 q 0,0.7605 0.4187,1.17066 0.42724,0.41015 1.21338,0.41015 0.76904,0 1.18774,-0.41015 0.4187,-0.41016 0.4187,-1.17066 0,-0.76049 -0.4187,-1.16211 -0.4187,-0.41015 -1.18774,-0.41015 -0.78614,0 -1.21338,0.41015 -0.4187,0.41016 -0.4187,1.16211 z"
         style="font-style:normal;font-variant:normal;font-weight:bold;font-stretch:normal;font-size:17.5px;font-family:sans-serif;-inkscape-font-specification:'sans-serif Bold';fill:#555555;fill-opacity:1"
         id="path4564"
         inkscape:connector-curvature="0" />
      <path
         style="font-style:normal;font-variant:normal;font-weight:bold;font-stretch:normal;font-size:17.5px;font-family:sans-serif;-inkscape-font-specification:'sans-serif Bold';fill:#888888;fill-opacity:1"
         d="m 472.36523,388.66016 c -1.6805,0 -2.97525,0.57389 -3.88671,1.72461 -0.91146,1.14502 -1.36719,2.77734 -1.36719,4.89648 0,2.11345 0.45573,3.74577 1.36719,4.89648 0.91146,1.14502 2.20621,1.71875 3.88671,1.71875 1.67481,0 2.96746,-0.57373 3.87891,-1.71875 0.91146,-1.15071 1.36719,-2.78303 1.36719,-4.89648 0,-2.11914 -0.45573,-3.75146 -1.36719,-4.89648 -0.91145,-1.15072 -2.2041,-1.72461 -3.87891,-1.72461 z m 0,2.24609 c 0.70638,0 1.20768,0.32731 1.50391,0.98242 0.30192,0.64942 0.45313,1.77214 0.45313,3.36719 0,1.61214 -0.15121,2.74935 -0.45313,3.41016 -0.30193,0.6608 -0.80323,0.99023 -1.50391,0.99023 -0.70638,0 -1.20979,-0.32943 -1.51171,-0.99023 -0.30192,-0.66081 -0.45313,-1.79802 -0.45313,-3.41016 0,-1.59505 0.15121,-2.71777 0.45313,-3.36719 0.30192,-0.65511 0.80533,-0.98242 1.51171,-0.98242 z m -1.1289,2.9707 0,2.25 2.25,0 0,-2.25 -2.25,0 z"
         id="path4566"
         inkscape:connector-curvature="0" />
      <path
         d="m 480.49173,399.37494 2.90527,0 0,-8.24585 -2.98217,0.61523 0,-2.23877 2.96508,-0.61523 3.12744,0 0,10.48462 2.90528,0 0,2.27295 -8.9209,0 0,-2.27295 z"
         style="font-style:normal;font-variant:normal;font-weight:bold;font-stretch:normal;font-size:17.5px;font-family:sans-serif;-inkscape-font-specification:'sans-serif Bold';fill:#888888;fill-opacity:1"
         id="path4568"
         inkscape:connector-curvature="0" />
      <path
         d="m 495.65042,399.22968 5.61401,0 0,2.41821 -9.27124,0 0,-2.41821 4.65699,-4.11011 q 0.62378,-0.56397 0.92285,-1.1023 0.29907,-0.53833 0.29907,-1.11938 0,-0.89722 -0.60669,-1.44409 -0.59814,-0.54688 -1.5979,-0.54688 -0.76904,0 -1.68335,0.33325 -0.91431,0.32471 -1.95679,0.97412 l 0,-2.80273 q 1.11084,-0.36743 2.19605,-0.55542 1.0852,-0.19653 2.12768,-0.19653 2.29004,0 3.55469,1.0083 1.2732,1.0083 1.2732,2.81128 0,1.04248 -0.53833,1.94824 -0.53833,0.89722 -2.26441,2.40967 l -2.72583,2.39258 z"
         style="font-style:normal;font-variant:normal;font-weight:bold;font-stretch:normal;font-size:17.5px;font-family:sans-serif;-inkscape-font-specification:'sans-serif Bold';fill:#888888;fill-opacity:1"
         id="path4570"
         inkscape:connector-curvature="0" />
      <path
         d="m 510.92874,394.76923 q 1.29028,0.33325 1.95679,1.16211 0.67505,0.82031 0.67505,2.0935 0,1.89697 -1.45264,2.88818 -1.45264,0.98267 -4.23828,0.98267 -0.98267,0 -1.97388,-0.16235 -0.98266,-0.15381 -1.94824,-0.46997 l 0,-2.53785 q 0.92285,0.46143 1.82861,0.70069 0.91431,0.23071 1.79444,0.23071 1.30737,0 1.99951,-0.45288 0.70068,-0.45288 0.70068,-1.29883 0,-0.87158 -0.71777,-1.31592 -0.70923,-0.45288 -2.10205,-0.45288 l -1.31592,0 0,-2.11914 1.38428,0 q 1.23901,0 1.8457,-0.38452 0.60669,-0.39306 0.60669,-1.18774 0,-0.73487 -0.5896,-1.13648 -0.5896,-0.40161 -1.66626,-0.40161 -0.79468,0 -1.60644,0.17944 -0.81177,0.17945 -1.61499,0.52979 l 0,-2.40967 q 0.97412,-0.27344 1.93115,-0.41015 0.95703,-0.13672 1.87988,-0.13672 2.48657,0 3.71704,0.82031 1.23902,0.81177 1.23902,2.45239 0,1.11939 -0.5896,1.83716 -0.5896,0.70923 -1.74317,0.99976 z"
         style="font-style:normal;font-variant:normal;font-weight:bold;font-stretch:normal;font-size:17.5px;font-family:sans-serif;-inkscape-font-specification:'sans-serif Bold';fill:#888888;fill-opacity:1"
         id="path4572"
         inkscape:connector-curvature="0" />
      <path
         d="m 244.293,410.76532 8.87817,0 0,2.48657 -5.58838,0 0,2.37549 5.25513,0 0,2.48657 -5.25513,0 0,5.40894 -3.28979,0 0,-12.75757 z"
         style="font-style:normal;font-variant:normal;font-weight:bold;font-stretch:normal;font-size:17.5px;font-family:sans-serif;-inkscape-font-specification:'sans-serif Bold';fill:#555555;fill-opacity:1"
         id="path4574"
         inkscape:connector-curvature="0" />
      <path
         style="font-style:normal;font-variant:normal;font-weight:bold;font-stretch:normal;font-size:17.5px;font-family:sans-serif;-inkscape-font-specification:'sans-serif Bold';fill:#555555;fill-opacity:1"
         d="m 260.74219,410.53516 c -1.6805,0 -2.97721,0.57389 -3.88867,1.72461 -0.91146,1.14502 -1.36719,2.77734 -1.36719,4.89648 0,2.11345 0.45573,3.74577 1.36719,4.89648 0.91146,1.14502 2.20817,1.71875 3.88867,1.71875 1.6748,0 2.96744,-0.57373 3.8789,-1.71875 0.91146,-1.15071 1.36719,-2.78303 1.36719,-4.89648 0,-2.11914 -0.45573,-3.75146 -1.36719,-4.89648 -0.91146,-1.15072 -2.2041,-1.72461 -3.8789,-1.72461 z m 0,2.24609 c 0.70638,0 1.20768,0.32731 1.5039,0.98242 0.30192,0.64942 0.45313,1.77214 0.45313,3.36719 0,1.61214 -0.15121,2.74935 -0.45313,3.41016 -0.30192,0.6608 -0.80322,0.99023 -1.5039,0.99023 -0.70638,0 -1.2098,-0.32943 -1.51172,-0.99023 -0.30192,-0.66081 -0.45313,-1.79802 -0.45313,-3.41016 0,-1.59505 0.15121,-2.71777 0.45313,-3.36719 0.30192,-0.65511 0.80534,-0.98242 1.51172,-0.98242 z m -1.12891,3.38281 0,2.25 2.25,0 0,-2.25 -2.25,0 z"
         id="path4576"
         inkscape:connector-curvature="0" />
      <path
         d="m 268.86819,421.24994 2.90528,0 0,-8.24585 -2.98218,0.61523 0,-2.23877 2.96509,-0.61523 3.12744,0 0,10.48462 2.90527,0 0,2.27295 -8.9209,0 0,-2.27295 z"
         style="font-style:normal;font-variant:normal;font-weight:bold;font-stretch:normal;font-size:17.5px;font-family:sans-serif;-inkscape-font-specification:'sans-serif Bold';fill:#555555;fill-opacity:1"
         id="path4578"
         inkscape:connector-curvature="0" />
      <path
         d="m 290.70901,422.8222 q -0.90576,0.46998 -1.88842,0.70923 -0.98267,0.23926 -2.05078,0.23926 -3.18726,0 -5.05005,-1.77734 -1.8628,-1.78589 -1.8628,-4.83643 0,-3.05908 1.8628,-4.83642 1.86279,-1.78589 5.05005,-1.78589 1.06811,0 2.05078,0.23925 0.98266,0.23926 1.88842,0.70923 l 0,2.64038 q -0.9143,-0.62378 -1.80297,-0.9143 -0.88868,-0.29053 -1.87134,-0.29053 -1.76026,0 -2.76856,1.12793 -1.0083,1.12793 -1.0083,3.11035 0,1.97388 1.0083,3.10181 1.0083,1.12793 2.76856,1.12793 0.98266,0 1.87134,-0.29053 0.88867,-0.29053 1.80297,-0.91431 l 0,2.64038 z"
         style="font-style:normal;font-variant:normal;font-weight:bold;font-stretch:normal;font-size:17.5px;font-family:sans-serif;-inkscape-font-specification:'sans-serif Bold';fill:#555555;fill-opacity:1"
         id="path4580"
         inkscape:connector-curvature="0" />
      <path
         d="m 302.81717,413.25189 0,7.78443 1.1792,0 q 2.0166,0 3.07617,-0.99976 1.06812,-0.99976 1.06812,-2.90527 0,-1.89698 -1.05957,-2.88819 -1.05958,-0.99121 -3.08472,-0.99121 l -1.1792,0 z m -3.2898,-2.48657 3.46924,0 q 2.90528,0 4.32373,0.4187 1.427,0.41016 2.44385,1.40137 0.89722,0.86304 1.33301,1.99096 0.43579,1.12793 0.43579,2.55494 0,1.44409 -0.43579,2.58056 -0.43579,1.12793 -1.33301,1.99097 -1.02539,0.99121 -2.46094,1.40991 -1.43554,0.41016 -4.30664,0.41016 l -3.46924,0 0,-12.75757 z"
         style="font-style:normal;font-variant:normal;font-weight:bold;font-stretch:normal;font-size:17.5px;font-family:sans-serif;-inkscape-font-specification:'sans-serif Bold';fill:#888888;fill-opacity:1"
         id="path4582"
         inkscape:connector-curvature="0" />
      <path
         d="m 317.34354,413.25189 0,7.78443 1.1792,0 q 2.0166,0 3.07617,-0.99976 1.06811,-0.99976 1.06811,-2.90527 0,-1.89698 -1.05957,-2.88819 -1.05957,-0.99121 -3.08471,-0.99121 l -1.1792,0 z m -3.2898,-2.48657 3.46924,0 q 2.90527,0 4.32373,0.4187 1.427,0.41016 2.44385,1.40137 0.89721,0.86304 1.33301,1.99096 0.43579,1.12793 0.43579,2.55494 0,1.44409 -0.43579,2.58056 -0.4358,1.12793 -1.33301,1.99097 -1.02539,0.99121 -2.46094,1.40991 -1.43555,0.41016 -4.30664,0.41016 l -3.46924,0 0,-12.75757 z"
         style="font-style:normal;font-variant:normal;font-weight:bold;font-stretch:normal;font-size:17.5px;font-family:sans-serif;-inkscape-font-specification:'sans-serif Bold';fill:#888888;fill-opacity:1"
         id="path4584"
         inkscape:connector-curvature="0" />
      <path
         d="m 328.58011,410.76532 8.87817,0 0,2.48657 -5.58838,0 0,2.37549 5.25513,0 0,2.48657 -5.25513,0 0,5.40894 -3.28979,0 0,-12.75757 z"
         style="font-style:normal;font-variant:normal;font-weight:bold;font-stretch:normal;font-size:17.5px;font-family:sans-serif;-inkscape-font-specification:'sans-serif Bold';fill:#888888;fill-opacity:1"
         id="path4586"
         inkscape:connector-curvature="0" />
      <path
         d="m 346.2681,421.19867 -5.14405,0 -0.81176,2.32422 -3.30689,0 4.72534,-12.75757 3.92212,0 4.72534,12.75757 -3.30688,0 -0.80322,-2.32422 z m -4.32373,-2.36694 3.49487,0 -1.74316,-5.07569 -1.75171,5.07569 z"
         style="font-style:normal;font-variant:normal;font-weight:bold;font-stretch:normal;font-size:17.5px;font-family:sans-serif;-inkscape-font-specification:'sans-serif Bold';fill:#888888;fill-opacity:1"
         id="path4588"
         inkscape:connector-curvature="0" />
      <path
         d="m 358.58987,421.24994 2.90528,0 0,-8.24585 -2.98218,0.61523 0,-2.23877 2.96509,-0.61523 3.12744,0 0,10.48462 2.90527,0 0,2.27295 -8.9209,0 0,-2.27295 z"
         style="font-style:normal;font-variant:normal;font-weight:bold;font-stretch:normal;font-size:17.5px;font-family:sans-serif;-inkscape-font-specification:'sans-serif Bold';fill:#555555;fill-opacity:1"
         id="path4590"
         inkscape:connector-curvature="0" />
      <path
         d="m 378.05521,421.19867 -5.14405,0 -0.81176,2.32422 -3.30689,0 4.72534,-12.75757 3.92212,0 4.72534,12.75757 -3.30688,0 -0.80322,-2.32422 z m -4.32373,-2.36694 3.49487,0 -1.74317,-5.07569 -1.7517,5.07569 z"
         style="font-style:normal;font-variant:normal;font-weight:bold;font-stretch:normal;font-size:17.5px;font-family:sans-serif;-inkscape-font-specification:'sans-serif Bold';fill:#555555;fill-opacity:1"
         id="path4592"
         inkscape:connector-curvature="0" />
      <path
         d="m 390.39407,416.64423 q 1.29029,0.33325 1.95679,1.16211 0.67505,0.82031 0.67505,2.0935 0,1.89697 -1.45264,2.88818 -1.45263,0.98267 -4.23828,0.98267 -0.98266,0 -1.97388,-0.16235 -0.98266,-0.15381 -1.94824,-0.46997 l 0,-2.53785 q 0.92285,0.46143 1.82862,0.70069 0.9143,0.23071 1.79443,0.23071 1.30737,0 1.99951,-0.45288 0.70068,-0.45288 0.70068,-1.29883 0,-0.87158 -0.71777,-1.31592 -0.70923,-0.45288 -2.10205,-0.45288 l -1.31592,0 0,-2.11914 1.38428,0 q 1.23901,0 1.8457,-0.38452 0.60669,-0.39306 0.60669,-1.18774 0,-0.73487 -0.5896,-1.13648 -0.5896,-0.40161 -1.66626,-0.40161 -0.79467,0 -1.60644,0.17944 -0.81177,0.17945 -1.61499,0.52979 l 0,-2.40967 q 0.97412,-0.27344 1.93115,-0.41015 0.95703,-0.13672 1.87988,-0.13672 2.48657,0 3.71704,0.82031 1.23902,0.81177 1.23902,2.45239 0,1.11939 -0.5896,1.83716 -0.5896,0.70923 -1.74317,0.99976 z"
         style="font-style:normal;font-variant:normal;font-weight:bold;font-stretch:normal;font-size:17.5px;font-family:sans-serif;-inkscape-font-specification:'sans-serif Bold';fill:#555555;fill-opacity:1"
         id="path4594"
         inkscape:connector-curvature="0" />
      <path
         d="m 396.01663,410.76532 8.87818,0 0,2.48657 -5.58838,0 0,2.37549 5.25512,0 0,2.48657 -5.25512,0 0,2.92237 5.77636,0 0,2.48657 -9.06616,0 0,-12.75757 z"
         style="font-style:normal;font-variant:normal;font-weight:bold;font-stretch:normal;font-size:17.5px;font-family:sans-serif;-inkscape-font-specification:'sans-serif Bold';fill:#555555;fill-opacity:1"
         id="path4596"
         inkscape:connector-curvature="0" />
      <path
         d="m 420.60892,416.64423 q 1.29028,0.33325 1.95678,1.16211 0.67505,0.82031 0.67505,2.0935 0,1.89697 -1.45263,2.88818 -1.45264,0.98267 -4.23828,0.98267 -0.98267,0 -1.97388,-0.16235 -0.98267,-0.15381 -1.94824,-0.46997 l 0,-2.53785 q 0.92285,0.46143 1.82861,0.70069 0.91431,0.23071 1.79443,0.23071 1.30738,0 1.99951,-0.45288 0.70069,-0.45288 0.70069,-1.29883 0,-0.87158 -0.71778,-1.31592 -0.70922,-0.45288 -2.10205,-0.45288 l -1.31591,0 0,-2.11914 1.38427,0 q 1.23902,0 1.84571,-0.38452 0.60669,-0.39306 0.60669,-1.18774 0,-0.73487 -0.5896,-1.13648 -0.5896,-0.40161 -1.66626,-0.40161 -0.79468,0 -1.60645,0.17944 -0.81177,0.17945 -1.61499,0.52979 l 0,-2.40967 q 0.97412,-0.27344 1.93115,-0.41015 0.95703,-0.13672 1.87989,-0.13672 2.48657,0 3.71704,0.82031 1.23901,0.81177 1.23901,2.45239 0,1.11939 -0.5896,1.83716 -0.5896,0.70923 -1.74316,0.99976 z"
         style="font-style:normal;font-variant:normal;font-weight:bold;font-stretch:normal;font-size:17.5px;font-family:sans-serif;-inkscape-font-specification:'sans-serif Bold';fill:#88888f;fill-opacity:0.94117647"
         id="path4598"
         inkscape:connector-curvature="0" />
      <path
         d="m 430.95682,417.22528 q -0.86304,0 -1.29883,0.56397 -0.42725,0.55542 -0.42725,1.6748 0,1.11939 0.42725,1.68335 0.43579,0.55542 1.29883,0.55542 0.87158,0 1.29883,-0.55542 0.43579,-0.56396 0.43579,-1.68335 0,-1.11938 -0.43579,-1.6748 -0.42725,-0.56397 -1.29883,-0.56397 z m 4.06738,-6.12671 0,2.3584 q -0.81177,-0.38452 -1.52954,-0.56396 -0.71777,-0.18799 -1.40137,-0.18799 -1.46972,0 -2.29004,0.82031 -0.82031,0.81177 -0.95703,2.41821 0.56397,-0.4187 1.22193,-0.62378 0.65795,-0.21362 1.43554,-0.21362 1.95679,0 3.15308,1.14502 1.20483,1.14502 1.20483,2.99927 0,2.05078 -1.34155,3.28979 -1.34155,1.23047 -3.59741,1.23047 -2.48657,0 -3.85376,-1.6748 -1.35864,-1.68335 -1.35864,-4.76807 0,-3.16162 1.58935,-4.9646 1.5979,-1.81152 4.375,-1.81152 0.88013,0 1.70899,0.13672 0.82885,0.13671 1.64062,0.41015 z"
         style="font-style:normal;font-variant:normal;font-weight:bold;font-stretch:normal;font-size:17.5px;font-family:sans-serif;-inkscape-font-specification:'sans-serif Bold';fill:#88888f;fill-opacity:0.94117647"
         id="path4600"
         inkscape:connector-curvature="0" />
      <path
         d="m 442.88553,417.81488 q -0.92285,0 -1.41846,0.50415 -0.4956,0.50415 -0.4956,1.44409 0,0.93994 0.4956,1.44409 0.49561,0.49561 1.41846,0.49561 0.91431,0 1.40137,-0.49561 0.48706,-0.50415 0.48706,-1.44409 0,-0.94848 -0.48706,-1.44409 -0.48706,-0.50415 -1.40137,-0.50415 z m -2.40112,-1.0852 q -1.16211,-0.35035 -1.75171,-1.07666 -0.5896,-0.72632 -0.5896,-1.81153 0,-1.61499 1.20483,-2.46094 1.20483,-0.84594 3.5376,-0.84594 2.31567,0 3.52051,0.84594 1.20483,0.83741 1.20483,2.46094 0,1.08521 -0.59814,1.81153 -0.5896,0.72631 -1.75171,1.07666 1.29882,0.35888 1.95678,1.17065 0.66651,0.80322 0.66651,2.03369 0,1.89697 -1.26465,2.87109 -1.2561,0.96558 -3.73413,0.96558 -2.48657,0 -3.75977,-0.96558 -1.26465,-0.97412 -1.26465,-2.87109 0,-1.23047 0.65796,-2.03369 0.66651,-0.81177 1.96534,-1.17065 z m 0.76904,-2.55494 q 0,0.7605 0.4187,1.17066 0.42725,0.41015 1.21338,0.41015 0.76904,0 1.18774,-0.41015 0.4187,-0.41016 0.4187,-1.17066 0,-0.76049 -0.4187,-1.16211 -0.4187,-0.41015 -1.18774,-0.41015 -0.78613,0 -1.21338,0.41015 -0.4187,0.41016 -0.4187,1.16211 z"
         style="font-style:normal;font-variant:normal;font-weight:bold;font-stretch:normal;font-size:17.5px;font-family:sans-serif;-inkscape-font-specification:'sans-serif Bold';fill:#88888f;fill-opacity:0.94117647"
         id="path4602"
         inkscape:connector-curvature="0" />
      <path
         d="m 450.13162,410.76532 9.61304,0 0,1.85425 -4.97315,10.90332 -3.20434,0 4.70825,-10.33936 -6.1438,0 0,-2.41821 z"
         style="font-style:normal;font-variant:normal;font-weight:bold;font-stretch:normal;font-size:17.5px;font-family:sans-serif;-inkscape-font-specification:'sans-serif Bold';fill:#88888f;fill-opacity:0.94117647"
         id="path4604"
         inkscape:connector-curvature="0" />
      <path
         d="m 468.96463,423.24091 0,-2.3584 q 0.78613,0.36743 1.50391,0.55542 0.71777,0.17944 1.41845,0.17944 1.46973,0 2.29004,-0.81177 0.82031,-0.82031 0.96558,-2.42675 -0.58106,0.42724 -1.23902,0.64086 -0.65795,0.21363 -1.427,0.21363 -1.95678,0 -3.16162,-1.13648 -1.19629,-1.14502 -1.19629,-3.00781 0,-2.05933 1.33301,-3.29834 1.34155,-1.23901 3.58887,-1.23901 2.49512,0 3.8623,1.68335 1.36719,1.68335 1.36719,4.75952 0,3.16162 -1.5979,4.97314 -1.5979,1.80298 -4.38355,1.80298 -0.89721,0 -1.71752,-0.13672 -0.82032,-0.12817 -1.60645,-0.39306 z m 4.05884,-6.1438 q 0.86304,0 1.29883,-0.55542 0.43579,-0.56397 0.43579,-1.68335 0,-1.11084 -0.43579,-1.67481 -0.43579,-0.56396 -1.29883,-0.56396 -0.86304,0 -1.29883,0.56396 -0.43579,0.56397 -0.43579,1.67481 0,1.11938 0.43579,1.68335 0.43579,0.55542 1.29883,0.55542 z"
         style="font-style:normal;font-variant:normal;font-weight:bold;font-stretch:normal;font-size:17.5px;font-family:sans-serif;-inkscape-font-specification:'sans-serif Bold';fill:#555555;fill-opacity:1"
         id="path4606"
         inkscape:connector-curvature="0" />
      <path
         d="m 485.82376,413.47406 -3.60596,5.34058 3.60596,0 0,-5.34058 z m -0.54687,-2.70874 3.65722,0 0,8.04932 1.82007,0 0,2.38403 -1.82007,0 0,2.32422 -3.11035,0 0,-2.32422 -5.65674,0 0,-2.81982 5.10987,-7.61353 z"
         style="font-style:normal;font-variant:normal;font-weight:bold;font-stretch:normal;font-size:17.5px;font-family:sans-serif;-inkscape-font-specification:'sans-serif Bold';fill:#555555;fill-opacity:1"
         id="path4608"
         inkscape:connector-curvature="0" />
      <path
         d="m 493.30057,423.24091 0,-2.3584 q 0.78613,0.36743 1.5039,0.55542 0.71778,0.17944 1.41846,0.17944 1.46973,0 2.29004,-0.81177 0.82031,-0.82031 0.96558,-2.42675 -0.58106,0.42724 -1.23902,0.64086 -0.65796,0.21363 -1.427,0.21363 -1.95679,0 -3.16162,-1.13648 -1.19629,-1.14502 -1.19629,-3.00781 0,-2.05933 1.33301,-3.29834 1.34155,-1.23901 3.58887,-1.23901 2.49511,0 3.8623,1.68335 1.36719,1.68335 1.36719,4.75952 0,3.16162 -1.5979,4.97314 -1.5979,1.80298 -4.38355,1.80298 -0.89721,0 -1.71753,-0.13672 -0.82031,-0.12817 -1.60644,-0.39306 z m 4.05884,-6.1438 q 0.86303,0 1.29882,-0.55542 0.43579,-0.56397 0.43579,-1.68335 0,-1.11084 -0.43579,-1.67481 -0.43579,-0.56396 -1.29882,-0.56396 -0.86304,0 -1.29883,0.56396 -0.43579,0.56397 -0.43579,1.67481 0,1.11938 0.43579,1.68335 0.43579,0.55542 1.29883,0.55542 z"
         style="font-style:normal;font-variant:normal;font-weight:bold;font-stretch:normal;font-size:17.5px;font-family:sans-serif;-inkscape-font-specification:'sans-serif Bold';fill:#555555;fill-opacity:1"
         id="path4610"
         inkscape:connector-curvature="0" />
      <path
         d="m 510.1597,413.47406 -3.60596,5.34058 3.60596,0 0,-5.34058 z m -0.54688,-2.70874 3.65723,0 0,8.04932 1.82007,0 0,2.38403 -1.82007,0 0,2.32422 -3.11035,0 0,-2.32422 -5.65674,0 0,-2.81982 5.10986,-7.61353 z"
         style="font-style:normal;font-variant:normal;font-weight:bold;font-stretch:normal;font-size:17.5px;font-family:sans-serif;-inkscape-font-specification:'sans-serif Bold';fill:#555555;fill-opacity:1"
         id="path4612"
         inkscape:connector-curvature="0" />
    </g>
    <rect
       style="opacity:0.1;fill:none;stroke:none"
       id="rect3871"
       y="114.45982"
       x="249.24048"
       ry="0.28993705"
       height="251.51906"
       width="251.51906" />
    <g
       id="g5932">
      <path
         sodipodi:nodetypes="ccccccccccccccccccccccccccccc"
         inkscape:connector-curvature="0"
         d="m 372.79769,143.03821 c -3.54658,-0.0817 -7.04718,0.81479 -10.11797,2.59107 l -65.25946,37.66414 c -5.9787,3.44928 -9.66295,9.82626 -9.6648,16.72861 l 0,75.3677 c 0.009,6.89526 3.69222,13.26306 9.6648,16.70879 l 65.25946,37.69365 c 5.9775,3.45128 13.34221,3.45128 19.31971,0 l 36.74664,-21.22154 28.52266,-16.47211 c 5.96878,-3.44824 9.64805,-9.81556 9.65494,-16.70879 l 0,-75.3677 c 1.8e-4,-6.90031 -3.68003,-13.27683 -9.65494,-16.72861 l -65.2693,-37.66414 c -2.80175,-1.62092 -5.96586,-2.51188 -9.20174,-2.59107 z m -0.2069,42.59995 c 1.78019,0.0411 3.5215,0.52894 5.06394,1.41868 l 35.90058,20.71873 c 3.28651,1.89866 5.31067,5.40621 5.31021,9.20174 l 0,41.45709 c -0.007,3.78849 -2.02979,7.2869 -5.31021,9.18203 l -35.90058,20.73836 c -3.28626,1.89614 -7.3342,1.89614 -10.62046,0 l -35.90059,-20.73836 c -3.28042,-1.89513 -5.30364,-5.39354 -5.31021,-9.18203 l 0,-41.45709 c -4.6e-4,-3.79553 2.0237,-7.30308 5.31021,-9.20174 l 35.90059,-20.71873 c 1.68714,-0.97323 3.60933,-1.464 5.55652,-1.41868 z"
         id="path5280-0-4-2"
         style="color:#000000;font-style:normal;font-variant:normal;font-weight:normal;font-stretch:normal;font-size:medium;line-height:normal;font-family:Sans;-inkscape-font-specification:Sans;text-indent:0;text-align:start;text-decoration:none;text-decoration-line:none;letter-spacing:normal;word-spacing:normal;text-transform:none;direction:ltr;block-progression:tb;writing-mode:lr-tb;baseline-shift:baseline;text-anchor:start;display:inline;overflow:visible;visibility:visible;fill:#b4b4b4;fill-opacity:1;fill-rule:nonzero;stroke:none;stroke-width:116.01034546;marker:none;enable-background:accumulate" />
      <path
         inkscape:connector-curvature="0"
         d="m 372.32574,332.38064 0.006,-42.61103 a 10.625437,10.625437 0 0 1 -5.31304,-1.41798 L 331.12429,267.6281 a 10.625437,10.625437 0 0 1 -5.30503,-9.19495 l -0.006,-41.44661 a 10.625437,10.625437 0 0 1 1.42518,-5.28611 L 290.3462,190.40047 a 19.318977,19.318977 0 0 0 -2.59074,9.63009 l 0.009,75.37163 a 19.318977,19.318977 0 0 0 9.6429,16.7159 l 65.26174,37.67883 a 19.318977,19.318977 0 0 0 9.65691,2.58372 z"
         id="path4639-2"
         style="opacity:1;fill:#888888;fill-opacity:1;stroke:none" />
      <path
         style="opacity:1;fill:#444444;fill-opacity:1;stroke:none"
         d="m 454.33204,190.39453 -36.90431,21.29883 a 10.625437,10.625437 0 0 1 1.42775,5.31055 l 0,41.44726 a 10.625437,10.625437 0 0 1 -5.31054,9.19141 l -35.89063,20.72851 a 10.625437,10.625437 0 0 1 -5.29103,1.41016 l 0,42.59961 A 19.318977,19.318977 0 0 0 382,329.8086 l 14.51759,-8.38478 23.28906,13.52148 c 5.64878,3.27976 14.74378,3.27976 20.39258,0 l 17.80859,-10.33982 c 5.6488,-3.27977 5.6488,-8.5601 0,-11.83987 l -23.18554,-13.46092 12.44727,-7.18946 a 19.318977,19.318977 0 0 0 9.65429,-16.70898 l 0,-75.35742 a 19.318977,19.318977 0 0 0 -2.5918,-9.6543 z"
         id="rect5300-5-5"
         inkscape:connector-curvature="0" />
    </g>
    <flowRoot
       xml:space="preserve"
       id="flowRoot4729"
       style="fill:black;stroke:none;stroke-opacity:1;stroke-width:1px;stroke-linejoin:miter;stroke-linecap:butt;fill-opacity:1;font-family:sans-serif;font-style:normal;font-weight:normal;font-size:30px;line-height:125%;letter-spacing:0px;word-spacing:0px;text-anchor:middle;text-align:center"><flowRegion
         id="flowRegion4731"><rect
           id="rect4733"
           width="110"
           height="97.14286"
           x="-290"
           y="588.07648" /></flowRegion><flowPara
         id="flowPara4735" /></flowRoot>  </g>
</svg>
