<?xml version="1.0" encoding="UTF-8" standalone="no"?>
<!-- Created with Inkscape (http://www.inkscape.org/) -->

<svg
   xmlns:dc="http://purl.org/dc/elements/1.1/"
   xmlns:cc="http://creativecommons.org/ns#"
   xmlns:rdf="http://www.w3.org/1999/02/22-rdf-syntax-ns#"
   xmlns:svg="http://www.w3.org/2000/svg"
   xmlns="http://www.w3.org/2000/svg"
   xmlns:sodipodi="http://sodipodi.sourceforge.net/DTD/sodipodi-0.dtd"
   xmlns:inkscape="http://www.inkscape.org/namespaces/inkscape"
   width="6cm"
   height="6cm"
   viewBox="0 0 212.59843 212.59843"
   id="svg5378"
   version="1.1"
   inkscape:version="0.91 r13725"
   sodipodi:docname="Qube-White-Outline-Sticker.svg">
  <defs
     id="defs5380" />
  <sodipodi:namedview
     id="base"
     pagecolor="#ffffff"
     bordercolor="#666666"
     borderopacity="1.0"
     inkscape:pageopacity="0.0"
     inkscape:pageshadow="2"
     inkscape:zoom="3.1013261"
     inkscape:cx="126.272"
     inkscape:cy="100.59574"
     inkscape:document-units="px"
     inkscape:current-layer="layer1"
     showgrid="false"
     units="cm"
     inkscape:window-width="1517"
     inkscape:window-height="982"
     inkscape:window-x="269"
     inkscape:window-y="64"
     inkscape:window-maximized="0" />
  <metadata
     id="metadata5383">
    <rdf:RDF>
      <cc:Work
         rdf:about="">
        <dc:format>image/svg+xml</dc:format>
        <dc:type
           rdf:resource="http://purl.org/dc/dcmitype/StillImage" />
        <dc:title></dc:title>
      </cc:Work>
    </rdf:RDF>
  </metadata>
  <g
     inkscape:label="Layer 1"
     inkscape:groupmode="layer"
     id="layer1"
     transform="translate(0,-839.7637)">
    <path
       style="color:#000000;font-style:normal;font-variant:normal;font-weight:normal;font-stretch:normal;font-size:medium;line-height:normal;font-family:Sans;-inkscape-font-specification:Sans;text-indent:0;text-align:start;text-decoration:none;text-decoration-line:none;letter-spacing:normal;word-spacing:normal;text-transform:none;direction:ltr;block-progression:tb;writing-mode:lr-tb;baseline-shift:baseline;text-anchor:start;display:inline;overflow:visible;visibility:visible;fill:#ffffff;fill-opacity:1;fill-rule:nonzero;stroke:none;stroke-width:116.01034546;marker:none;enable-background:accumulate"
       d="m 104.53015,840.31003 c -3.6885,-0.085 -7.330394,0.84815 -10.524063,2.69552 l -67.869146,39.17121 c -5.507399,3.74907 -8.028931,7.94035 -7.357298,7.39183 l 38.358703,22.14502 c 0.954043,-1.66518 2.341211,-3.08149 4.060528,-4.07475 l 37.336968,-21.54782 c 1.754658,-1.01218 3.753888,-1.52388 5.778988,-1.47674 1.85143,0.0428 3.66296,0.55139 5.26712,1.47674 l 37.33697,21.54782 c 1.71443,0.99045 3.09659,2.40148 4.05038,4.06053 l 38.35666,-22.13689 c -1.63839,-2.87518 -3.19441,-4.90672 -7.3451,-7.38574 l -67.88134,-39.17121 c -2.91386,-1.68579 -6.204,-2.61314 -9.56937,-2.69552 z m -47.391804,71.40358 -0.08329,0.17063 0.09344,-0.16453 -0.01015,-0.006 z m 135.984084,-14.30225 -38.38105,22.15112 a 11.05062,11.05062 0 0 1 1.48487,5.52304 l 0,43.10581 a 11.05062,11.05062 0 0 1 -5.52305,9.5592 l -37.32682,21.55806 a 11.05062,11.05062 0 0 1 -5.50274,1.46651 l 0,44.3043 a 20.092037,20.092037 0 0 0 10.02235,-2.6753 l 15.0985,-8.7202 24.22099,14.0626 c 5.87482,3.411 15.33376,3.411 21.2086,0 l 18.52122,-10.7536 c 5.87484,-3.4111 5.87484,-8.9026 0,-12.3136 l -24.11334,-13.9997 12.94536,-7.4771 a 20.092037,20.092037 0 0 0 10.04062,-17.37762 l 0,-78.3729 a 20.092037,20.092037 0 0 0 -2.69551,-10.04062 z m -178.86848,0.006 a 20.092037,20.092037 0 0 0 -2.693478,10.01624 l 0.0081,78.38711 a 20.092037,20.092037 0 0 0 10.028432,17.38399 l 67.873209,39.1874 a 20.092037,20.092037 0 0 0 10.04265,2.6874 l 0.0081,-44.3165 a 11.05062,11.05062 0 0 1 -5.527112,-1.47465 L 56.663025,977.73632 a 11.05062,11.05062 0 0 1 -5.516958,-9.56326 l -0.0061,-43.10581 a 11.05062,11.05062 0 0 1 1.482836,-5.49664 L 14.25395,897.41746 Z"
       id="path5280-0-4-2"
       inkscape:connector-curvature="0" />
  </g>
</svg>
