<?xml version="1.0" encoding="UTF-8" standalone="no"?>
<!-- Created with Inkscape (http://www.inkscape.org/) -->

<svg
   xmlns:dc="http://purl.org/dc/elements/1.1/"
   xmlns:cc="http://creativecommons.org/ns#"
   xmlns:rdf="http://www.w3.org/1999/02/22-rdf-syntax-ns#"
   xmlns:svg="http://www.w3.org/2000/svg"
   xmlns="http://www.w3.org/2000/svg"
   xmlns:sodipodi="http://sodipodi.sourceforge.net/DTD/sodipodi-0.dtd"
   xmlns:inkscape="http://www.inkscape.org/namespaces/inkscape"
   width="10cm"
   height="14cm"
   viewBox="0 0 354.33071 496.06299"
   id="svg5378"
   version="1.1"
   inkscape:version="0.91 r13725"
   sodipodi:docname="Qube-T-Shirt-Logo.svg">
  <defs
     id="defs5380" />
  <sodipodi:namedview
     id="base"
     pagecolor="#ffffff"
     bordercolor="#666666"
     borderopacity="1.0"
     inkscape:pageopacity="0.0"
     inkscape:pageshadow="2"
     inkscape:zoom="1"
     inkscape:cx="205.28869"
     inkscape:cy="133.06875"
     inkscape:document-units="px"
     inkscape:current-layer="layer1"
     showgrid="false"
     units="cm"
     inkscape:window-width="1517"
     inkscape:window-height="982"
     inkscape:window-x="142"
     inkscape:window-y="27"
     inkscape:window-maximized="0" />
  <metadata
     id="metadata5383">
    <rdf:RDF>
      <cc:Work
         rdf:about="">
        <dc:format>image/svg+xml</dc:format>
        <dc:type
           rdf:resource="http://purl.org/dc/dcmitype/StillImage" />
        <dc:title></dc:title>
      </cc:Work>
    </rdf:RDF>
  </metadata>
  <g
     inkscape:label="Layer 1"
     inkscape:groupmode="layer"
     id="layer1"
     transform="translate(0,-556.29914)">
    <g
       transform="matrix(1.7611043,0,0,1.7611043,-477.75782,349.38916)"
       id="g5932">
      <path
         sodipodi:nodetypes="ccccccccccccccccccccccccccccc"
         inkscape:connector-curvature="0"
         d="m 372.79769,143.03821 c -3.54658,-0.0817 -7.04718,0.81479 -10.11797,2.59107 l -65.25946,37.66414 c -5.9787,3.44928 -9.66295,9.82626 -9.6648,16.72861 l 0,75.3677 c 0.009,6.89526 3.69222,13.26306 9.6648,16.70879 l 65.25946,37.69365 c 5.9775,3.45128 13.34221,3.45128 19.31971,0 l 36.74664,-21.22154 28.52266,-16.47211 c 5.96878,-3.44824 9.64805,-9.81556 9.65494,-16.70879 l 0,-75.3677 c 1.8e-4,-6.90031 -3.68003,-13.27683 -9.65494,-16.72861 l -65.2693,-37.66414 c -2.80175,-1.62092 -5.96586,-2.51188 -9.20174,-2.59107 z m -0.2069,42.59995 c 1.78019,0.0411 3.5215,0.52894 5.06394,1.41868 l 35.90058,20.71873 c 3.28651,1.89866 5.31067,5.40621 5.31021,9.20174 l 0,41.45709 c -0.007,3.78849 -2.02979,7.2869 -5.31021,9.18203 l -35.90058,20.73836 c -3.28626,1.89614 -7.3342,1.89614 -10.62046,0 l -35.90059,-20.73836 c -3.28042,-1.89513 -5.30364,-5.39354 -5.31021,-9.18203 l 0,-41.45709 c -4.6e-4,-3.79553 2.0237,-7.30308 5.31021,-9.20174 l 35.90059,-20.71873 c 1.68714,-0.97323 3.60933,-1.464 5.55652,-1.41868 z"
         id="path5280-0-4-2"
         style="color:#000000;font-style:normal;font-variant:normal;font-weight:normal;font-stretch:normal;font-size:medium;line-height:normal;font-family:Sans;-inkscape-font-specification:Sans;text-indent:0;text-align:start;text-decoration:none;text-decoration-line:none;letter-spacing:normal;word-spacing:normal;text-transform:none;direction:ltr;block-progression:tb;writing-mode:lr-tb;baseline-shift:baseline;text-anchor:start;display:inline;overflow:visible;visibility:visible;fill:#b4b4b4;fill-opacity:1;fill-rule:nonzero;stroke:none;stroke-width:116.01034546;marker:none;enable-background:accumulate" />
      <path
         inkscape:connector-curvature="0"
         d="m 372.32574,332.38064 0.006,-42.61103 a 10.625437,10.625437 0 0 1 -5.31304,-1.41798 L 331.12429,267.6281 a 10.625437,10.625437 0 0 1 -5.30503,-9.19495 l -0.006,-41.44661 a 10.625437,10.625437 0 0 1 1.42518,-5.28611 L 290.3462,190.40047 a 19.318977,19.318977 0 0 0 -2.59074,9.63009 l 0.009,75.37163 a 19.318977,19.318977 0 0 0 9.6429,16.7159 l 65.26174,37.67883 a 19.318977,19.318977 0 0 0 9.65691,2.58372 z"
         id="path4639-2"
         style="opacity:1;fill:#888888;fill-opacity:1;stroke:none" />
      <path
         style="opacity:1;fill:#444444;fill-opacity:1;stroke:none"
         d="m 454.33204,190.39453 -36.90431,21.29883 a 10.625437,10.625437 0 0 1 1.42775,5.31055 l 0,41.44726 a 10.625437,10.625437 0 0 1 -5.31054,9.19141 l -35.89063,20.72851 a 10.625437,10.625437 0 0 1 -5.29103,1.41016 l 0,42.59961 A 19.318977,19.318977 0 0 0 382,329.8086 l 14.51759,-8.38478 23.28906,13.52148 c 5.64878,3.27976 14.74378,3.27976 20.39258,0 l 17.80859,-10.33982 c 5.6488,-3.27977 5.6488,-8.5601 0,-11.83987 l -23.18554,-13.46092 12.44727,-7.18946 a 19.318977,19.318977 0 0 0 9.65429,-16.70898 l 0,-75.35742 a 19.318977,19.318977 0 0 0 -2.5918,-9.6543 z"
         id="rect5300-5-5"
         inkscape:connector-curvature="0" />
    </g>
    <g
       id="g4282"
       transform="translate(-6,-6)">
      <path
         inkscape:connector-curvature="0"
         d="m 37.138523,994.12224 -3.951356,5.85208 3.951356,0 0,-5.85208 z m -0.59926,-2.96828 4.007539,0 0,8.82036 1.994411,0 0,2.61238 -1.994411,0 0,2.5469 -3.408279,0 0,-2.5469 -6.198571,0 0,-3.08993 5.599311,-8.34281 z"
         style="font-style:normal;font-variant:normal;font-weight:bold;font-stretch:normal;font-size:17.5px;line-height:125%;font-family:sans-serif;-inkscape-font-specification:'sans-serif Bold';text-align:center;letter-spacing:0px;word-spacing:0px;text-anchor:middle;fill:#888888;fill-opacity:1;stroke:none;stroke-width:1px;stroke-linecap:butt;stroke-linejoin:miter;stroke-opacity:1"
         id="path4534" />
      <path
         inkscape:connector-curvature="0"
         d="m 48.936411,1002.4838 6.151754,0 0,2.6498 -10.159294,0 0,-2.6498 5.103055,-4.50385 q 0.68353,-0.61803 1.011254,-1.2079 0.327719,-0.58988 0.327719,-1.22661 0,-0.98316 -0.664803,-1.58238 -0.655444,-0.59934 -1.750953,-0.59934 -0.842718,0 -1.844594,0.36523 -1.001888,0.35578 -2.14422,1.06743 l 0,-3.07125 q 1.217241,-0.40264 2.406396,-0.60858 1.18915,-0.2154 2.331483,-0.2154 2.509391,0 3.89518,1.10494 1.395143,1.10483 1.395143,3.0805 0,1.14234 -0.589895,2.13485 -0.589895,0.98315 -2.481299,2.64056 l -2.986926,2.6218 z"
         style="font-style:normal;font-variant:normal;font-weight:bold;font-stretch:normal;font-size:17.5px;line-height:125%;font-family:sans-serif;-inkscape-font-specification:'sans-serif Bold';text-align:center;letter-spacing:0px;word-spacing:0px;text-anchor:middle;fill:#888888;fill-opacity:1;stroke:none;stroke-width:1px;stroke-linecap:butt;stroke-linejoin:miter;stroke-opacity:1"
         id="path4536" />
      <path
         inkscape:connector-curvature="0"
         d="m 58.02828,991.15396 10.533823,0 0,2.03188 -5.449499,11.94776 -3.511278,0 5.159245,-11.32973 -6.732291,0 0,-2.64991 z"
         style="font-style:normal;font-variant:normal;font-weight:bold;font-stretch:normal;font-size:17.5px;line-height:125%;font-family:sans-serif;-inkscape-font-specification:'sans-serif Bold';text-align:center;letter-spacing:0px;word-spacing:0px;text-anchor:middle;fill:#888888;fill-opacity:1;stroke:none;stroke-width:1px;stroke-linecap:butt;stroke-linejoin:miter;stroke-opacity:1"
         id="path4538" />
      <path
         inkscape:connector-curvature="0"
         d="m 71.839304,991.15396 9.728575,0 0,2.72483 -6.123669,0 0,2.60294 5.758499,0 0,2.72483 -5.758499,0 0,5.92704 -3.604906,0 0,-13.97964 z"
         style="font-style:normal;font-variant:normal;font-weight:bold;font-stretch:normal;font-size:17.5px;line-height:125%;font-family:sans-serif;-inkscape-font-specification:'sans-serif Bold';text-align:center;letter-spacing:0px;word-spacing:0px;text-anchor:middle;fill:#888888;fill-opacity:1;stroke:none;stroke-width:1px;stroke-linecap:butt;stroke-linejoin:miter;stroke-opacity:1"
         id="path4540" />
      <path
         inkscape:connector-curvature="0"
         d="m 92.10171,1002.6429 3.183553,0 0,-9.03573 -3.267828,0.67425 0,-2.45321 3.249103,-0.67425 3.427004,0 0,11.48894 3.183568,0 0,2.4907 -9.7754,0 0,-2.4907 z"
         style="font-style:normal;font-variant:normal;font-weight:bold;font-stretch:normal;font-size:17.5px;line-height:125%;font-family:sans-serif;-inkscape-font-specification:'sans-serif Bold';text-align:center;letter-spacing:0px;word-spacing:0px;text-anchor:middle;fill:#555555;fill-opacity:1;stroke:none;stroke-width:1px;stroke-linecap:butt;stroke-linejoin:miter;stroke-opacity:1"
         id="path4542" />
      <path
         inkscape:connector-curvature="0"
         d="m 105.4352,1002.6429 3.18356,0 0,-9.03573 -3.26784,0.67425 0,-2.45321 3.2491,-0.67425 3.42701,0 0,11.48894 3.18357,0 0,2.4907 -9.7754,0 0,-2.4907 z"
         style="font-style:normal;font-variant:normal;font-weight:bold;font-stretch:normal;font-size:17.5px;line-height:125%;font-family:sans-serif;-inkscape-font-specification:'sans-serif Bold';text-align:center;letter-spacing:0px;word-spacing:0px;text-anchor:middle;fill:#555555;fill-opacity:1;stroke:none;stroke-width:1px;stroke-linecap:butt;stroke-linejoin:miter;stroke-opacity:1"
         id="path4544" />
      <path
         inkscape:connector-curvature="0"
         d="m 118.28179,991.15396 9.72857,0 0,2.72483 -6.12366,0 0,2.60294 5.75848,0 0,2.72483 -5.75848,0 0,5.92704 -3.60491,0 0,-13.97964 z"
         style="font-style:normal;font-variant:normal;font-weight:bold;font-stretch:normal;font-size:17.5px;line-height:125%;font-family:sans-serif;-inkscape-font-specification:'sans-serif Bold';text-align:center;letter-spacing:0px;word-spacing:0px;text-anchor:middle;fill:#555555;fill-opacity:1;stroke:none;stroke-width:1px;stroke-linecap:butt;stroke-linejoin:miter;stroke-opacity:1"
         id="path4546" />
      <path
         inkscape:connector-curvature="0"
         d="m 134.99546,993.87879 0,8.53001 1.29215,0 q 2.20978,0 3.37083,-1.0955 1.17043,-1.0955 1.17043,-3.18351 0,-2.07875 -1.16107,-3.16488 -1.16106,-1.08612 -3.38019,-1.08612 l -1.29215,0 z m -3.6049,-2.72483 3.80154,0 q 3.18355,0 4.73788,0.45885 1.56369,0.44939 2.67793,1.53562 0.98315,0.94565 1.46068,2.18161 0.47755,1.23596 0.47755,2.79975 0,1.58238 -0.47755,2.82771 -0.47753,1.2359 -1.46068,2.1817 -1.1236,1.0861 -2.69665,1.5449 -1.57307,0.4495 -4.71916,0.4495 l -3.80154,0 0,-13.97964 z"
         style="font-style:normal;font-variant:normal;font-weight:bold;font-stretch:normal;font-size:17.5px;line-height:125%;font-family:sans-serif;-inkscape-font-specification:'sans-serif Bold';text-align:center;letter-spacing:0px;word-spacing:0px;text-anchor:middle;fill:#555555;fill-opacity:1;stroke:none;stroke-width:1px;stroke-linecap:butt;stroke-linejoin:miter;stroke-opacity:1"
         id="path4548" />
      <path
         inkscape:connector-curvature="0"
         style="font-style:normal;font-variant:normal;font-weight:bold;font-stretch:normal;font-size:17.5px;line-height:125%;font-family:sans-serif;-inkscape-font-specification:'sans-serif Bold';text-align:center;letter-spacing:0px;word-spacing:0px;text-anchor:middle;fill:#888888;fill-opacity:1;stroke:none;stroke-width:1px;stroke-linecap:butt;stroke-linejoin:miter;stroke-opacity:1"
         d="m 158.89164,990.90181 c -1.84147,0 -3.26239,0.62882 -4.26115,1.88975 -0.99876,1.25477 -1.49815,3.04342 -1.49815,5.36551 0,2.31593 0.49939,4.10453 1.49815,5.36553 0.99876,1.2546 2.41968,1.8833 4.26115,1.8833 1.83522,0 3.25168,-0.6287 4.25045,-1.8833 0.99876,-1.261 1.49815,-3.0496 1.49815,-5.36553 0,-2.32209 -0.49939,-4.11074 -1.49815,-5.36551 -0.99877,-1.26093 -2.41523,-1.88975 -4.25045,-1.88975 z m 0,2.46125 c 0.77404,0 1.32336,0.35863 1.64796,1.07645 0.33083,0.71165 0.49653,1.94189 0.49653,3.68973 0,1.76653 -0.1657,3.01276 -0.49653,3.73676 -0.33084,0.7241 -0.88016,1.0852 -1.64796,1.0852 -0.77404,0 -1.32782,-0.3611 -1.65866,-1.0852 -0.33083,-0.724 -0.49653,-1.97023 -0.49653,-3.73676 0,-1.74784 0.1657,-2.97808 0.49653,-3.68973 0.33084,-0.71782 0.88462,-1.07645 1.65866,-1.07645 z m -1.23918,3.58478 0,2.46554 2.46552,0 0,-2.46554 -2.46552,0 z"
         id="path4550" />
      <path
         inkscape:connector-curvature="0"
         d="m 167.30857,991.15396 9.72857,0 0,2.72483 -6.12366,0 0,2.60294 5.7585,0 0,2.72483 -5.7585,0 0,5.92704 -3.60491,0 0,-13.97964 z"
         style="font-style:normal;font-variant:normal;font-weight:bold;font-stretch:normal;font-size:17.5px;line-height:125%;font-family:sans-serif;-inkscape-font-specification:'sans-serif Bold';text-align:center;letter-spacing:0px;word-spacing:0px;text-anchor:middle;fill:#888888;fill-opacity:1;stroke:none;stroke-width:1px;stroke-linecap:butt;stroke-linejoin:miter;stroke-opacity:1"
         id="path4552" />
      <path
         inkscape:connector-curvature="0"
         d="m 186.69082,1002.5867 -5.63677,0 -0.88952,2.5469 -3.62364,0 5.17796,-13.97964 4.2978,0 5.17797,13.97964 -3.62364,0 -0.88016,-2.5469 z m -4.73788,-2.59368 3.82963,0 -1.91013,-5.56187 -1.9195,5.56187 z"
         style="font-style:normal;font-variant:normal;font-weight:bold;font-stretch:normal;font-size:17.5px;line-height:125%;font-family:sans-serif;-inkscape-font-specification:'sans-serif Bold';text-align:center;letter-spacing:0px;word-spacing:0px;text-anchor:middle;fill:#888888;fill-opacity:1;stroke:none;stroke-width:1px;stroke-linecap:butt;stroke-linejoin:miter;stroke-opacity:1"
         id="path4554" />
      <path
         inkscape:connector-curvature="0"
         d="m 201.52244,1002.5867 -5.63676,0 -0.88953,2.5469 -3.62363,0 5.17796,-13.97964 4.29781,0 5.17795,13.97964 -3.62362,0 -0.88018,-2.5469 z m -4.73788,-2.59368 3.82964,0 -1.91014,-5.56187 -1.9195,5.56187 z"
         style="font-style:normal;font-variant:normal;font-weight:bold;font-stretch:normal;font-size:17.5px;line-height:125%;font-family:sans-serif;-inkscape-font-specification:'sans-serif Bold';text-align:center;letter-spacing:0px;word-spacing:0px;text-anchor:middle;fill:#888888;fill-opacity:1;stroke:none;stroke-width:1px;stroke-linecap:butt;stroke-linejoin:miter;stroke-opacity:1"
         id="path4556" />
      <path
         inkscape:connector-curvature="0"
         d="m 219.83727,994.12224 -3.95135,5.85208 3.95135,0 0,-5.85208 z m -0.59926,-2.96828 4.00754,0 0,8.82036 1.9944,0 0,2.61238 -1.9944,0 0,2.5469 -3.40828,0 0,-2.5469 -6.19858,0 0,-3.08993 5.59932,-8.34281 z"
         style="font-style:normal;font-variant:normal;font-weight:bold;font-stretch:normal;font-size:17.5px;line-height:125%;font-family:sans-serif;-inkscape-font-specification:'sans-serif Bold';text-align:center;letter-spacing:0px;word-spacing:0px;text-anchor:middle;fill:#555555;fill-opacity:1;stroke:none;stroke-width:1px;stroke-linecap:butt;stroke-linejoin:miter;stroke-opacity:1"
         id="path4558" />
      <path
         inkscape:connector-curvature="0"
         d="m 233.47039,996.566 q 0.85207,0 1.29215,-0.37448 0.44008,-0.37458 0.44008,-1.10493 0,-0.7209 -0.44008,-1.09548 -0.44008,-0.38394 -1.29215,-0.38394 l -1.99441,0 0,2.95883 1.99441,0 z m 0.12172,6.1143 q 1.08615,0 1.62924,-0.4588 0.55243,-0.4587 0.55243,-1.3857 0,-0.90834 -0.54308,-1.35773 -0.54306,-0.45885 -1.63859,-0.45885 l -2.11613,0 0,3.66108 2.11613,0 z m 3.3521,-5.02807 q 1.16106,0.33707 1.79778,1.24532 0.6367,0.90824 0.6367,2.22845 0,2.0225 -1.36704,3.0151 -1.36706,0.9925 -4.15736,0.9925 l -5.98321,0 0,-13.97964 5.41204,0 q 2.91202,0 4.21353,0.88018 1.31087,0.88019 1.31087,2.81834 0,1.02068 -0.47753,1.74168 -0.47753,0.71154 -1.38578,1.05807 z"
         style="font-style:normal;font-variant:normal;font-weight:bold;font-stretch:normal;font-size:17.5px;line-height:125%;font-family:sans-serif;-inkscape-font-specification:'sans-serif Bold';text-align:center;letter-spacing:0px;word-spacing:0px;text-anchor:middle;fill:#555555;fill-opacity:1;stroke:none;stroke-width:1px;stroke-linecap:butt;stroke-linejoin:miter;stroke-opacity:1"
         id="path4560" />
      <path
         inkscape:connector-curvature="0"
         style="font-style:normal;font-variant:normal;font-weight:bold;font-stretch:normal;font-size:17.5px;line-height:125%;font-family:sans-serif;-inkscape-font-specification:'sans-serif Bold';text-align:center;letter-spacing:0px;word-spacing:0px;text-anchor:middle;fill:#555555;fill-opacity:1;stroke:none;stroke-width:1px;stroke-linecap:butt;stroke-linejoin:miter;stroke-opacity:1"
         d="m 247.39347,990.90181 c -1.84147,0 -3.26025,0.62882 -4.25901,1.88975 -0.99877,1.25477 -1.49814,3.04342 -1.49814,5.36551 0,2.31593 0.49937,4.10453 1.49814,5.36553 0.99876,1.2546 2.41754,1.8833 4.25901,1.8833 1.83522,0 3.25169,-0.6287 4.25046,-1.8833 0.99876,-1.261 1.49814,-3.0496 1.49814,-5.36553 0,-2.32209 -0.49938,-4.11074 -1.49814,-5.36551 -0.99877,-1.26093 -2.41524,-1.88975 -4.25046,-1.88975 z m 0,2.46125 c 0.77404,0 1.32337,0.35863 1.64796,1.07645 0.33084,0.71165 0.49652,1.94189 0.49652,3.68973 0,1.76653 -0.16568,3.01276 -0.49652,3.73676 -0.33083,0.7241 -0.88017,1.0852 -1.64796,1.0852 -0.77405,0 -1.32568,-0.3611 -1.65652,-1.0852 -0.33084,-0.724 -0.49653,-1.97023 -0.49653,-3.73676 0,-1.74784 0.16569,-2.97808 0.49653,-3.68973 0.33084,-0.71782 0.88247,-1.07645 1.65652,-1.07645 z m -1.23704,3.28093 0,2.46543 2.46552,0 0,-2.46543 -2.46552,0 z"
         id="path4562" />
      <path
         inkscape:connector-curvature="0"
         d="m 260.72726,998.87884 q -1.01125,0 -1.55433,0.55236 -0.54308,0.55247 -0.54308,1.5825 0,1.0299 0.54308,1.5824 0.54308,0.5431 1.55433,0.5431 1.00188,0 1.5356,-0.5431 0.53371,-0.5525 0.53371,-1.5824 0,-1.03938 -0.53371,-1.5825 -0.53372,-0.55236 -1.5356,-0.55236 z m -2.63112,-1.1892 q -1.27342,-0.38394 -1.9195,-1.17975 -0.64608,-0.79592 -0.64608,-1.98501 0,-1.76973 1.32025,-2.69667 1.32024,-0.92706 3.87645,-0.92706 2.53749,0 3.85772,0.92706 1.32025,0.91759 1.32025,2.69667 0,1.18909 -0.65545,1.98501 -0.64608,0.79581 -1.9195,1.17975 1.42324,0.39328 2.14422,1.28282 0.73036,0.88019 0.73036,2.22844 0,2.0787 -1.38579,3.1462 -1.37642,1.0581 -4.09181,1.0581 -2.72475,0 -4.1199,-1.0581 -1.38579,-1.0675 -1.38579,-3.1462 0,-1.34825 0.72099,-2.22844 0.73034,-0.88954 2.15358,-1.28282 z m 0.84272,-2.79964 q 0,0.83332 0.4588,1.28282 0.46816,0.44939 1.3296,0.44939 0.84271,0 1.30151,-0.44939 0.45881,-0.4495 0.45881,-1.28282 0,-0.83333 -0.45881,-1.27348 -0.4588,-0.44939 -1.30151,-0.44939 -0.86144,0 -1.3296,0.44939 -0.4588,0.4495 -0.4588,1.27348 z"
         style="font-style:normal;font-variant:normal;font-weight:bold;font-stretch:normal;font-size:17.5px;line-height:125%;font-family:sans-serif;-inkscape-font-specification:'sans-serif Bold';text-align:center;letter-spacing:0px;word-spacing:0px;text-anchor:middle;fill:#555555;fill-opacity:1;stroke:none;stroke-width:1px;stroke-linecap:butt;stroke-linejoin:miter;stroke-opacity:1"
         id="path4564" />
      <path
         inkscape:connector-curvature="0"
         style="font-style:normal;font-variant:normal;font-weight:bold;font-stretch:normal;font-size:17.5px;line-height:125%;font-family:sans-serif;-inkscape-font-specification:'sans-serif Bold';text-align:center;letter-spacing:0px;word-spacing:0px;text-anchor:middle;fill:#888888;fill-opacity:1;stroke:none;stroke-width:1px;stroke-linecap:butt;stroke-linejoin:miter;stroke-opacity:1"
         d="m 280.72719,990.90181 c -1.84148,0 -3.26024,0.62882 -4.259,1.88975 -0.99877,1.25477 -1.49816,3.04342 -1.49816,5.36551 0,2.31593 0.49939,4.10453 1.49816,5.36553 0.99876,1.2546 2.41752,1.8833 4.259,1.8833 1.83522,0 3.2517,-0.6287 4.25045,-1.8833 0.99876,-1.261 1.49815,-3.0496 1.49815,-5.36553 0,-2.32209 -0.49939,-4.11074 -1.49815,-5.36551 -0.99875,-1.26093 -2.41523,-1.88975 -4.25045,-1.88975 z m 0,2.46125 c 0.77404,0 1.32335,0.35863 1.64796,1.07645 0.33084,0.71165 0.49652,1.94189 0.49652,3.68973 0,1.76653 -0.16568,3.01276 -0.49652,3.73676 -0.33085,0.7241 -0.88017,1.0852 -1.64796,1.0852 -0.77404,0 -1.32568,-0.3611 -1.65651,-1.0852 -0.33084,-0.724 -0.49654,-1.97023 -0.49654,-3.73676 0,-1.74784 0.1657,-2.97808 0.49654,-3.68973 0.33083,-0.71782 0.88247,-1.07645 1.65651,-1.07645 z m -1.23704,3.25519 0,2.46554 2.46552,0 0,-2.46554 -2.46552,0 z"
         id="path4566" />
      <path
         inkscape:connector-curvature="0"
         d="m 289.6321,1002.6429 3.18355,0 0,-9.03573 -3.26782,0.67425 0,-2.45321 3.24908,-0.67425 3.42701,0 0,11.48894 3.18357,0 0,2.4907 -9.77539,0 0,-2.4907 z"
         style="font-style:normal;font-variant:normal;font-weight:bold;font-stretch:normal;font-size:17.5px;line-height:125%;font-family:sans-serif;-inkscape-font-specification:'sans-serif Bold';text-align:center;letter-spacing:0px;word-spacing:0px;text-anchor:middle;fill:#888888;fill-opacity:1;stroke:none;stroke-width:1px;stroke-linecap:butt;stroke-linejoin:miter;stroke-opacity:1"
         id="path4568" />
      <path
         inkscape:connector-curvature="0"
         d="m 306.24277,1002.4838 6.15175,0 0,2.6498 -10.15929,0 0,-2.6498 5.10306,-4.50385 q 0.68353,-0.61803 1.01125,-1.2079 0.32772,-0.58988 0.32772,-1.22661 0,-0.98316 -0.6648,-1.58238 -0.65544,-0.59934 -1.75096,-0.59934 -0.8427,0 -1.84459,0.36523 -1.0019,0.35578 -2.14423,1.06743 l 0,-3.07125 q 1.21725,-0.40264 2.4064,-0.60858 1.18914,-0.2154 2.33148,-0.2154 2.50939,0 3.89519,1.10494 1.39514,1.10483 1.39514,3.0805 0,1.14234 -0.58988,2.13485 -0.5899,0.98315 -2.48132,2.64056 l -2.98692,2.6218 z"
         style="font-style:normal;font-variant:normal;font-weight:bold;font-stretch:normal;font-size:17.5px;line-height:125%;font-family:sans-serif;-inkscape-font-specification:'sans-serif Bold';text-align:center;letter-spacing:0px;word-spacing:0px;text-anchor:middle;fill:#888888;fill-opacity:1;stroke:none;stroke-width:1px;stroke-linecap:butt;stroke-linejoin:miter;stroke-opacity:1"
         id="path4570" />
      <path
         inkscape:connector-curvature="0"
         d="m 322.98454,997.59602 q 1.41386,0.36512 2.14422,1.27347 0.73971,0.89889 0.73971,2.29401 0,2.0787 -1.59179,3.1648 -1.59178,1.0769 -4.64424,1.0769 -1.0768,0 -2.16296,-0.178 -1.07677,-0.1686 -2.13484,-0.515 l 0,-2.7809 q 1.01123,0.5056 2.00376,0.7677 1.00189,0.2528 1.96632,0.2528 1.4326,0 2.19103,-0.4962 0.7678,-0.4963 0.7678,-1.4232 0,-0.9551 -0.78652,-1.44201 -0.77717,-0.49626 -2.3034,-0.49626 l -1.44196,0 0,-2.32208 1.51687,0 q 1.35768,0 2.0225,-0.42134 0.6648,-0.43069 0.6648,-1.30153 0,-0.80527 -0.64608,-1.24531 -0.64608,-0.44015 -1.82587,-0.44015 -0.87079,0 -1.76031,0.1967 -0.88953,0.19659 -1.76968,0.58052 l 0,-2.64045 q 1.06742,-0.29967 2.11613,-0.4495 1.0487,-0.14984 2.05994,-0.14984 2.72474,0 4.07308,0.89889 1.35771,0.88954 1.35771,2.68732 0,1.22661 -0.64608,2.01318 -0.64609,0.77711 -1.91014,1.09548 z"
         style="font-style:normal;font-variant:normal;font-weight:bold;font-stretch:normal;font-size:17.5px;line-height:125%;font-family:sans-serif;-inkscape-font-specification:'sans-serif Bold';text-align:center;letter-spacing:0px;word-spacing:0px;text-anchor:middle;fill:#888888;fill-opacity:1;stroke:none;stroke-width:1px;stroke-linecap:butt;stroke-linejoin:miter;stroke-opacity:1"
         id="path4572" />
      <path
         inkscape:connector-curvature="0"
         d="m 30.808861,1015.1242 9.728575,0 0,2.7248 -6.123669,0 0,2.603 5.758493,0 0,2.7248 -5.758493,0 0,5.927 -3.604906,0 0,-13.9796 z"
         style="font-style:normal;font-variant:normal;font-weight:bold;font-stretch:normal;font-size:17.5px;line-height:125%;font-family:sans-serif;-inkscape-font-specification:'sans-serif Bold';text-align:center;letter-spacing:0px;word-spacing:0px;text-anchor:middle;fill:#555555;fill-opacity:1;stroke:none;stroke-width:1px;stroke-linecap:butt;stroke-linejoin:miter;stroke-opacity:1"
         id="path4574" />
      <path
         inkscape:connector-curvature="0"
         style="font-style:normal;font-variant:normal;font-weight:bold;font-stretch:normal;font-size:17.5px;line-height:125%;font-family:sans-serif;-inkscape-font-specification:'sans-serif Bold';text-align:center;letter-spacing:0px;word-spacing:0px;text-anchor:middle;fill:#555555;fill-opacity:1;stroke:none;stroke-width:1px;stroke-linecap:butt;stroke-linejoin:miter;stroke-opacity:1"
         d="m 48.833649,1014.8721 c -1.841467,0 -3.262384,0.6288 -4.261145,1.8897 -0.998769,1.2547 -1.49815,3.0434 -1.49815,5.3655 0,2.316 0.499381,4.1046 1.49815,5.3655 0.998761,1.2547 2.419678,1.8834 4.261145,1.8834 1.835222,0 3.251677,-0.6287 4.250445,-1.8834 0.998763,-1.2609 1.49815,-3.0495 1.49815,-5.3655 0,-2.3221 -0.499387,-4.1108 -1.49815,-5.3655 -0.998768,-1.2609 -2.415223,-1.8897 -4.250445,-1.8897 z m 0,2.4612 c 0.774043,0 1.32336,0.3586 1.647953,1.0766 0.330839,0.7115 0.496531,1.9418 0.496531,3.6896 0,1.7666 -0.165692,3.0127 -0.496531,3.7368 -0.330838,0.7241 -0.880156,1.0851 -1.647953,1.0851 -0.774042,0 -1.325679,-0.361 -1.656523,-1.0851 -0.330839,-0.7241 -0.496531,-1.9702 -0.496531,-3.7368 0,-1.7478 0.165692,-2.9781 0.496531,-3.6896 0.330844,-0.718 0.882481,-1.0766 1.656523,-1.0766 z m -1.237044,3.7068 0,2.4655 2.465518,0 0,-2.4655 -2.465518,0 z"
         id="path4576" />
      <path
         inkscape:connector-curvature="0"
         d="m 57.738007,1026.6132 3.183566,0 0,-9.0357 -3.267835,0.6742 0,-2.4533 3.249102,-0.6742 3.427005,0 0,11.489 3.18356,0 0,2.4906 -9.775398,0 0,-2.4906 z"
         style="font-style:normal;font-variant:normal;font-weight:bold;font-stretch:normal;font-size:17.5px;line-height:125%;font-family:sans-serif;-inkscape-font-specification:'sans-serif Bold';text-align:center;letter-spacing:0px;word-spacing:0px;text-anchor:middle;fill:#555555;fill-opacity:1;stroke:none;stroke-width:1px;stroke-linecap:butt;stroke-linejoin:miter;stroke-opacity:1"
         id="path4578" />
      <path
         inkscape:connector-curvature="0"
         d="m 81.670873,1028.3359 q -0.992522,0.5151 -2.069306,0.7773 -1.076797,0.2622 -2.247214,0.2622 -3.492559,0 -5.533775,-1.9476 -2.041233,-1.9569 -2.041233,-5.2997 0,-3.3521 2.041233,-5.2997 2.041216,-1.957 5.533775,-1.957 1.170417,0 2.247214,0.2622 1.076784,0.2621 2.069306,0.7772 l 0,2.8932 q -1.001882,-0.6835 -1.975672,-1.0018 -0.973804,-0.3184 -2.050587,-0.3184 -1.928868,0 -3.033749,1.236 -1.104882,1.236 -1.104882,3.4083 0,2.1629 1.104882,3.3989 1.104881,1.2359 3.033749,1.2359 1.076783,0 2.050587,-0.3184 0.97379,-0.3182 1.975672,-1.0018 l 0,2.8932 z"
         style="font-style:normal;font-variant:normal;font-weight:bold;font-stretch:normal;font-size:17.5px;line-height:125%;font-family:sans-serif;-inkscape-font-specification:'sans-serif Bold';text-align:center;letter-spacing:0px;word-spacing:0px;text-anchor:middle;fill:#555555;fill-opacity:1;stroke:none;stroke-width:1px;stroke-linecap:butt;stroke-linejoin:miter;stroke-opacity:1"
         id="path4580" />
      <path
         inkscape:connector-curvature="0"
         d="m 94.938819,1017.849 0,8.5301 1.292156,0 q 2.209757,0 3.370821,-1.0956 1.170434,-1.0955 1.170434,-3.1835 0,-2.0787 -1.161068,-3.1648 -1.16107,-1.0862 -3.380187,-1.0862 l -1.292156,0 z m -3.604913,-2.7248 3.80154,0 q 3.183567,0 4.737886,0.4589 1.563688,0.4495 2.677928,1.5356 0.98317,0.9456 1.4607,2.1816 0.47753,1.236 0.47753,2.7997 0,1.5824 -0.47753,2.8277 -0.47753,1.236 -1.4607,2.1817 -1.1236,1.0862 -2.696653,1.5449 -1.573046,0.4495 -4.719161,0.4495 l -3.80154,0 0,-13.9796 z"
         style="font-style:normal;font-variant:normal;font-weight:bold;font-stretch:normal;font-size:17.5px;line-height:125%;font-family:sans-serif;-inkscape-font-specification:'sans-serif Bold';text-align:center;letter-spacing:0px;word-spacing:0px;text-anchor:middle;fill:#888888;fill-opacity:1;stroke:none;stroke-width:1px;stroke-linecap:butt;stroke-linejoin:miter;stroke-opacity:1"
         id="path4582" />
      <path
         inkscape:connector-curvature="0"
         d="m 110.85661,1017.849 0,8.5301 1.29215,0 q 2.20976,0 3.37083,-1.0956 1.17041,-1.0955 1.17041,-3.1835 0,-2.0787 -1.16105,-3.1648 -1.16107,-1.0862 -3.38019,-1.0862 l -1.29215,0 z m -3.60492,-2.7248 3.80155,0 q 3.18355,0 4.73788,0.4589 1.56369,0.4495 2.67794,1.5356 0.98314,0.9456 1.46069,2.1816 0.47754,1.236 0.47754,2.7997 0,1.5824 -0.47754,2.8277 -0.47755,1.236 -1.46069,2.1817 -1.12361,1.0862 -2.69666,1.5449 -1.57305,0.4495 -4.71916,0.4495 l -3.80155,0 0,-13.9796 z"
         style="font-style:normal;font-variant:normal;font-weight:bold;font-stretch:normal;font-size:17.5px;line-height:125%;font-family:sans-serif;-inkscape-font-specification:'sans-serif Bold';text-align:center;letter-spacing:0px;word-spacing:0px;text-anchor:middle;fill:#888888;fill-opacity:1;stroke:none;stroke-width:1px;stroke-linecap:butt;stroke-linejoin:miter;stroke-opacity:1"
         id="path4584" />
      <path
         inkscape:connector-curvature="0"
         d="m 123.16949,1015.1242 9.72857,0 0,2.7248 -6.12367,0 0,2.603 5.7585,0 0,2.7248 -5.7585,0 0,5.927 -3.6049,0 0,-13.9796 z"
         style="font-style:normal;font-variant:normal;font-weight:bold;font-stretch:normal;font-size:17.5px;line-height:125%;font-family:sans-serif;-inkscape-font-specification:'sans-serif Bold';text-align:center;letter-spacing:0px;word-spacing:0px;text-anchor:middle;fill:#888888;fill-opacity:1;stroke:none;stroke-width:1px;stroke-linecap:butt;stroke-linejoin:miter;stroke-opacity:1"
         id="path4586" />
      <path
         inkscape:connector-curvature="0"
         d="m 142.55173,1026.557 -5.63677,0 -0.88952,2.5468 -3.62364,0 5.17795,-13.9796 4.29781,0 5.17796,13.9796 -3.62363,0 -0.88016,-2.5468 z m -4.73788,-2.5936 3.82963,0 -1.91013,-5.562 -1.9195,5.562 z"
         style="font-style:normal;font-variant:normal;font-weight:bold;font-stretch:normal;font-size:17.5px;line-height:125%;font-family:sans-serif;-inkscape-font-specification:'sans-serif Bold';text-align:center;letter-spacing:0px;word-spacing:0px;text-anchor:middle;fill:#888888;fill-opacity:1;stroke:none;stroke-width:1px;stroke-linecap:butt;stroke-linejoin:miter;stroke-opacity:1"
         id="path4588" />
      <path
         inkscape:connector-curvature="0"
         d="m 156.05375,1026.6132 3.18358,0 0,-9.0357 -3.26785,0.6742 0,-2.4533 3.24911,-0.6742 3.427,0 0,11.489 3.18356,0 0,2.4906 -9.7754,0 0,-2.4906 z"
         style="font-style:normal;font-variant:normal;font-weight:bold;font-stretch:normal;font-size:17.5px;line-height:125%;font-family:sans-serif;-inkscape-font-specification:'sans-serif Bold';text-align:center;letter-spacing:0px;word-spacing:0px;text-anchor:middle;fill:#555555;fill-opacity:1;stroke:none;stroke-width:1px;stroke-linecap:butt;stroke-linejoin:miter;stroke-opacity:1"
         id="path4590" />
      <path
         inkscape:connector-curvature="0"
         d="m 177.3836,1026.557 -5.63677,0 -0.88952,2.5468 -3.62365,0 5.17797,-13.9796 4.2978,0 5.17796,13.9796 -3.62364,0 -0.88015,-2.5468 z m -4.73788,-2.5936 3.82962,0 -1.91013,-5.562 -1.91949,5.562 z"
         style="font-style:normal;font-variant:normal;font-weight:bold;font-stretch:normal;font-size:17.5px;line-height:125%;font-family:sans-serif;-inkscape-font-specification:'sans-serif Bold';text-align:center;letter-spacing:0px;word-spacing:0px;text-anchor:middle;fill:#555555;fill-opacity:1;stroke:none;stroke-width:1px;stroke-linecap:butt;stroke-linejoin:miter;stroke-opacity:1"
         id="path4592" />
      <path
         inkscape:connector-curvature="0"
         d="m 190.90435,1021.5663 q 1.41388,0.3652 2.14422,1.2733 0.73971,0.899 0.73971,2.2942 0,2.0786 -1.59179,3.1647 -1.59176,1.0769 -4.64424,1.0769 -1.07678,0 -2.16295,-0.178 -1.07678,-0.1685 -2.13485,-0.5149 l 0,-2.781 q 1.01124,0.5056 2.00377,0.7679 1.00188,0.2527 1.96631,0.2527 1.43261,0 2.19104,-0.4961 0.7678,-0.4964 0.7678,-1.4233 0,-0.9552 -0.78653,-1.4421 -0.77716,-0.4962 -2.30339,-0.4962 l -1.44197,0 0,-2.3221 1.51687,0 q 1.35769,0 2.0225,-0.4213 0.6648,-0.4308 0.6648,-1.3016 0,-0.8052 -0.64608,-1.2453 -0.64607,-0.44 -1.82586,-0.44 -0.8708,0 -1.76031,0.1966 -0.88953,0.1966 -1.76969,0.5805 l 0,-2.6405 q 1.06743,-0.2996 2.11613,-0.4495 1.0487,-0.1498 2.05994,-0.1498 2.72475,0 4.07308,0.8989 1.3577,0.8895 1.3577,2.6873 0,1.2266 -0.64607,2.0132 -0.64608,0.7771 -1.91014,1.0955 z"
         style="font-style:normal;font-variant:normal;font-weight:bold;font-stretch:normal;font-size:17.5px;line-height:125%;font-family:sans-serif;-inkscape-font-specification:'sans-serif Bold';text-align:center;letter-spacing:0px;word-spacing:0px;text-anchor:middle;fill:#555555;fill-opacity:1;stroke:none;stroke-width:1px;stroke-linecap:butt;stroke-linejoin:miter;stroke-opacity:1"
         id="path4594" />
      <path
         inkscape:connector-curvature="0"
         d="m 197.06547,1015.1242 9.72859,0 0,2.7248 -6.12368,0 0,2.603 5.7585,0 0,2.7248 -5.7585,0 0,3.2023 6.32966,0 0,2.7247 -9.93457,0 0,-13.9796 z"
         style="font-style:normal;font-variant:normal;font-weight:bold;font-stretch:normal;font-size:17.5px;line-height:125%;font-family:sans-serif;-inkscape-font-specification:'sans-serif Bold';text-align:center;letter-spacing:0px;word-spacing:0px;text-anchor:middle;fill:#555555;fill-opacity:1;stroke:none;stroke-width:1px;stroke-linecap:butt;stroke-linejoin:miter;stroke-opacity:1"
         id="path4596" />
      <path
         inkscape:connector-curvature="0"
         d="m 224.01335,1021.5663 q 1.41388,0.3652 2.14421,1.2733 0.73972,0.899 0.73972,2.2942 0,2.0786 -1.59178,3.1647 -1.59177,1.0769 -4.64425,1.0769 -1.07679,0 -2.16294,-0.178 -1.0768,-0.1685 -2.13485,-0.5149 l 0,-2.781 q 1.01124,0.5056 2.00376,0.7679 1.00189,0.2527 1.96631,0.2527 1.43261,0 2.19104,-0.4961 0.7678,-0.4964 0.7678,-1.4233 0,-0.9552 -0.78654,-1.4421 -0.77714,-0.4962 -2.30339,-0.4962 l -1.44196,0 0,-2.3221 1.51687,0 q 1.3577,0 2.0225,-0.4213 0.6648,-0.4308 0.6648,-1.3016 0,-0.8052 -0.64608,-1.2453 -0.64606,-0.44 -1.82585,-0.44 -0.87081,0 -1.76033,0.1966 -0.88952,0.1966 -1.76969,0.5805 l 0,-2.6405 q 1.06744,-0.2996 2.11613,-0.4495 1.0487,-0.1498 2.05997,-0.1498 2.72474,0 4.07306,0.8989 1.3577,0.8895 1.3577,2.6873 0,1.2266 -0.64608,2.0132 -0.64607,0.7771 -1.91013,1.0955 z"
         style="font-style:normal;font-variant:normal;font-weight:bold;font-stretch:normal;font-size:17.5px;line-height:125%;font-family:sans-serif;-inkscape-font-specification:'sans-serif Bold';text-align:center;letter-spacing:0px;word-spacing:0px;text-anchor:middle;fill:#88888f;fill-opacity:0.94117647;stroke:none;stroke-width:1px;stroke-linecap:butt;stroke-linejoin:miter;stroke-opacity:1"
         id="path4598" />
      <path
         inkscape:connector-curvature="0"
         d="m 235.35244,1022.203 q -0.94571,0 -1.42325,0.6179 -0.46818,0.6087 -0.46818,1.8353 0,1.2266 0.46818,1.8446 0.47754,0.6086 1.42325,0.6086 0.95506,0 1.42324,-0.6086 0.47753,-0.618 0.47753,-1.8446 0,-1.2266 -0.47753,-1.8353 -0.46818,-0.6179 -1.42324,-0.6179 z m 4.45698,-6.7136 0,2.5843 q -0.88953,-0.4214 -1.67606,-0.6179 -0.78651,-0.206 -1.5356,-0.206 -1.61049,0 -2.50939,0.8988 -0.89889,0.8895 -1.04869,2.6499 0.61798,-0.4588 1.33897,-0.6836 0.72097,-0.2341 1.57304,-0.2341 2.14422,0 3.45509,1.2548 1.32025,1.2546 1.32025,3.2865 0,2.2473 -1.47005,3.6049 -1.47006,1.3484 -3.94199,1.3484 -2.72476,0 -4.2229,-1.8353 -1.48878,-1.8445 -1.48878,-5.2248 0,-3.4644 1.74159,-5.4401 1.75095,-1.985 4.79406,-1.985 0.96444,0 1.87269,0.1497 0.90824,0.1499 1.79777,0.4495 z"
         style="font-style:normal;font-variant:normal;font-weight:bold;font-stretch:normal;font-size:17.5px;line-height:125%;font-family:sans-serif;-inkscape-font-specification:'sans-serif Bold';text-align:center;letter-spacing:0px;word-spacing:0px;text-anchor:middle;fill:#88888f;fill-opacity:0.94117647;stroke:none;stroke-width:1px;stroke-linecap:butt;stroke-linejoin:miter;stroke-opacity:1"
         id="path4600" />
      <path
         inkscape:connector-curvature="0"
         d="m 248.42374,1022.8491 q -1.01124,0 -1.55432,0.5524 -0.54307,0.5524 -0.54307,1.5824 0,1.03 0.54307,1.5824 0.54308,0.5431 1.55432,0.5431 1.0019,0 1.53561,-0.5431 0.53371,-0.5524 0.53371,-1.5824 0,-1.0393 -0.53371,-1.5824 -0.53371,-0.5524 -1.53561,-0.5524 z m -2.63111,-1.1892 q -1.27342,-0.3839 -1.9195,-1.1798 -0.64607,-0.7959 -0.64607,-1.985 0,-1.7697 1.32024,-2.6967 1.32023,-0.927 3.87644,-0.927 2.53749,0 3.85773,0.927 1.32024,0.9177 1.32024,2.6967 0,1.1891 -0.65544,1.985 -0.64607,0.7959 -1.9195,1.1798 1.42323,0.3933 2.14422,1.2828 0.73035,0.8802 0.73035,2.2285 0,2.0786 -1.38578,3.146 -1.37642,1.0582 -4.09182,1.0582 -2.72474,0 -4.1199,-1.0582 -1.38578,-1.0674 -1.38578,-3.146 0,-1.3483 0.72098,-2.2285 0.73036,-0.8895 2.15359,-1.2828 z m 0.84271,-2.7996 q 0,0.8333 0.4588,1.2828 0.46817,0.4494 1.3296,0.4494 0.84271,0 1.30152,-0.4494 0.4588,-0.4495 0.4588,-1.2828 0,-0.8334 -0.4588,-1.2735 -0.45881,-0.4494 -1.30152,-0.4494 -0.86143,0 -1.3296,0.4494 -0.4588,0.4495 -0.4588,1.2735 z"
         style="font-style:normal;font-variant:normal;font-weight:bold;font-stretch:normal;font-size:17.5px;line-height:125%;font-family:sans-serif;-inkscape-font-specification:'sans-serif Bold';text-align:center;letter-spacing:0px;word-spacing:0px;text-anchor:middle;fill:#88888f;fill-opacity:0.94117647;stroke:none;stroke-width:1px;stroke-linecap:butt;stroke-linejoin:miter;stroke-opacity:1"
         id="path4602" />
      <path
         inkscape:connector-curvature="0"
         d="m 256.36391,1015.1242 10.53384,0 0,2.0319 -5.44952,11.9477 -3.51127,0 5.15924,-11.3297 -6.73229,0 0,-2.6499 z"
         style="font-style:normal;font-variant:normal;font-weight:bold;font-stretch:normal;font-size:17.5px;line-height:125%;font-family:sans-serif;-inkscape-font-specification:'sans-serif Bold';text-align:center;letter-spacing:0px;word-spacing:0px;text-anchor:middle;fill:#88888f;fill-opacity:0.94117647;stroke:none;stroke-width:1px;stroke-linecap:butt;stroke-linejoin:miter;stroke-opacity:1"
         id="path4604" />
      <path
         inkscape:connector-curvature="0"
         d="m 277.00086,1028.7948 0,-2.5842 q 0.86143,0.4026 1.64796,0.6085 0.78652,0.1967 1.55431,0.1967 1.61051,0 2.50939,-0.8895 0.89889,-0.8989 1.05808,-2.6593 -0.63672,0.4682 -1.3577,0.7023 -0.72097,0.2341 -1.56369,0.2341 -2.14421,0 -3.46446,-1.2454 -1.31087,-1.2547 -1.31087,-3.2959 0,-2.2565 1.46069,-3.6142 1.47005,-1.3577 3.93263,-1.3577 2.73412,0 4.23225,1.8446 1.49815,1.8446 1.49815,5.2154 0,3.4644 -1.75095,5.4495 -1.75096,1.9757 -4.80343,1.9757 -0.98315,0 -1.88204,-0.1499 -0.89889,-0.1404 -1.76032,-0.4307 z m 4.44762,-6.7323 q 0.9457,0 1.42324,-0.6085 0.47753,-0.6181 0.47753,-1.8447 0,-1.2172 -0.47753,-1.8352 -0.47754,-0.618 -1.42324,-0.618 -0.94571,0 -1.42324,0.618 -0.47753,0.618 -0.47753,1.8352 0,1.2266 0.47753,1.8447 0.47753,0.6085 1.42324,0.6085 z"
         style="font-style:normal;font-variant:normal;font-weight:bold;font-stretch:normal;font-size:17.5px;line-height:125%;font-family:sans-serif;-inkscape-font-specification:'sans-serif Bold';text-align:center;letter-spacing:0px;word-spacing:0px;text-anchor:middle;fill:#555555;fill-opacity:1;stroke:none;stroke-width:1px;stroke-linecap:butt;stroke-linejoin:miter;stroke-opacity:1"
         id="path4606" />
      <path
         inkscape:connector-curvature="0"
         d="m 295.47485,1018.0925 -3.95136,5.8521 3.95136,0 0,-5.8521 z m -0.59925,-2.9683 4.00753,0 0,8.8204 1.99441,0 0,2.6124 -1.99441,0 0,2.5468 -3.40828,0 0,-2.5468 -6.19857,0 0,-3.09 5.59932,-8.3428 z"
         style="font-style:normal;font-variant:normal;font-weight:bold;font-stretch:normal;font-size:17.5px;line-height:125%;font-family:sans-serif;-inkscape-font-specification:'sans-serif Bold';text-align:center;letter-spacing:0px;word-spacing:0px;text-anchor:middle;fill:#555555;fill-opacity:1;stroke:none;stroke-width:1px;stroke-linecap:butt;stroke-linejoin:miter;stroke-opacity:1"
         id="path4608" />
      <path
         inkscape:connector-curvature="0"
         d="m 303.66784,1028.7948 0,-2.5842 q 0.86143,0.4026 1.64795,0.6085 0.78653,0.1967 1.55432,0.1967 1.61051,0 2.5094,-0.8895 0.89888,-0.8989 1.05807,-2.6593 -0.63672,0.4682 -1.3577,0.7023 -0.72098,0.2341 -1.56369,0.2341 -2.14422,0 -3.46445,-1.2454 -1.31089,-1.2547 -1.31089,-3.2959 0,-2.2565 1.4607,-3.6142 1.47005,-1.3577 3.93263,-1.3577 2.73411,0 4.23225,1.8446 1.49815,1.8446 1.49815,5.2154 0,3.4644 -1.75096,5.4495 -1.75095,1.9757 -4.80342,1.9757 -0.98315,0 -1.88205,-0.1499 -0.89888,-0.1404 -1.76031,-0.4307 z m 4.44761,-6.7323 q 0.9457,0 1.42324,-0.6085 0.47753,-0.6181 0.47753,-1.8447 0,-1.2172 -0.47753,-1.8352 -0.47754,-0.618 -1.42324,-0.618 -0.9457,0 -1.42323,0.618 -0.47753,0.618 -0.47753,1.8352 0,1.2266 0.47753,1.8447 0.47753,0.6085 1.42323,0.6085 z"
         style="font-style:normal;font-variant:normal;font-weight:bold;font-stretch:normal;font-size:17.5px;line-height:125%;font-family:sans-serif;-inkscape-font-specification:'sans-serif Bold';text-align:center;letter-spacing:0px;word-spacing:0px;text-anchor:middle;fill:#555555;fill-opacity:1;stroke:none;stroke-width:1px;stroke-linecap:butt;stroke-linejoin:miter;stroke-opacity:1"
         id="path4610" />
      <path
         inkscape:connector-curvature="0"
         d="m 322.14184,1018.0925 -3.95137,5.8521 3.95137,0 0,-5.8521 z m -0.59927,-2.9683 4.00754,0 0,8.8204 1.99441,0 0,2.6124 -1.99441,0 0,2.5468 -3.40827,0 0,-2.5468 -6.19858,0 0,-3.09 5.59931,-8.3428 z"
         style="font-style:normal;font-variant:normal;font-weight:bold;font-stretch:normal;font-size:17.5px;line-height:125%;font-family:sans-serif;-inkscape-font-specification:'sans-serif Bold';text-align:center;letter-spacing:0px;word-spacing:0px;text-anchor:middle;fill:#555555;fill-opacity:1;stroke:none;stroke-width:1px;stroke-linecap:butt;stroke-linejoin:miter;stroke-opacity:1"
         id="path4612" />
    </g>
  </g>
</svg>
