<?xml version="1.0" encoding="UTF-8" standalone="no"?>
<svg
   xmlns:dc="http://purl.org/dc/elements/1.1/"
   xmlns:cc="http://creativecommons.org/ns#"
   xmlns:rdf="http://www.w3.org/1999/02/22-rdf-syntax-ns#"
   xmlns:svg="http://www.w3.org/2000/svg"
   xmlns="http://www.w3.org/2000/svg"
   viewBox="0 0 173.33333 190.66667"
   height="190.66667"
   width="173.33333"
   xml:space="preserve"
   id="svg1100"
   version="1.1"><metadata
     id="metadata1106"><rdf:RDF><cc:Work
         rdf:about=""><dc:format>image/svg+xml</dc:format><dc:type
           rdf:resource="http://purl.org/dc/dcmitype/StillImage" /><dc:title></dc:title></cc:Work></rdf:RDF></metadata><defs
     id="defs1104" /><g
     transform="matrix(1.3333333,0,0,-1.3333333,0,190.66667)"
     id="g1108"><g
       transform="scale(0.1)"
       id="g1110"><path
         id="path1114"
         style="fill:#63a0ff;fill-opacity:1;fill-rule:nonzero;stroke:none;stroke-width:1.12230921"
         d="m 654.82704,1420.7445 c -25.99381,0.6171 -51.63521,-6.0045 -74.21719,-19.0232 L 101.96625,1124.7802 C 58.117399,1099.4834 31.068061,1052.4923 31.068061,1001.8099 V 447.71342 c 0.04826,-50.63971 27.09322,-97.58367 70.898189,-122.88389 L 580.60985,47.711163 c 43.83515,-25.374291 97.94281,-25.374291 141.73531,0 L 1201.0773,324.82953 c 43.7589,25.30022 70.8066,72.24418 70.8515,122.88389 v 554.09648 c 0,50.6374 -27.0478,97.6286 -70.8515,122.9703 l -478.73214,276.9411 c -20.56182,11.874 -43.7925,18.4506 -67.51812,19.0232 z m -1.52634,-313.1469 c 13.0648,-0.3143 25.81311,-3.9056 37.17201,-10.4824 L 953.82146,944.77412 c 24.02864,-13.89755 38.93408,-39.76342 38.93408,-67.59669 V 572.347 c -0.0485,-27.8344 -14.94921,-53.61159 -38.93408,-67.50915 L 690.47271,352.36202 c -24.10721,-13.89305 -53.83943,-13.89305 -77.89949,0 L 349.22109,504.83785 c -24.02864,13.89756 -38.93067,39.67475 -38.97893,67.50915 v 304.83043 c 0,27.83327 14.90653,53.69914 38.97893,67.59669 l 263.35213,152.34108 c 12.35438,7.1941 26.43149,10.7855 40.72748,10.4824" /><path
         id="path1116"
         style="fill:#99bfff;fill-opacity:1;fill-rule:nonzero;stroke:none;stroke-width:1.12230921"
         d="M 50.182335,1072.8285 320.86034,916.14176 c 6.83486,11.88526 16.6113,21.7975 28.45278,28.58411 l 263.30387,152.38933 c 24.10832,13.8942 53.83605,13.8942 77.89949,0 L 953.82146,944.77412 c 11.7966,-6.83486 21.52476,-16.65507 28.35963,-28.49656 l 270.63471,156.64064 c -12.4577,21.4811 -30.2575,39.3707 -51.7385,51.862 l -478.77591,277.0309 c -43.7925,25.2968 -97.81261,25.2968 -141.60401,0.044 l -478.65257,-277.03 c -21.560125,-12.4913 -39.403045,-30.4258 -51.862475,-51.9966" /><path
         id="path1118"
         style="fill:#3874d8;fill-opacity:1;fill-rule:nonzero;stroke:none;stroke-width:1.12230921"
         d="M 1248.8203,1053.4126 999.05954,899.17133 c 6.71246,-11.69223 10.25886,-24.93548 10.25886,-38.43911 l -16.78622,-300.1257 c 0,-27.45281 -14.63831,-52.79231 -38.36505,-66.55293 L 694.9047,343.98848 C 683.2439,337.27595 670.0433,333.7777 656.66763,333.7777 V 42.143387 c 24.42369,0 48.40407,6.365739 69.62694,18.58881 L 831.20019,104.66836 965.04455,26.755404 c 59.84145,-34.8436633 156.20305,-34.8436633 216.08935,0 l 59.8416,34.818524 c 59.8864,34.844339 59.8864,90.959802 0,125.772712 l -133.1396,77.46627 89.9531,52.08639 c 43.1415,24.9366 69.7066,71.01637 69.7515,120.95015 v 545.63088 c -0.044,24.60327 -6.4421,48.66447 -18.7202,69.93227 z m 4.1189,19.1578 -270.71434,-156.59474 c 6.84831,-11.84149 10.48241,-25.29573 10.48241,-39.07095 V 572.22467 c -0.0434,-27.84786 -14.90094,-53.66884 -38.97335,-67.5664 L 690.47271,352.22511 c -11.84149,-6.78548 -25.16443,-10.34545 -38.79823,-10.34545 V 28.689144 c 24.76935,0 49.1448,6.48358 70.67068,18.855918 L 1201.0773,324.69823 c 43.7589,25.38326 70.8066,72.23967 70.8515,122.83562 v 554.09645 c 0,24.9029 -6.5319,49.3692 -18.9896,70.9401" /></g></g></svg>