<?xml version="1.0" encoding="UTF-8" standalone="no"?>
<!-- Created with Inkscape (http://www.inkscape.org/) -->
<svg xmlns:rdf="http://www.w3.org/1999/02/22-rdf-syntax-ns#" xmlns="http://www.w3.org/2000/svg" xml:space="preserve" height="5cm" viewBox="0 0 188.97638 188.97637" width="5cm" version="1.1" xmlns:cc="http://creativecommons.org/ns#" xmlns:dc="http://purl.org/dc/elements/1.1/"><metadata><rdf:RDF><cc:Work rdf:about=""><dc:format>image/svg+xml</dc:format><dc:type rdf:resource="http://purl.org/dc/dcmitype/StillImage"/><dc:title/></cc:Work></rdf:RDF></metadata><g transform="matrix(1.3333 0 0 -1.3333 0 188.98)"><g transform="matrix(.099868 0 0 .099868 9.316 -1.1875)"><path d="m993.59 16.75c-3.199 0.2813-6.442 0.2813-9.61 0.8203-8.511 1.5313-10.351 3.0078-18.039 6.6406l-191.56 111.49c-22.74-13.17-45.4-26.41-68.13-39.45-0.66-0.3594-1.328-0.75-1.949-1.1016-4.77-2.6171-9.653-5.0781-14.61-7.2578-9.26-4.11-18.83-7.391-28.64-9.891-9.762-2.5-19.762-4.1797-29.879-5-4.692-0.3906-9.371-0.5781-14.063-0.5781h-0.82c-0.937 0-1.879 0-2.809 0.039-5.121 0.0704-10.281 0.3477-15.429 0.8594-10.551 1.0899-21.02 3.0391-31.211 5.9297-9.852 2.8203-19.461 6.4102-28.68 10.82-4.101 1.961-8.121 4.0703-12.07 6.3281-143 82.352-285.74 165.12-428.39 248.01-4.7695 2.77-9.4179 5.781-13.91 8.981-8.5196 6.097-16.449 12.89-23.789 20.32-10.859 10.969-20.27 23.391-27.969 36.75-7.8907 13.598-13.942 28.211-18.051 43.359-2.7305 10.078-4.6016 20.391-5.5821 30.782-0.46875 5.238-0.69922 10.507-0.73828 15.82-0.58985 165.32-0.39063 330.67 0 495.98 0 5.552 0.26953 11.062 0.82031 16.562 1.0078 10.9 3.0781 21.68 6.0508 32.19 4.2187 14.88 10.348 29.22 18.168 42.54 7.8516 13.36 17.379 25.7 28.32 36.64 7.3789 7.38 15.43 14.1 23.98 20.12 4.3008 3.01 8.75 5.86 13.32 8.47l105.59 61.14 321.71 186.13c0.629 0.35 1.258 0.74 1.918 1.09 1.602 0.9 3.281 1.8 4.922 2.66 2.969 1.56 6.019 3.05 9.059 4.41 9.73 4.42 19.89 7.93 30.242 10.55 4.609 1.17 9.258 2.15 13.937 2.97 2.11 0.35 4.223 0.66 6.332 0.94 4.809 0.66 9.688 1.13 14.528 1.36 4.652 0.28 9.3 0.36 13.953 0.24 7.578-0.2 15.148-0.86 22.648-1.99 14.77-2.23 29.262-6.29 43.012-12.03 4.488-1.88 8.867-3.95 13.168-6.18 2.301-1.17 4.57-2.42 6.789-3.67l0.711-0.43 271.56-157.07c52.152-30.15 104.33-60.19 156.4-90.47 4.77-2.81 9.42-5.82 13.91-9.02 8.52-6.05 16.45-12.85 23.79-20.31 10.86-11.02 20.27-23.44 27.97-36.84 7.97-13.83 14.1-28.71 18.2-44.14 2.54-9.57 4.34-19.41 5.28-29.3 0.5-5.5 0.78-11.05 0.82-16.601 0.35-165.31 0.5-330.7 0-496.05-0.04-5.278-0.28-10.547-0.79-15.821-0.93-10.347-2.81-20.668-5.54-30.738-4.1-15.16-10.16-29.77-18.01-43.359-7.7-13.36-17.15-25.789-27.97-36.762-7.5-7.617-15.66-14.57-24.37-20.738-4.3-3.051-8.75-5.903-13.29-8.602l-0.11-0.039 136.56-79.488 8.48-6.051c6.32-6.68 8.51-8.051 12.77-16.332 3.2-6.207 5.2-12.969 5.86-19.918 0.62-6.961 0-13.992-1.99-20.672-1.96-6.719-5.16-12.969-9.46-18.469-5.78-7.351-8.16-8.25-15.66-13.64l-250-145.47c-8.71-4.1015-8.75-4.1015-18.05-6.6406-3.2-0.2695-6.399-0.539-9.61-0.8203" fill-rule="evenodd" fill="#fff"/><g><path d="m619.18 1369.4c-23.2 0.55-46.09-5.35-66.211-16.99l-427.07-247c-39.099-22.6-63.24-64.6-63.24-109.78v-494.37c0.039-45.16 24.18-87.039 63.238-109.61l427.07-247.27c39.101-22.621 87.383-22.621 126.44 0l427.15 247.27c39.03 22.57 63.17 64.449 63.21 109.61v494.37c0 45.199-24.15 87.109-63.21 109.73l-427.15 247.07c-18.32 10.62-39.058 16.48-60.23 16.99zm-1.37-279.4c11.679-0.28 23.05-3.48 33.171-9.34l234.96-135.94c21.44-12.42 34.72-35.51 34.72-60.35v-271.95c-0.039-24.813-13.32-47.82-34.719-60.242l-234.96-136.01c-21.492-12.43-48.05-12.43-69.5 0l-234.96 136.01c-21.442 12.422-34.719 35.429-34.758 60.242v271.95c0 24.84 13.277 47.93 34.758 60.352l234.96 135.9c11.02 6.41 23.598 9.61 36.329 9.34" fill="#63a0ff"/><path d="m79.73 1059 241.48-139.79c6.09 10.59 14.84 19.418 25.391 25.508l234.92 135.98c21.492 12.42 48.011 12.42 69.5 0l234.92-135.94c10.508-6.133 19.219-14.883 25.309-25.434l241.45 139.73c-11.1 19.18-27 35.15-46.14 46.29l-427.22 247.1c-39.07 22.57-87.27 22.57-126.33 0.03l-427.07-247.1c-19.218-11.14-35.16-27.15-46.25-46.41" fill="#99bfff"/><path d="m1149.1 1041.7-222.81-137.64c6.012-10.43 9.18-22.27 9.18-34.297l-15-267.77c0-24.488-13.047-47.109-34.219-59.379l-231.33-133.9c-10.39-5.98-22.15-9.11-34.1-9.11v-260.19c21.801 0 43.2 5.699 62.11 16.602l93.59 39.179 119.42-69.492c53.399-31.097 139.37-31.097 192.81 0l53.4 31.051c53.4 31.102 53.4 81.141 0 112.23l-118.79 69.098 80.27 46.453c38.48 22.258 62.19 63.391 62.23 107.93v486.83c-0.04 21.921-5.78 43.401-16.72 62.381zm3.67 17.11-241.52-139.72c6.09-10.59 9.332-22.579 9.332-34.848v-271.89c-0.02-24.84-13.27-47.85-34.75-60.27l-234.88-135.98c-10.55-6.059-22.46-9.262-34.609-9.262v-279.41c22.109 0 43.859 5.777 63.039 16.828l427.15 247.27c39.03 22.621 63.17 64.449 63.21 109.61v494.33c0 22.229-5.86 44.069-16.96 63.319" fill="#3874d8"/></g></g></g></svg>
