<?xml version="1.0" encoding="UTF-8" standalone="no"?>
<!-- Created with Inkscape (http://www.inkscape.org/) -->

<svg
   xmlns:dc="http://purl.org/dc/elements/1.1/"
   xmlns:cc="http://creativecommons.org/ns#"
   xmlns:rdf="http://www.w3.org/1999/02/22-rdf-syntax-ns#"
   xmlns:svg="http://www.w3.org/2000/svg"
   xmlns="http://www.w3.org/2000/svg"
   xmlns:sodipodi="http://sodipodi.sourceforge.net/DTD/sodipodi-0.dtd"
   xmlns:inkscape="http://www.inkscape.org/namespaces/inkscape"
   width="350"
   height="90"
   viewBox="0 0 350 90.000001"
   id="svg4739"
   version="1.1"
   inkscape:version="0.91 r13725"
   sodipodi:docname="name.svg">
  <defs
     id="defs4741" />
  <sodipodi:namedview
     id="base"
     pagecolor="#ffffff"
     bordercolor="#666666"
     borderopacity="1.0"
     inkscape:pageopacity="0.0"
     inkscape:pageshadow="2"
     inkscape:zoom="1.4390056"
     inkscape:cx="152.29471"
     inkscape:cy="125.69787"
     inkscape:document-units="px"
     inkscape:current-layer="text4662-3"
     showgrid="false"
     units="px"
     inkscape:window-width="1912"
     inkscape:window-height="1049"
     inkscape:window-x="4"
     inkscape:window-y="27"
     inkscape:window-maximized="0" />
  <metadata
     id="metadata4744">
    <rdf:RDF>
      <cc:Work
         rdf:about="">
        <dc:format>image/svg+xml</dc:format>
        <dc:type
           rdf:resource="http://purl.org/dc/dcmitype/StillImage" />
        <dc:title />
      </cc:Work>
    </rdf:RDF>
  </metadata>
  <g
     inkscape:label="Layer 1"
     inkscape:groupmode="layer"
     id="layer1"
     transform="translate(0,-962.36216)">
    <g
       inkscape:transform-center-x="-25"
       inkscape:transform-center-y="-51"
       style="font-style:normal;font-variant:normal;font-weight:900;font-stretch:normal;font-size:90px;line-height:125%;font-family:'Ostrich Sans';-inkscape-font-specification:'Ostrich Sans Heavy';letter-spacing:0px;word-spacing:0px;fill:#111111;fill-opacity:1;stroke:none;stroke-width:1px;stroke-linecap:butt;stroke-linejoin:miter;stroke-opacity:1"
       id="text4662-3">
      <path
         d="m 41.371027,989.45117 c 0,-15.75 -6.75,-24 -20.375,-24 -13.7499995,0 -20.62499953,8.25 -20.62499953,24 l 0,35.50003 c 0,15.75 6.87500003,24.75 20.62499953,24.75 3,0 5.75,-0.5 8.25,-1.625 l 2.75,3.5 c 0.625,0.75 2.75,1.625 3.5,1.625 l 4.625,0 c 4,0 6,-4.125 3.375,-7.25 l -5.25,-6.25 c 2,-4 3.125,-8.875 3.125,-14.75 l 0,-35.50003 z m -28.5,0 c 0,-7.875 2.75,-11.625 8.125,-11.625 5.375,0 7.875,3.5 7.875,11.625 l 0,35.50003 c 0,1.625 -0.125,3.125 -0.25,4.375 -0.375,-0.125 -0.875,-0.125 -1,-0.125 l -4.5,0 c -4,0 -6.125,4.125 -3.5,7.375 l 0.625,0.75 c -4.875,-0.375 -7.375,-4.5 -7.375,-12.375 l 0,-35.50003 z"
         style="font-style:normal;font-variant:normal;font-weight:900;font-stretch:normal;font-size:125px;font-family:'Ostrich Sans';-inkscape-font-specification:'Ostrich Sans Heavy'"
         id="path4137" />
      <path
         d="m 49.675715,1026.7012 c 0,13.25 5.5,22.875 20.5,22.875 14.5,0 20.5,-8.875 20.5,-22.875 l 0,-56.87503 c 0,-2.5 -2,-4.5 -4.5,-4.5 l -3.5,0 c -2.375,0 -4.375,2 -4.375,4.5 l 0,56.87503 c 0,6 -1.75,10.5 -8.125,10.5 -6.125,0 -8.125,-3.875 -8.125,-10.5 l 0,-56.87503 c 0,-2.5 -2,-4.5 -4.5,-4.5 l -3.5,0 c -2.375,0 -4.375,2 -4.375,4.5 l 0,56.87503 z"
         style="font-style:normal;font-variant:normal;font-weight:900;font-stretch:normal;font-size:125px;font-family:'Ostrich Sans';-inkscape-font-specification:'Ostrich Sans Heavy'"
         id="path4139" />
      <path
         d="m 119.20111,1049.7012 c 14.625,0 21.125,-8 21.125,-24.125 0,-7.625 -2.125,-14 -5.375,-18 0,0 5.375,-6.375 5.375,-18.00003 0,-16.125 -6.5,-24.125 -21.125,-24.125 l -12.375,0 c -2.5,0 -4.5,2 -4.5,4.5 l 0,75.25003 c 0,2.5 2,4.5 4.5,4.5 l 12.375,0 z m 0,-71.87503 c 6.125,0 8.625,3.375 8.625,11.75 0,8.375 -2.5,11.75003 -8.625,11.75003 l -4.375,0 0,-23.50003 4.375,0 z m 0,35.87503 c 6.125,0 8.625,3.375 8.625,11.875 0,8.375 -2.5,11.75 -8.625,11.75 l -4.375,0 0,-23.625 4.375,0 z"
         style="font-style:normal;font-variant:normal;font-weight:900;font-stretch:normal;font-size:125px;font-family:'Ostrich Sans';-inkscape-font-specification:'Ostrich Sans Heavy'"
         id="path4141" />
      <path
         d="m 154.29095,965.45117 c -2.5,0 -4.5,2 -4.5,4.5 l 0,75.25003 c 0,2.5 2,4.5 4.5,4.5 l 27,0 c 2.5,0 4.5,-2 4.5,-4.5 l 0,-3.375 c 0,-2.5 -2,-4.5 -4.5,-4.5 l -19.125,0 0,-23.625 15.75,0 c 2.5,0 4.5,-2 4.5,-4.5 l 0,-3.375 c 0,-2.5 -2,-4.5 -4.5,-4.5 l -15.75,0 0,-23.50003 19.125,0 c 2.5,0 4.5,-2 4.5,-4.5 l 0,-3.375 c 0,-2.5 -2,-4.5 -4.5,-4.5 l -27,0 z"
         style="font-style:normal;font-variant:normal;font-weight:900;font-stretch:normal;font-size:125px;font-family:'Ostrich Sans';-inkscape-font-specification:'Ostrich Sans Heavy'"
         id="path4143" />
      <path
         d="m 190.19915,1025.2012 c 0,16.375 6.875,24.375 20.625,24.375 13.25,0 20.625,-7.5 20.625,-21.5 0,-12.125 -8.375,-18.5 -16.625,-24.875 l 0.125,0 c -6.125,-4.75003 -12.25,-9.62503 -12.25,-16.00003 0,-6.5 2.875,-9.375 8.125,-9.375 5.5,0 8.125,3.75 8.125,12 l 0,1.75 c 0,2.5 2,4.5 4.5,4.5 l 3.5,0 c 2.5,0 4.5,-2 4.5,-4.5 l 0,-1.75 c 0,-15.875 -7.125,-24.5 -20.625,-24.5 -13.25,0 -20.625,8.125 -20.625,22.25 0,12.375 8.625,19.12503 16.875,25.62503 l 0,-0.125 c 6.125,4.75 11.875,9.375 11.875,15.25 0,6.625 -2.875,8.875 -8.125,8.875 -1.75,0 -3.875,-0.25 -5.25,-1.625 -1.75,-1.5 -2.875,-4.375 -2.875,-10.375 l 0,-1.625 c 0,-2.5 -2.125,-4.5 -4.5,-4.5 l -3.5,0 c -2.5,0 -4.5,2 -4.5,4.5 l 0,1.625 z"
         style="font-style:normal;font-variant:normal;font-weight:900;font-stretch:normal;font-size:125px;font-family:'Ostrich Sans';-inkscape-font-specification:'Ostrich Sans Heavy'"
         id="path4145" />
      <path
         d="m 267.49603,1027.3262 c 0,9.375 2.375,14.75 5.875,18.125 3.5,3.375 8,4.25 12,4.25 4.125,0 8.625,-0.875 12.125,-4.25 3.5,-3.375 5.875,-8.75 5.875,-18.125 l 0,-39.62503 c 0,-14.5 -6,-22.25 -18,-22.25 -11.875,0 -17.875,7.875 -17.875,22.25 l 0,39.62503 z m 3.875,-39.62503 c 0,-12.5 4.5,-18.375 14,-18.375 9.375,0 14,5.5 14,18.375 l 0,39.62503 c 0,13 -4.875,18.5 -14,18.5 -9.375,0 -14,-5.875 -14,-18.5 l 0,-39.62503 z"
         style="font-style:normal;font-variant:normal;font-weight:normal;font-stretch:normal;font-size:125px;font-family:'Ostrich Sans';-inkscape-font-specification:'Ostrich Sans';fill:#111111;fill-opacity:1"
         id="path4147" />
      <path
         d="m 311.92962,1027.3262 c 0,14.875 6,22.25 18,22.25 11.625,0 18.125,-6.625 18.125,-19.125 0,-21.625 -32.25,-25.625 -32.25,-45.62503 0,-10.875 5.125,-15.5 14.125,-15.5 9.5,0 14.125,5.75 14.125,18.375 l 0,2 4,0 0,-2 c 0,-14.5 -6.25,-22.375 -18.125,-22.375 -11.5,0 -18,7.25 -18,19.875 0,21.75003 32.125,26.87503 32.125,45.62503 0,11.125 -5.125,14.875 -14.125,14.875 -3,0 -6.5,-0.5 -9.25,-3 -2.75,-2.5 -4.875,-7 -4.875,-15.375 l 0,-1.875 -3.875,0 0,1.875 z"
         style="font-style:normal;font-variant:normal;font-weight:normal;font-stretch:normal;font-size:125px;font-family:'Ostrich Sans';-inkscape-font-specification:'Ostrich Sans';fill:#111111;fill-opacity:1"
         id="path4149" />
    </g>
  </g>
</svg>
