<?xml version="1.0" encoding="UTF-8" standalone="no"?>
<!-- Created with Inkscape (http://www.inkscape.org/) -->

<svg
   xmlns:sketch="http://www.bohemiancoding.com/sketch/ns"
   xmlns:dc="http://purl.org/dc/elements/1.1/"
   xmlns:cc="http://creativecommons.org/ns#"
   xmlns:rdf="http://www.w3.org/1999/02/22-rdf-syntax-ns#"
   xmlns:svg="http://www.w3.org/2000/svg"
   xmlns="http://www.w3.org/2000/svg"
   xmlns:sodipodi="http://sodipodi.sourceforge.net/DTD/sodipodi-0.dtd"
   xmlns:inkscape="http://www.inkscape.org/namespaces/inkscape"
   width="300"
   height="400"
   viewBox="0 0 300 400"
   id="svg2"
   version="1.1"
   inkscape:version="0.91 r13725"
   sodipodi:docname="site-icons.svg">
  <defs
     id="defs4" />
  <sodipodi:namedview
     id="base"
     pagecolor="#ffffff"
     bordercolor="#666666"
     borderopacity="1.0"
     inkscape:pageopacity="0.0"
     inkscape:pageshadow="2"
     inkscape:zoom="1.3295679"
     inkscape:cx="115.27816"
     inkscape:cy="259.07018"
     inkscape:document-units="px"
     inkscape:current-layer="layer1"
     showgrid="false"
     units="px"
     showguides="true"
     inkscape:guide-bbox="true"
     inkscape:showpageshadow="false"
     borderlayer="false"
     showborder="true"
     inkscape:window-width="1268"
     inkscape:window-height="989"
     inkscape:window-x="583"
     inkscape:window-y="40"
     inkscape:window-maximized="0">
    <sodipodi:guide
       position="100,554"
       orientation="1,0"
       id="guide4136" />
    <sodipodi:guide
       position="200.5,802"
       orientation="1,0"
       id="guide4138" />
    <sodipodi:guide
       position="34.5,500"
       orientation="0,1"
       id="guide4140" />
    <sodipodi:guide
       position="15.5,400"
       orientation="0,1"
       id="guide4142" />
    <sodipodi:guide
       position="-2.5,300"
       orientation="0,1"
       id="guide4144" />
    <sodipodi:guide
       position="-12.5,200"
       orientation="0,1"
       id="guide4146" />
    <sodipodi:guide
       position="-1,99.5"
       orientation="0,1"
       id="guide4148" />
  </sodipodi:namedview>
  <metadata
     id="metadata7">
    <rdf:RDF>
      <cc:Work
         rdf:about="">
        <dc:format>image/svg+xml</dc:format>
        <dc:type
           rdf:resource="http://purl.org/dc/dcmitype/StillImage" />
        <dc:title></dc:title>
      </cc:Work>
    </rdf:RDF>
  </metadata>
  <g
     inkscape:label="Layer 1"
     inkscape:groupmode="layer"
     id="layer1"
     transform="translate(0,-652.36216)">
    <path
       d="m 12.676481,782.2102 c -0.987705,0.0412 -1.901981,0.66135 -2.270755,1.6455 l -7.5798146,20.24019 c -0.4916909,1.31215 0.1742304,2.77315 1.4863872,3.26485 l 14.4950404,5.42889 c 1.311187,0.48977 2.773104,-0.17426 3.264797,-1.4864 l 7.579805,-20.23846 c 0.491693,-1.31215 -0.174231,-2.77497 -1.486387,-3.26667 l -14.495031,-5.42879 c -0.328032,-0.12269 -0.66481,-0.17291 -0.994042,-0.15911 z m 77.209547,0.0767 c -0.168,0.0134 -0.337354,0.045 -0.505459,0.0939 l -14.861953,4.32252 c -1.345699,0.39202 -2.117971,1.79925 -1.727865,3.14494 l 6.037257,20.75134 c 0.391056,1.3457 1.798378,2.11794 3.143117,1.72784 l 14.863834,-4.32434 c 1.345701,-0.39106 2.117971,-1.79839 1.727871,-3.14313 l -6.039135,-20.75315 c -0.341338,-1.17749 -1.461792,-1.91532 -2.637667,-1.81966 z m -44.013044,3.56811 c -0.608688,0.0537 -1.177411,0.2655 -1.660483,0.59904 -0.01344,0.01 -0.03581,0.025 -0.06365,0.0469 -0.157181,0.11406 -0.305683,0.23827 -0.441792,0.37629 -1.762627,1.53356 -7.385117,6.62881 -7.385117,6.62881 0.14953,0.15048 0.37607,0.33451 0.66457,0.52045 0.186902,0.11981 0.401529,0.23886 0.642105,0.35195 0.210864,0.0987 0.438787,0.19093 0.687034,0.27144 0.106387,0.0335 0.211718,0.069 0.323856,0.0992 1.302566,0.34122 3.242525,0.37601 5.43072,-1.12879 0.204153,-0.13994 1.389955,-0.9626 1.750349,-1.22618 0.575078,-0.4198 1.611936,-0.81614 3.163709,-0.70016 1.552723,0.11693 4.009862,0.81249 4.009862,0.81249 l 23.445161,14.38463 -4.824183,-16.59732 c 0,0 -1.956403,0.45662 -3.8676,0.50167 -1.911197,0.045 -5.052086,-0.30451 -5.792026,-0.64956 -0.739939,-0.34505 -1.215254,-0.56742 -1.800883,-0.84058 -2.906093,-1.35624 -5.326809,-2.48418 -5.32776,-2.48418 -0.08054,-0.0383 -0.1656,-0.0575 -0.248985,-0.0882 -0.0192,-0.01 -0.03696,-0.0115 -0.05616,-0.0192 -0.29904,-0.11789 -0.61922,-0.19773 -0.956602,-0.2284 l -7.072483,-0.63087 c -0.209904,-0.0192 -0.416746,-0.0173 -0.619642,0 z m -6.353626,3.05321 c -0.825244,0.0604 -1.615747,0.14684 -2.246419,0.27144 -2.442192,0.48211 -6.374227,2.31759 -6.374227,2.31759 l -6.059731,16.23233 c 0,0 1.364851,2.29123 1.398393,2.17525 l 0.408116,-1.29547 c 0.485942,-1.63803 2.035584,-2.75244 3.762748,-2.68823 0.316301,0.0125 0.63122,0.0642 0.93601,0.15546 0.969974,0.28754 1.769933,0.93384 2.252045,1.82139 0.104467,0.19265 0.187449,0.39211 0.256464,0.59531 0.711187,-0.63547 1.6584,-1.00142 2.665757,-0.96404 0.316291,0.0125 0.630249,0.0652 0.936009,0.15537 0.969015,0.28755 1.768963,0.9348 2.252035,1.82331 0.02496,0.0469 0.04531,0.0948 0.06931,0.14233 0.727498,-0.95655 1.890221,-1.53614 3.150615,-1.49013 0.316291,0.0115 0.632131,0.0633 0.937881,0.15344 0.969015,0.2885 1.768061,0.93394 2.250173,1.82149 0.352714,0.64984 0.502992,1.37407 0.447408,2.09292 0.567418,-0.29521 1.214103,-0.45268 1.888868,-0.4268 0.3163,0.0115 0.630259,0.0633 0.936009,0.15354 0.969015,0.28754 1.768973,0.9348 2.252035,1.82331 0.05846,0.10639 0.108413,0.21652 0.155386,0.32578 0.0911,0.01 0.180566,0.0383 0.263952,0.0901 l 3.45575,2.12101 c 0.0029,0 0.0058,-1.9e-4 0.0077,0.01 l 6.044756,3.71035 c 1.183708,0.72748 2.734838,0.35722 3.461356,-0.82745 0.727488,-1.18372 0.356285,-2.73396 -0.827424,-3.46144 l -6.769219,-4.15766 -0.0019,0 -2.295091,-1.40972 c -0.29905,-0.18403 -0.393696,-0.57796 -0.209674,-0.87797 0.183072,-0.29904 0.576116,-0.39269 0.876116,-0.20962 l 3.4651,2.12657 c 0.0086,0.01 0.01392,0.0144 0.02064,0.0192 l 7.752029,4.75863 c 1.184669,0.72748 2.734839,0.35627 3.461367,-0.82745 0.727478,-1.18467 0.357235,-2.73481 -0.827434,-3.46134 l -8.367926,-5.13685 -0.0019,0 -3.671031,-2.25576 c -0.318211,-0.19457 -0.419251,-0.61026 -0.222768,-0.92847 0.194573,-0.31822 0.611271,-0.41646 0.928522,-0.22093 l 3.35279,2.05736 10.634938,6.52961 c 1.183709,0.72747 2.734838,0.35626 3.461366,-0.82938 0.727479,-1.18563 0.356285,-2.73567 -0.827433,-3.46315 l 0,-0.01 -13.673232,-8.39411 c -0.05366,-0.0326 -0.107271,-0.0604 -0.162864,-0.0882 l -8.643111,-5.31464 c -0.676685,-0.17732 -2.474861,-0.61112 -3.590525,-0.69452 -0.07958,-0.01 -0.158284,-0.0106 -0.234009,-0.0134 -1.239303,-0.046 -1.871683,0.31266 -2.085427,0.46985 -0.379556,0.27796 -1.594301,1.12112 -1.782164,1.25051 -1.575734,1.08308 -3.230006,1.60018 -4.914048,1.53691 -0.523325,-0.0202 -1.045785,-0.097 -1.553779,-0.23021 -0.106387,-0.0278 -0.210979,-0.0613 -0.314496,-0.094 l -0.06931,-0.0202 c -0.29617,-0.0958 -0.577728,-0.20769 -0.848026,-0.33517 -0.275078,-0.12844 -0.538963,-0.2724 -0.786249,-0.43055 -0.346003,-0.22333 -0.649805,-0.46256 -0.87984,-0.6945 l -0.936019,-0.94161 0.982809,-0.89301 c 0.137059,-0.12354 2.107267,-1.9087 4.051056,-3.65792 z m -9.032496,18.28777 c -1.166601,-0.1015 -2.281939,0.62684 -2.628316,1.79341 l -0.400608,1.27668 c -0.395847,1.33324 0.364684,2.73328 1.697923,3.12817 1.332278,0.39586 2.733254,-0.36469 3.128141,-1.69793 l 0.400617,-1.27669 c 0.395847,-1.33324 -0.362813,-2.73328 -1.696051,-3.12817 -0.166656,-0.0498 -0.33504,-0.0815 -0.501706,-0.0958 z m 6.108404,1.60995 c -1.166132,-0.1015 -2.282784,0.62684 -2.628317,1.7934 l -1.287946,4.18019 c -0.394896,1.33228 0.364675,2.73328 1.697914,3.12817 1.333238,0.39586 2.734176,-0.36469 3.130022,-1.69793 l 1.286064,-4.17837 c 0.395856,-1.33324 -0.364675,-2.7351 -1.697913,-3.12999 -0.166532,-0.0498 -0.333245,-0.0805 -0.499824,-0.0958 z m 6.407913,0.62905 c -1.166419,-0.1015 -2.280077,0.62674 -2.626435,1.7934 l -1.969373,6.39292 c -0.394886,1.33324 0.365655,2.73223 1.697933,3.12808 1.333229,0.39489 2.732294,-0.3646 3.128141,-1.69784 l 1.967481,-6.39303 c 0.395856,-1.33323 -0.362803,-2.73317 -1.696041,-3.12807 -0.166656,-0.0498 -0.335079,-0.0805 -0.501706,-0.0958 z m 5.522458,3.64287 c -1.166141,-0.1014 -2.282784,0.62598 -2.628317,1.7934 l -1.639882,5.43828 c -0.395846,1.33324 0.362813,2.73319 1.696052,3.12808 1.332278,0.39584 2.735117,-0.36556 3.130003,-1.69784 l 1.639891,-5.43637 c 0.395856,-1.33419 -0.364675,-2.7351 -1.697913,-3.13009 -0.166532,-0.0498 -0.333245,-0.0805 -0.499834,-0.0958 z m 3.564326,2.62459 c -0.01056,0.32013 -0.0577,0.63939 -0.149769,0.95473 l -1.237392,4.09786 4.599542,2.823 c 1.183709,0.72747 2.734839,0.35722 3.461367,-0.82746 0.726518,-1.18467 0.357235,-2.73385 -0.827434,-3.46133 l 0,0.01 -3.079469,-1.89079 c -0.0029,0 -0.0067,1.9e-4 -0.0096,-0.01 l -2.757475,-1.69228 z"
       id="icon-handshake"
       style="fill:#000000;fill-opacity:1"
       inkscape:connector-curvature="0" />
    <g
       transform="matrix(1.0549451,0,0,1.0549451,97.452418,750.4749)"
       style="fill:#000000;fill-opacity:1;fill-rule:evenodd;stroke:none;stroke-width:1"
       id="icon-heart"
       sketch:type="MSPage">
      <g
         style="fill:#000000;fill-opacity:1"
         id="donate"
         sketch:type="MSArtboardGroup">
        <path
           inkscape:connector-curvature="0"
           d="M 74.14362,6.142 C 61.875,6.142 57.68718,12.393 50.5,21.437 43.31828,12.393 39.125,6.142 26.85001,6.142 13.6814,6.142 5,15.684 5,29.99 5,38.381 8.44344,47.756 16.375,56.307 L 50.5,93.642 84.625,56.307 C 92.55656,47.756 96,38.381 96,29.99 96,15.683 87.3186,6.142 74.14362,6.142 l 0,0 z"
           id="Shape"
           sketch:type="MSShapeGroup"
           style="fill:#000000;fill-opacity:1" />
      </g>
    </g>
    <g
       transform="matrix(1.0691947,0,0,1.0691947,197.39633,651.77317)"
       style="clip-rule:evenodd;fill:#000000;fill-opacity:1;fill-rule:evenodd;stroke-linejoin:round;stroke-miterlimit:1.41420996"
       id="icon-like">
      <g
         id="like"
         style="fill:#000000;fill-opacity:1">
        <path
           inkscape:connector-curvature="0"
           d="M 9.00116,34.4737 C 6.79138,34.4737 5,36.2635 5,38.4725 l 0,32.7392 c 0,2.2085 1.79425,3.9988 4.00116,3.9988 l 12.62264,0 c 2.2098,0 4.0012,-1.7897 4.0012,-3.9988 l 0,-32.7392 c 0,-2.2085 -1.7943,-3.9988 -4.0012,-3.9988 m 69.2278,-0.7086 -25.5938,0 c 0,0 -3.7796,-2.0043 -2.7869,-6.8958 1.1927,-5.8776 1.5518,-8.6545 0.6625,-11.7505 -0.8892,-3.0961 -0.1397,-7.65175 -5.8003,-7.89901 -3.3197,0.51347 -5.3672,2.31007 -5.3672,6.92341 l 0,5.3592 C 51.3545,27.5609 43.9722,36.6349 39.9125,37.2466 35.8528,37.8584 28.79,38.2452 28.79,38.2452 l 0,34.3184 c 0,0 7.4639,-0.01 9.3297,0.7545 1.2977,0.5318 8.6806,5.4612 11.1387,5.4612 l 31.0107,0 c 0,0 3.4967,-0.5677 4.6104,-4.7928 0.4622,-1.7532 0.302,-3.8692 -1.6328,-4.3728 l -4.4912,0 c -1.9292,0 -2.1484,-2.4248 -2.1484,-2.4248 0,0 5.6662,0.0837 6.1154,0 1.7281,-0.322 5.9157,-1.2781 5.9156,-5.8166 0,-1.9328 -0.8628,-2.9364 -2.3314,-2.9364 l -7.8439,0 c -1.8557,0 -1.8557,-2.4561 -1.8557,-2.4561 0,0 9.1495,0 9.6996,0 1.971,0 4.5449,-1.0942 4.9086,-4.085 0,-1.6434 0,-4.2003 -2.2257,-4.6034 l -10.5268,0 c -1.9699,-0.3268 -2.0975,-2.56 -2.0975,-2.56 L 89.42,44.9433 c 0,0 1.5832,-0.0993 1.7953,-0.2018 1.6129,-0.7794 3.5719,-2.328 3.5719,-5.2524 0,-4.9728 -3.9356,-5.724 -3.9356,-5.724"
           style="fill:#000000;fill-opacity:1"
           id="path7" />
      </g>
    </g>
    <path
       inkscape:connector-curvature="0"
       id="icon-news"
       d="m 288.75616,765.47328 0,0 -43.80487,0 -15.33485,0 c -5.79755,0 -10.49262,4.69796 -10.49262,10.50045 l -5.34349,0 c -3.6429,0 -6.84984,1.86381 -8.73223,4.68674 -1.13335,1.67208 -1.79929,3.69777 -1.79929,5.87198 l 0,32.04528 c 0,11.0446 5.10016,18.51774 17.50719,18.51774 l 68.00014,0 c 5.79853,0 10.49267,-4.7068 10.49267,-10.50046 l 0,-50.63274 c -9.8e-4,-5.79963 -4.69314,-10.49663 -10.49267,-10.49663 z m -57.23938,7.51206 57.62411,0 c 1.88336,0 3.41982,1.52667 3.41982,3.41602 l 0,46.68045 -0.0191,0 c 0,4.19846 -3.4001,7.60542 -7.60523,7.60542 l -0.005,0.0239 -64.11398,0 c 4.04097,-0.17668 7.26711,-3.49959 7.26711,-7.58966 l 0.0119,-46.71554 c 0,-1.88912 1.53353,-3.41579 3.41985,-3.41579 z m 32.31738,6.4782 0,4.43794 21.9724,0 0,-4.43794 -21.9724,0 z m -28.88199,0.1552 0,28.94036 21.97628,0 0,-28.94036 -21.97628,0 z m -21.5527,3.87445 5.72435,0 0,7.74892 -4.31364,0 0,4.65594 4.31364,0 0,6.13629 -4.31364,0 0,4.65546 4.31364,0 0,6.13223 -4.31364,0 0,4.66358 4.31364,0 0,3.43155 c 0,2.50537 -2.02958,4.54276 -4.53517,4.54276 -2.49969,0 -4.52739,-2.03739 -4.52739,-4.54276 l 0,-34.75003 c 0.33914,-1.52547 1.70453,-2.67394 3.33821,-2.67394 z m 50.43469,8.33199 0,4.43412 21.9724,0 0,-4.43412 -21.9724,0 z m 0,12.35423 0,4.43413 21.9724,0 0,-4.43413 -21.9724,0 z m -28.97527,12.35782 0,4.43818 50.94378,0 0,-4.43818 -50.94378,0 z"
       style="fill:#000000;fill-opacity:1" />
    <path
       inkscape:connector-curvature="0"
       id="icon-annouce"
       d="m 96.13478,869.59826 -9.598456,2.3988 0,54.71928 9.598456,2.4024 0,-29.76024 0,-29.76024 z m -15.360616,3.84 -72.959068,18.24 0,-6.71928 -7.6803117,0 0,28.79904 7.6803117,0 0,-6.71928 16.317744,4.08048 0,11.28024 c 0,3.70464 3.018504,6.71928 6.723168,6.71928 l 26.877216,0 c 3.704664,0 6.723168,-3.01464 6.723168,-6.71928 l 0,-1.2012 16.317772,4.08024 0,-51.84024 z M 29.895,912.55682 l 28.799232,7.19976 0,2.64288 c 0,0.5292 -0.431088,0.95712 -0.961008,0.95712 l -26.877216,0 c -0.52992,0 -0.961008,-0.42792 -0.961008,-0.95712 l 0,-9.84264 z"
       inkscape:label="#icon-announce"
       style="fill:#000000;fill-opacity:1" />
    <path
       style="fill:#000000;fill-opacity:1"
       inkscape:connector-curvature="0"
       id="icon-gears"
       d="m 130.68048,853.86118 c -1.27865,0.19839 -2.65615,0.39294 -4.03316,0.78652 -0.98357,0.19839 -1.57441,0.39198 -1.8695,0.49021 -1.18026,0.29439 -2.2627,0.68925 -3.34459,1.18106 0.39342,2.75409 0.78722,5.50883 1.279,8.16436 -0.39342,0.29439 -0.78569,0.49182 -1.08074,0.68861 -1.18032,0.68828 -2.2633,1.37656 -3.14854,2.16372 -0.59014,0.59005 -1.17917,1.0809 -1.76928,1.67095 -2.5573,-1.18009 -5.01692,-2.26228 -7.47582,-3.44237 l -0.0982,0 c -1.96716,2.55698 -3.63949,5.31139 -4.81977,8.26228 2.26221,1.67223 4.42702,3.2459 6.68924,4.8199 -0.29503,0.98331 -0.59018,1.96661 -0.68854,2.95024 -0.29502,1.1801 -0.39435,2.36051 -0.39435,3.44238 l 0,1.3772 c -2.5573,0.98363 -5.11467,1.96662 -7.67194,2.95025 0.19679,1.86902 0.58928,3.7374 0.9827,5.70433 0.39342,1.27865 0.8853,2.46067 1.37708,3.64109 2.754,-0.39358 5.50841,-0.88539 8.26241,-1.37721 0.19678,0.49182 0.39348,0.88347 0.68853,1.27705 0.59018,0.98331 1.27878,1.96726 2.06562,2.7541 0.59015,0.78683 1.181,1.3772 1.86947,2.06549 -1.18026,2.45907 -2.26237,4.91877 -3.44266,7.37752 l 0,0.0992 c 1.18029,1.08186 2.45791,1.96789 3.8349,2.65618 0.88523,0.59036 1.77056,1.08154 2.75415,1.47512 0.49178,0.29438 1.08321,0.49213 1.67339,0.6886 l 0.0982,-0.0992 c 1.57368,-2.16373 3.246,-4.42697 4.81974,-6.68893 0.8852,0.29439 1.77085,0.59005 2.65609,0.68829 1.08192,0.19839 2.16222,0.29438 3.34247,0.39453 l 0.39435,0 1.37708,0 c 0.88523,2.55731 1.77027,5.11429 2.8522,7.76983 1.18029,-0.19839 2.36045,-0.39326 3.54071,-0.6886 0.29502,0 0.58931,-0.0992 0.98276,-0.29759 l 0,0.002 c 0.29502,0 0.68975,-0.0992 0.98484,-0.19839 1.27859,-0.39326 2.55654,-0.88507 3.73683,-1.3772 -0.39342,-2.75378 -0.88559,-5.50819 -1.27901,-8.26228 0.29503,-0.19839 0.68979,-0.39102 0.98485,-0.68637 0.98353,-0.49149 1.86892,-1.18105 2.75412,-1.86934 0.68851,-0.59036 1.37497,-1.27929 2.06348,-1.96789 2.45891,1.18042 4.91855,2.36083 7.47582,3.44302 2.16385,-2.55731 3.73753,-5.31204 4.91779,-8.2626 l -0.0982,0 c -2.16388,-1.67224 -4.42702,-3.34383 -6.68924,-4.91782 0.19679,-0.88539 0.49213,-1.77079 0.59046,-2.65586 0.29503,-1.18042 0.39438,-2.45843 0.39438,-3.63917 l 0,-1.18073 c 2.55727,-0.98363 5.21272,-1.86838 7.76999,-2.95025 -0.0986,-1.18041 -0.39377,-2.45842 -0.59047,-3.73676 -0.19679,-0.39358 -0.19615,-0.68796 -0.29406,-0.98266 -0.0986,-0.39358 -0.19775,-0.68989 -0.2963,-0.98491 -0.39342,-1.27865 -0.78726,-2.45843 -1.27904,-3.63917 -2.75397,0.49214 -5.50627,0.8854 -8.26026,1.37753 -0.19679,-0.29439 -0.39377,-0.68764 -0.5905,-0.98299 0,-0.0992 -0.0982,-0.19839 -0.0982,-0.29758 -0.59015,-0.8854 -1.27907,-1.8687 -1.96755,-2.7541 -0.59014,-0.59004 -1.08324,-1.17913 -1.67338,-1.76918 1.18029,-2.55763 2.36077,-5.01669 3.44266,-7.574 -1.27862,-1.08186 -2.65371,-2.06517 -4.12906,-2.95024 -0.8852,-0.49181 -1.77056,-0.98363 -2.75415,-1.37721 -0.39342,-0.19839 -0.8853,-0.39326 -1.37705,-0.6886 -1.57374,2.2626 -3.24607,4.52328 -4.81977,6.78524 -0.0986,0 -0.0982,0.0992 -0.0982,0.0992 -0.98356,-0.29438 -1.96885,-0.58973 -2.95242,-0.78652 -1.08192,-0.19838 -2.16219,-0.29438 -3.34248,-0.29438 l -0.0982,0 -1.18099,0 c -0.8852,-2.65554 -1.86832,-5.2122 -2.95025,-7.86774 z m 3.98414,20.29556 c 1.86819,0.0448 3.71097,0.59229 5.55516,1.63735 2.75399,1.57368 4.62337,3.93387 5.4102,7.08122 0.88524,3.14735 0.49115,6.09888 -1.18092,8.95089 -1.57371,2.85264 -4.03211,4.62343 -7.17953,5.5085 -3.04905,0.78684 -6.0989,0.39294 -8.8529,-1.18074 -2.85236,-1.67223 -4.7193,-4.03242 -5.50614,-7.17977 -0.88523,-3.14735 -0.49325,-6.09856 1.17882,-8.95089 1.57368,-2.75409 4.0321,-4.62343 7.17952,-5.41027 1.1434,-0.33182 2.27486,-0.48381 3.39579,-0.45629 z m 32.01365,26.1282 c -0.98353,0 -1.86889,0.0992 -2.75413,0.19839 -0.29502,2.16373 -0.49181,4.32713 -0.68853,6.39262 -0.29503,0.0992 -0.58928,0.19839 -0.9827,0.29759 -0.8852,0.19839 -1.86893,0.58973 -2.75413,0.98298 -0.49178,0.29439 -1.08353,0.58973 -1.57534,0.88444 l -0.0982,0 c -1.57371,-1.37689 -3.24604,-2.75442 -4.81975,-4.03307 l 0,-0.0992 c -2.06549,1.47544 -3.83467,3.24654 -5.31002,5.31203 1.27862,1.67223 2.65615,3.24591 4.03313,4.91782 -0.49178,0.59005 -0.78754,1.27897 -1.18096,1.96758 -0.39342,0.88539 -0.6879,1.67063 -0.88462,2.55602 -0.19679,0.29438 -0.29631,0.68956 -0.29631,1.08282 -2.16385,0.19839 -4.22941,0.3939 -6.29486,0.59069 -0.29503,1.37689 -0.39224,2.85169 -0.39224,4.32713 0,1.08186 0.0973,2.06485 0.29407,3.04816 2.06549,0.29438 4.22908,0.49181 6.39294,0.6886 0,0.29439 0.0998,0.68956 0.2963,1.08282 0.19679,0.78684 0.49121,1.67095 0.88462,2.45811 0.29503,0.59005 0.6895,1.27929 1.08292,1.86934 -1.37701,1.67191 -2.75451,3.24559 -4.03316,4.91782 l -0.0982,0 c 0.78683,0.98331 1.47454,1.96726 2.35978,2.75409 0.49178,0.59037 1.08295,1.17914 1.77145,1.67127 0.29503,0.29439 0.68733,0.59165 1.08074,0.88668 l 0.0982,-0.0992 c 1.67207,-1.3772 3.24575,-2.65618 4.91782,-4.03338 0.59011,0.39358 1.18099,0.68796 1.8695,0.98267 0.78684,0.39357 1.57291,0.78843 2.35974,0.9849 0.0986,0.0992 0.19775,0.0992 0.29631,0.0992 0.39342,0.0992 0.68732,0.19519 1.08074,0.19519 0.0982,2.16372 0.29534,4.32745 0.5905,6.39294 0.8852,0.19839 1.77056,0.19839 2.75412,0.29758 l 0.78662,0 0.78658,0 c 1.08192,-0.0992 2.06686,-0.0992 3.05043,-0.29758 0.29502,-2.16373 0.49181,-4.32681 0.68854,-6.49086 0.29502,0 0.58957,-0.0992 0.88465,-0.19839 0.8852,-0.19839 1.67099,-0.59101 2.45786,-0.98458 0.59011,-0.29439 1.18096,-0.58941 1.86946,-0.98267 1.57371,1.37688 3.24575,2.75409 4.91779,4.03306 l 0,0.0992 c 2.06552,-1.57368 3.83682,-3.24687 5.31217,-5.2138 l 0,-0.0992 c -1.37699,-1.67223 -2.75448,-3.34414 -4.03313,-4.91782 0.29502,-0.59005 0.68761,-1.27929 0.9827,-1.86966 0.39341,-0.88507 0.68975,-1.77078 0.98484,-2.65586 0,-0.29438 0.0979,-0.58972 0.19615,-0.88507 2.16385,-0.19839 4.32745,-0.39358 6.39294,-0.59037 0.19679,-0.98362 0.19583,-1.96629 0.29406,-2.95024 l 0,-0.78652 0,-0.88443 c -0.0985,-0.98363 -0.0973,-1.96694 -0.29406,-2.95024 -2.06549,-0.19839 -4.22909,-0.3939 -6.39294,-0.59069 -0.0986,-0.19839 -0.19615,-0.49342 -0.19615,-0.88667 -0.0986,0 -0.10016,-0.0992 -0.10016,-0.19839 -0.19678,-0.78684 -0.5896,-1.57304 -0.88465,-2.35956 -0.29503,-0.59037 -0.5896,-1.1817 -0.88466,-1.67383 l 0,-0.0992 c 1.37702,-1.57336 2.75422,-3.24559 4.1312,-4.91782 -0.78683,-1.08186 -1.6728,-2.06485 -2.55803,-2.95024 -0.49179,-0.59005 -1.0811,-1.17946 -1.67124,-1.67127 -0.39342,-0.29439 -0.68976,-0.49182 -0.98485,-0.68829 -1.67204,1.27865 -3.34407,2.65618 -4.91778,4.03307 -0.0986,0 -0.0982,-3.2e-4 -0.0982,0.0992 -0.68847,-0.49181 -1.37711,-0.88571 -2.06558,-1.18074 -0.78687,-0.39325 -1.57266,-0.68796 -2.45786,-0.88475 -0.29502,-0.0992 -0.58956,-0.19839 -0.88465,-0.29758 -0.19679,-2.16405 -0.39374,-4.32745 -0.5905,-6.39294 -1.08189,-0.19839 -2.16462,-0.29439 -3.24655,-0.29439 l -1.47512,0 z m 0.88469,15.73612 c 2.55727,0 4.62222,0.88572 6.49098,2.65618 1.7704,1.8687 2.65608,3.93355 2.65608,6.49086 0,2.45907 -0.88568,4.62247 -2.65608,6.39326 -1.86876,1.8687 -3.93371,2.75409 -6.49098,2.65585 -2.45894,0.0992 -4.62254,-0.78715 -6.39294,-2.65585 -1.77043,-1.77079 -2.65611,-3.93419 -2.65611,-6.39326 0,-2.55731 0.88568,-4.62216 2.65611,-6.49086 1.7704,-1.77046 3.934,-2.65618 6.39294,-2.65618 z" />
    <path
       id="icon-document"
       d="m 257.06631,854.39706 c -1.50428,0 -44.25288,0 -44.25288,0 0,0 -4.80176,0.9524 -4.80176,5.5928 l 0,85.5996 c 0,0 1.00404,4.8056 5.48428,4.8056 l 67.51552,0 c 4.92084,0 5.78988,-4.8056 5.78988,-4.8056 l 0,-60.8292 c 0,-4.414 -2.66996,-6.5776 -2.66996,-6.5776 l -20.80268,-21.3088 c 0,0 -2.11528,-2.4788 -6.2624,-2.4788 z m -35.76116,9.446 32.4706,0 c 3.47992,0 3.21368,3.8416 3.21368,3.8416 l 0,10.3012 c 0,0 -0.57372,4.7616 4.10616,4.8016 3.48092,0.04 12.41976,0 12.41976,0 0,0 3.84556,-0.04 3.84556,3.5588 0,11.3624 0.032,48.076 -0.002,50.2828 -0.0644,4.2 -3.84368,4.322 -3.84368,4.322 l -52.2102,0 c 0,0 -3.77076,-0.12 -3.8418,-3.842 -0.0556,-2.8944 0,-69.6004 0,-69.6004 0,0 0.312,-3.6656 3.8418,-3.6656 z m 8.10172,32.628 c -1.32572,0 -2.39996,1.0744 -2.39996,2.4 0,1.3256 1.07424,2.4 2.39996,2.4 l 35.99928,0 c 1.32572,0 2.39996,-1.0744 2.39996,-2.4 0,-1.3256 -1.07424,-2.4 -2.39996,-2.4 l -35.99928,0 z m 0,13.4436 c -1.32572,0 -2.39996,1.074 -2.39996,2.4 0,1.3256 1.07424,2.4 2.39996,2.4 l 35.99928,0 c 1.32572,0 2.39996,-1.0744 2.39996,-2.4 0,-1.326 -1.07424,-2.4 -2.39996,-2.4 l -35.99928,0 z m 0,13.5992 c -1.32572,0 -2.39996,1.074 -2.39996,2.4 0,1.3256 1.07424,2.4 2.39996,2.4 l 35.99928,0 c 1.32572,0 2.39996,-1.0744 2.39996,-2.4 0,-1.326 -1.07424,-2.4 -2.39996,-2.4 l -35.99928,0 z"
       inkscape:connector-curvature="0"
       style="fill:#000000;fill-opacity:1" />
    <g
       id="icon-help"
       style="clip-rule:evenodd;fill:#000000;fill-opacity:1;fill-rule:evenodd;stroke-linejoin:round;stroke-miterlimit:1.41420996"
       transform="matrix(0.96,0,0,0.96,2.6270482,952.09352)">
      <path
         style="fill:#000000;fill-opacity:1"
         d="m 68.9876,65.4722 -13.0851,0 0,13.0594 -10.3546,0 0,-13.0594 -13.0851,0 0,-10.3071 13.0851,0 0,-13.0593 10.3546,0 0,13.0593 13.0851,0 m 9.3031,-42.9522 c 0,0 0,-4.26311 -3.926,-4.26311 l -48.0058,0 c -4.7277,0 -4.6296,4.26311 -4.6296,4.26311 l -0.0981,14.868 -13.82978,0 C 3.49113,27.0809 0,31.6284 0,35.927 l 0,48.6158 c 0,0 1.06383,7.4605 8.56882,7.4605 7.56198,0 78.63408,0 83.52098,0 6.8464,0 7.9102,-7.4605 7.9102,-7.4605 l 0,-48.6158 c 0,-4.2986 -3.495,-8.8461 -7.8014,-8.8461 l -13.8298,0 m -12.2861,-9.4855 -31.2605,0 c -1.8435,0 -1.8435,2.1316 -1.8435,2.1316 l 0,7.4605 35.1064,0 0,-7.4605 c -0.1252,-1.7038 -1.0192,-2.1475 -2.0024,-2.1316"
         id="help"
         inkscape:connector-curvature="0" />
    </g>
    <g
       sketch:type="MSPage"
       id="icon-trophy"
       style="fill:#000000;fill-opacity:1;fill-rule:evenodd;stroke:none;stroke-width:1"
       transform="matrix(0.96,0,0,0.96,101.58574,955.08347)">
      <g
         sketch:type="MSArtboardGroup"
         id="trophy"
         style="fill:#000000;fill-opacity:1">
        <path
           style="fill:#000000;fill-opacity:1"
           id="path12-5"
           sketch:type="MSShapeGroup"
           d="M 90.048538,13.05 C 89.349045,11.75 88.212631,10.435417 86.830449,9.5958333 85.441965,8.7354167 83.851825,8.31875 82.377217,8.30625 80.892107,8.2833333 77.964416,9.1750002 77.760498,9.3660889 77.796208,5.0348389 77.657213,4.45625 77.657213,4.45625 77.598396,3.10625 76.436775,0 73.069297,0 L 26.926088,0 c -3.363276,0 -4.526998,3.10625 -4.587915,4.4583333 0,0 -0.03781,0.8083338 0,5.1375005 C 22.25415,9.3583338 21.941163,9.2895833 21.695395,9.175 20.489662,8.6208333 19.105379,8.2833333 17.620269,8.3041667 c -1.476708,0.0125 -3.060546,0.43125 -4.44903,1.2916666 C 11.784856,10.435417 10.650542,11.745833 9.9510488,13.05 9.253656,14.314583 8.8293387,15.560417 8.5247545,16.8125 c -0.5881626,2.497917 -0.6427777,4.952083 -0.3570987,7.38125 0.1428394,1.216667 0.3865068,2.425 0.7436055,3.633333 0.3634005,1.204167 0.8381317,2.4125 1.5292227,3.61875 0.346596,0.6 1.944526,2.641669 2.852589,3.3375 1.086,0.854167 2.283331,1.539584 3.604596,2.039584 1.314964,0.479166 1.825809,0.797522 4.226368,0.710416 2.40056,-0.08711 4.725939,-1.131249 4.725939,-1.131249 4.711602,11.74375 17.474975,20.758333 17.474975,20.758333 1.090201,0.81875 1.789695,2.575 1.552329,3.904166 0,0 -0.556654,3.164584 -1.165822,6.177084 -1.369579,6.8 -3.413444,12.675 -3.413444,12.675 -0.447423,1.277083 -1.926232,2.325 -3.289509,2.325 l -10.834548,0 c -1.363277,0 -2.478685,1.10625 -2.478685,2.458333 l 0,12.841667 c 0,1.354166 1.113308,2.458333 2.478685,2.458333 l 47.660075,0 c 1.365378,0 2.484987,-1.102083 2.484987,-2.458333 l 0,-12.841667 c 0,-1.35 -1.117509,-2.458333 -2.484987,-2.458333 l -10.832447,0 c -1.363277,0 -2.844186,-1.047917 -3.28951,-2.325 0,0 -2.043865,-5.875 -3.415544,-12.675 -0.607068,-3.0125 -1.163721,-6.179167 -1.163721,-6.179167 -0.231064,-1.33125 0.464228,-3.0875 1.554429,-3.902083 0,0 12.971448,-9.158228 17.67885,-20.906145 0,0 2.376709,1.337395 4.519963,1.281145 1.459904,0.05625 2.909305,-0.227084 4.228469,-0.7125 1.319165,-0.495834 2.514395,-1.179167 3.602496,-2.039584 0.266774,-0.214583 0.544051,-0.452083 0.804523,-0.695833 0.266773,-0.252083 0.560855,-0.564583 0.802421,-0.85 0.491536,-0.585417 0.901149,-1.1875 1.247745,-1.789583 0.688991,-1.204167 1.163722,-2.4125 1.527122,-3.620834 0.3592,-1.20625 0.602867,-2.416666 0.743606,-3.63125 C 92.11551,21.766667 92.058794,19.3125 91.472732,16.8125 91.168148,15.560417 90.739629,14.314583 90.048538,13.05 l 0,0 z M 19.826124,29.617528 c -0.566203,-0.29729 -1.972221,-1.143382 -2.537138,-2.358276 -0.519175,-1.116524 -0.730494,-1.426055 -1.136324,-3.79963 -0.40583,-2.373576 0,-4.628148 1.187263,-6.073905 0.914937,-0.951995 1.72016,-1.405123 2.486199,-1.385081 0.605386,0.0167 1.868764,0.136818 2.55576,0.504409 0.245069,4.519294 0.305568,7.887821 1.618116,13.112483 -1.783247,0.417736 -3.04147,0.59458 -4.173876,0 l 0,0 z m 61.347752,-0.02732 c -1.132406,0.637049 -2.390629,0.447574 -4.173876,-1e-6 1.312548,-5.597851 1.373047,-9.206987 1.618116,-14.049088 0.686996,-0.393848 1.950374,-0.522543 2.55576,-0.540438 0.766039,-0.02147 1.571262,0.46402 2.486199,1.484015 1.187263,1.549025 1.593093,3.964638 1.187263,6.507755 -0.40583,2.543116 -0.617149,2.874757 -1.136324,4.071032 -0.564917,1.301672 -1.970935,2.2082 -2.537138,2.526725 z"
           inkscape:connector-curvature="0" />
      </g>
    </g>
    <g
       transform="matrix(0.96,0,0,0.96,99.74258,654.04272)"
       sketch:type="MSPage"
       id="icon-comments"
       style="fill:#000000;fill-opacity:1;fill-rule:evenodd;stroke:none;stroke-width:1">
      <g
         sketch:type="MSArtboardGroup"
         id="forum"
         style="fill:#000000;fill-opacity:1">
        <path
           id="path12"
           sketch:type="MSShapeGroup"
           d="M 33.000006,45.878523 C 29.237885,49.705989 21.325838,56.994861 17.68098,60.85469 c -0.444819,0.542071 -1.306498,0.08642 -1.306498,-0.559093 l 0,-14.701669 -8.6551398,0 C 2.6433169,45.593928 0,43.320649 0,37.846253 L 0,7.748984 C 0,2.2745877 2.6433169,0 7.7193422,0 L 53.284466,0 c 5.076026,0 7.719343,2.2745877 7.71553,7.748984 l 0,27.251016 -20.584548,0 c -4.826384,0 -7.419067,3.251077 -7.415442,8.493911 l 0,2.384612 0,0 z M 92.138238,40 C 97.297477,40 100,42.349164 100,48.003049 l 0,29.084063 c 0,5.653885 -2.702523,8.001697 -7.861762,8.001697 l -3.527392,0 0,14.08533 c 0,0.666674 -0.875805,1.137271 -1.327916,0.577424 C 82.852051,96.273437 73.178695,88.954978 69.481715,85.091513 l -23.619947,0 c -5.159239,0 -7.861761,-2.350516 -7.861761,-8.001696 l 0,-29.086768 C 37.996131,42.349164 40.698654,40 45.857893,40 l 46.280345,0 0,0 z"
           inkscape:connector-curvature="0"
           style="fill:#000000;fill-opacity:1" />
      </g>
    </g>
    <g
       id="icon-outline-logo"
       transform="matrix(0.60058221,0,0,0.60058221,540.93496,639.61941)"
       style="stroke:#111111;stroke-width:3.33010197;stroke-miterlimit:4;stroke-dasharray:none;stroke-opacity:1">
      <path
         style="fill:none;fill-opacity:1;stroke:#111111;stroke-width:3.33010197;stroke-miterlimit:4;stroke-dasharray:none;stroke-opacity:1"
         id="path3946-56-5-5"
         d="m -816.29256,25.213916 a 15.881612,15.918136 0 0 0 -8.31714,2.13505 l -53.64783,31.03382 a 15.881612,15.918136 0 0 0 -7.94525,13.78376 l 0,62.100154 a 15.881612,15.918136 0 0 0 7.94525,13.7676 l 53.64783,31.0582 a 15.881612,15.918136 0 0 0 15.88236,0 l 53.65597,-31.0582 a 15.881612,15.918136 0 0 0 7.93712,-13.7676 l 0,-62.100154 a 15.881612,15.918136 0 0 0 -7.93712,-13.78376 l -53.65597,-31.03382 a 15.881612,15.918136 0 0 0 -7.56522,-2.13505 z m -0.17228,35.10079 a 8.7348856,8.7549739 0 0 1 4.16363,1.16899 l 29.5122,17.07142 a 8.7348856,8.7549739 0 0 1 4.36627,7.58204 l 0,34.159124 a 8.7348856,8.7549739 0 0 1 -4.36627,7.56559 l -29.5122,17.08767 a 8.7348856,8.7549739 0 0 1 -8.73053,0 l -29.51323,-17.08767 a 8.7348856,8.7549739 0 0 1 -4.36527,-7.56559 l 0,-34.159124 a 8.7348856,8.7549739 0 0 1 4.36527,-7.58204 l 29.51323,-17.07142 a 8.7348856,8.7549739 0 0 1 4.5669,-1.16899 z"
         inkscape:connector-curvature="0" />
      <path
         inkscape:connector-curvature="0"
         id="path3948-7-5-2"
         d="m -749.2643,64.233086 -30.33985,17.55078 a 8.7348856,8.7549739 0 0 1 1.17383,4.375 l 0,34.150394 a 8.7348856,8.7549739 0 0 1 -4.36523,7.57422 l -29.50391,17.08008 a 8.7348856,8.7549739 0 0 1 -4.34961,1.16016 l 0,35.10156 a 15.881612,15.918136 0 0 0 7.92188,-2.11914 l 11.93554,-6.90821 15.23047,8.86329 c 6.81216,3.96431 17.77964,3.96431 24.5918,0 l 6.81055,-3.9629 c 6.81216,-3.96431 6.81216,-10.34818 0,-14.3125 l -15.14649,-8.81445 10.23438,-5.92383 a 15.881612,15.918136 0 0 0 7.9375,-13.76757 l 0,-62.091804 a 15.881612,15.918136 0 0 0 -2.13086,-7.95508 z"
         style="fill:none;fill-opacity:1;stroke:#111111;stroke-width:3.33010197;stroke-miterlimit:4;stroke-dasharray:none;stroke-opacity:1" />
      <path
         style="fill:none;fill-opacity:1;stroke:#111111;stroke-width:3.33010197;stroke-miterlimit:4;stroke-dasharray:none;stroke-opacity:1"
         id="path3950-9-9-6"
         d="m -884.05762,64.206666 30.33395,17.55954 a 8.7348856,8.7549739 0 0 1 3.19291,-3.20714 l 29.50814,-17.07538 a 8.7348856,8.7549739 0 0 1 8.72648,0.003 l 29.51015,17.07082 a 8.7348856,8.7549739 0 0 1 3.17769,3.19475 l 30.32789,-17.55009 a 15.881612,15.918136 0 0 0 -5.79096,-5.81618 l -53.66405,-31.04522 a 15.881612,15.918136 0 0 0 -15.86414,-0.005 l -53.64884,31.04612 a 15.881612,15.918136 0 0 0 -5.80922,5.82653 z"
         inkscape:connector-curvature="0" />
    </g>
  </g>
</svg>
